<svg width="24" height="24" viewBox="0 0 24 24" fill="none" xmlns="http://www.w3.org/2000/svg">
<path fill-rule="evenodd" clip-rule="evenodd" d="M5.10571 5.10571C6.93419 3.27723 9.41414 2.25 12 2.25C14.5859 2.25 17.0658 3.27723 18.8943 5.10571C20.7228 6.93419 21.75 9.41414 21.75 12C21.75 13.2804 21.4978 14.5482 21.0078 15.7312C20.5178 16.9141 19.7997 17.9889 18.8943 18.8943C17.9889 19.7997 16.9141 20.5178 15.7312 21.0078C14.5482 21.4978 13.2804 21.75 12 21.75C10.7196 21.75 9.45176 21.4978 8.26884 21.0078C7.08591 20.5178 6.01108 19.7997 5.10571 18.8943C4.20034 17.9889 3.48216 16.9141 2.99217 15.7312C2.50219 14.5482 2.25 13.2804 2.25 12C2.25 9.41414 3.27723 6.93419 5.10571 5.10571ZM12 3.75C11.9739 3.75 11.9478 3.75012 11.9217 3.75037C11.093 5.15662 10.4843 6.67405 10.1105 8.25H13.8892C13.5154 6.67405 12.9067 5.15661 12.078 3.75037C12.052 3.75012 12.026 3.75 12 3.75ZM13.9096 3.97402C14.5976 5.33119 15.1069 6.76856 15.4271 8.25H19.3485C18.9593 7.48736 18.4503 6.78307 17.8336 6.16637C16.745 5.07769 15.3833 4.3247 13.9096 3.97402ZM14.1713 9.75H9.82839C9.72454 10.4928 9.67188 11.2445 9.67188 12C9.67188 12.7555 9.72454 13.5072 9.82839 14.25H14.1713C14.2751 13.5072 14.3278 12.7555 14.3278 12C14.3278 11.2445 14.2751 10.4928 14.1713 9.75ZM15.6846 14.25C15.7797 13.5063 15.8278 12.7549 15.8278 12C15.8278 11.2451 15.7797 10.4937 15.6846 9.75H19.9373C20.143 10.4757 20.25 11.2323 20.25 12C20.25 12.7624 20.1443 13.5195 19.9373 14.25H15.6846ZM13.8892 15.75H10.1105C10.4843 17.3259 11.093 18.8434 11.9217 20.2496C11.9478 20.2499 11.9739 20.25 12 20.25C12.026 20.25 12.052 20.2499 12.078 20.2496C12.9067 18.8434 13.5154 17.326 13.8892 15.75ZM13.9096 20.0259C14.5976 18.6688 15.1069 17.2314 15.4271 15.75H19.3485C18.9564 16.5184 18.4455 17.2217 17.8336 17.8336C17.0675 18.5997 16.1581 19.2074 15.1571 19.622C14.7517 19.7899 14.3345 19.9248 13.9096 20.0259ZM6.16637 6.16637C7.25495 5.07778 8.61643 4.32483 10.09 3.97411C9.40201 5.33125 8.89273 6.76859 8.57252 8.25H4.65152C5.04068 7.48736 5.54966 6.78307 6.16637 6.16637ZM4.06273 9.75H8.31505C8.22001 10.4937 8.17188 11.2451 8.17188 12C8.17188 12.7549 8.22001 13.5063 8.31505 14.25H4.06275C3.85566 13.5195 3.75 12.7624 3.75 12C3.75 11.2323 3.857 10.4757 4.06273 9.75ZM4.65153 15.75H8.57252C8.89273 17.2314 9.402 18.6687 10.09 20.0259C9.66521 19.9248 9.24815 19.7899 8.84286 19.622C7.84193 19.2074 6.93245 18.5997 6.16637 17.8336C5.55448 17.2217 5.04364 16.5184 4.65153 15.75Z" fill="#1366DE"/>
</svg>
