<svg width="24" height="24" viewBox="0 0 24 24" fill="none" xmlns="http://www.w3.org/2000/svg">
<path fill-rule="evenodd" clip-rule="evenodd" d="M9 2.25C7.74022 2.25 6.53204 2.75044 5.64124 3.64124C4.75044 4.53204 4.25 5.74022 4.25 7C4.25 8.25978 4.75044 9.46796 5.64124 10.3588C6.53204 11.2496 7.74022 11.75 9 11.75C10.2598 11.75 11.468 11.2496 12.3588 10.3588C13.2496 9.46796 13.75 8.25978 13.75 7C13.75 5.74022 13.2496 4.53204 12.3588 3.64124C11.468 2.75044 10.2598 2.25 9 2.25ZM6.7019 4.7019C7.3114 4.09241 8.13805 3.75 9 3.75C9.86195 3.75 10.6886 4.09241 11.2981 4.7019C11.9076 5.3114 12.25 6.13805 12.25 7C12.25 7.86195 11.9076 8.6886 11.2981 9.2981C10.6886 9.90759 9.86195 10.25 9 10.25C8.13805 10.25 7.3114 9.90759 6.7019 9.2981C6.09241 8.6886 5.75 7.86195 5.75 7C5.75 6.13805 6.09241 5.3114 6.7019 4.7019ZM4.7019 16.7019C5.3114 16.0924 6.13805 15.75 7 15.75H11C11.862 15.75 12.6886 16.0924 13.2981 16.7019C13.9076 17.3114 14.25 18.138 14.25 19V21V21.75H15.75V21V19C15.75 17.7402 15.2496 16.532 14.3588 15.6412C13.468 14.7504 12.2598 14.25 11 14.25H7C5.74022 14.25 4.53204 14.7504 3.64124 15.6412C2.75044 16.532 2.25 17.7402 2.25 19V21V21.75H3.75V21V19C3.75 18.138 4.09241 17.3114 4.7019 16.7019ZM19.2981 16.7019C18.6886 16.0924 17.862 15.75 17 15.75V14.25C18.2598 14.25 19.468 14.7504 20.3588 15.6412C21.2496 16.532 21.75 17.7402 21.75 19V21V21.75H20.25V21V19C20.25 18.138 19.9076 17.3114 19.2981 16.7019ZM18.3588 3.64124C17.468 2.75044 16.2598 2.25 15 2.25V3.75C15.862 3.75 16.6886 4.09241 17.2981 4.7019C17.9076 5.3114 18.25 6.13805 18.25 7C18.25 7.86195 17.9076 8.6886 17.2981 9.2981C16.6886 9.90759 15.862 10.25 15 10.25V11.75C16.2598 11.75 17.468 11.2496 18.3588 10.3588C19.2496 9.46796 19.75 8.25978 19.75 7C19.75 5.74022 19.2496 4.53204 18.3588 3.64124Z" fill="#1366DE"/>
</svg>
