<svg width="24" height="24" viewBox="0 0 24 24" xmlns="http://www.w3.org/2000/svg">
<path d="M7.06233 19.4029L7.09829 19.4243C8.62361 20.3298 10.0728 20.8687 11.9899 20.8696L7.06233 19.4029ZM7.06233 19.4029L7.02188 19.4135M7.06233 19.4029L7.02188 19.4135M7.02188 19.4135L3.75928 20.2688M7.02188 19.4135L3.75928 20.2688M3.75928 20.2688L4.62927 17.0919L4.64088 17.0495L4.6175 17.0123C3.62086 15.4259 3.03142 13.917 3.03233 11.901C3.03414 6.96043 7.05476 2.94069 11.9972 2.94067L3.75928 20.2688ZM14.4046 13.3782L14.4046 13.3781C14.5066 13.2255 14.6207 13.1452 14.758 13.1296C14.8843 13.1151 15.0137 13.1589 15.1353 13.2031M14.4046 13.3782L16.9628 14.1835M14.4046 13.3782C14.2274 13.644 13.7097 14.253 13.5499 14.4358C13.4802 14.5155 13.4215 14.5481 13.3607 14.5555C13.2958 14.5634 13.2092 14.545 13.0797 14.48C13.0325 14.4563 12.9691 14.4288 12.8915 14.3951C12.5052 14.2273 11.7662 13.9063 10.9106 13.1427L10.8441 13.2173M14.4046 13.3782L10.8441 13.2173M15.1353 13.2031L15.1011 13.2971L15.1351 13.2031C15.1352 13.2031 15.1352 13.2031 15.1353 13.2031ZM15.1353 13.2031C15.2666 13.2508 15.67 13.4413 16.0672 13.6331C16.4676 13.8264 16.871 14.0256 17.0076 14.0941M17.0076 14.0941C17.0076 14.0941 17.0076 14.0941 17.0075 14.0941L16.9628 14.1835M17.0076 14.0941C17.0576 14.1191 17.1062 14.1426 17.1522 14.1648C17.2264 14.2006 17.2937 14.2331 17.3491 14.2634C17.4391 14.3128 17.5225 14.3688 17.5712 14.4503L17.4853 14.5016M17.0076 14.0941L16.9628 14.1835M16.9628 14.1835L17.4853 14.5016M17.4853 14.5016L17.5709 14.4498C17.6012 14.5 17.615 14.5763 17.6212 14.6546C17.6278 14.7383 17.6269 14.8428 17.6167 14.962C17.5961 15.2006 17.5375 15.5046 17.4209 15.8314L17.4209 15.8314C17.2956 16.1819 16.9428 16.5014 16.5723 16.7389C16.1995 16.9779 15.7831 17.1502 15.5026 17.1919L15.5026 17.1919C15.025 17.2628 14.4142 17.2936 13.7416 17.0801L13.7416 17.0801C13.3451 16.9541 12.8337 16.7852 12.1794 16.5028L12.1794 16.5028C9.59966 15.389 7.85907 12.8921 7.53374 12.4254C7.51074 12.3924 7.49481 12.3695 7.48617 12.358L7.48597 12.3578L7.4827 12.3534C7.40863 12.2544 7.13104 11.8832 6.87007 11.3691C6.6058 10.8486 6.35415 10.1731 6.35415 9.48008C6.35415 8.18741 6.99194 7.50583 7.27903 7.19904C7.29904 7.17765 7.31735 7.15808 7.33363 7.14025C7.60518 6.84274 7.92913 6.76667 8.13348 6.76667H8.13524V6.76668L8.65774 6.77585L8.66092 6.7759L8.66092 6.77596C8.67234 6.77652 8.68664 6.77636 8.70321 6.77618C8.77233 6.7754 8.88095 6.77419 8.98471 6.82324C9.12147 6.88787 9.24619 7.02888 9.3615 7.30477L9.36159 7.30499C9.43148 7.47336 9.53172 7.71762 9.63884 7.97866C9.70533 8.14069 9.77447 8.30918 9.84066 8.47001C10.0151 8.89376 10.1661 9.25708 10.1981 9.3203L10.1982 9.32054C10.2734 9.46994 10.3324 9.66558 10.2213 9.8878L10.2212 9.88798C10.2078 9.91463 10.1952 9.94016 10.1831 9.96487C10.1145 10.1046 10.0586 10.2184 9.93237 10.3623M17.4853 14.5016L10.1089 9.3655C10.1776 9.50208 10.2226 9.66158 10.1318 9.84308C10.1178 9.87093 10.1049 9.89718 10.0926 9.92222C10.0243 10.0612 9.9741 10.1632 9.85681 10.2968M9.93237 10.3623C9.93223 10.3625 9.9321 10.3627 9.93196 10.3628L9.85681 10.2968M9.93237 10.3623C9.9325 10.3622 9.93264 10.362 9.93277 10.3619L9.85681 10.2968M9.93237 10.3623C9.89026 10.4115 9.84521 10.4664 9.79926 10.5224C9.70357 10.6391 9.60394 10.7605 9.51869 10.8451M9.85681 10.2968C9.81114 10.3502 9.76403 10.4076 9.71696 10.465C9.62327 10.5792 9.52974 10.6933 9.44798 10.7744M9.51869 10.8451L9.44798 10.7744M9.51869 10.8451C9.44816 10.9157 9.39561 10.9717 9.37179 11.0358C9.35153 11.0903 9.3479 11.164 9.41522 11.2796L9.4153 11.2797C9.57212 11.5498 10.113 12.4309 10.9106 13.1427L10.8441 13.2173M9.51869 10.8451C9.5186 10.8452 9.51852 10.8453 9.51843 10.8454L9.44798 10.7744M9.44798 10.7744L10.8441 13.2173M0.903548 22.9736L0.857812 23.1407L1.02537 23.0967L6.76663 21.5906C8.36498 22.4553 10.1661 22.9102 11.9935 22.9112H11.9936C18.0575 22.9112 22.9927 17.976 22.9955 11.9102C22.9964 8.97053 21.8529 6.2061 19.7762 4.12667L19.7762 4.12665C17.6986 2.04722 14.936 0.900925 11.9936 0.9H11.9936C5.92958 0.9 0.994442 5.83519 0.991666 11.9C0.990748 13.8258 1.48945 15.7043 2.43898 17.3643L0.903548 22.9736ZM20.9548 11.9083C20.9521 16.8498 16.9287 20.8696 11.9899 20.8696L11.9972 2.94067C16.9524 2.9425 20.9566 6.95663 20.9548 11.9083Z" />
</svg>
