<svg width="32" height="32" viewBox="0 0 32 32" xmlns="http://www.w3.org/2000/svg">
<path fill-rule="evenodd" clip-rule="evenodd" d="M4.89162 14.9C4.8907 16.8291 5.38671 18.7115 6.33155 20.3778L4.71558 26.2814L10.7538 24.6973C12.3582 25.5578 14.1628 26.0102 15.9935 26.0112C22.1127 26.0112 27.0926 21.0312 27.0954 14.9102C27.0963 11.944 25.9423 9.15415 23.8469 7.05596C21.7506 4.95777 18.9625 3.80092 15.9935 3.79999C9.87429 3.79999 4.89442 8.77996 4.89162 14.9ZM11.0774 22.2956L11.1493 22.3383C12.6636 23.2373 14.0952 23.7687 15.9898 23.7696C20.8734 23.7695 24.8521 19.7945 24.8547 14.9082C24.8565 10.0117 20.8969 6.04249 15.9971 6.04065C11.1099 6.04069 7.13407 10.0157 7.13228 14.9011C7.13139 16.8933 7.71259 18.384 8.70213 19.9591L8.74889 20.0335L7.90143 23.1282L10.9965 22.3168L11.0774 22.2956Z" />
<path d="M18.7466 16.0302C18.5713 16.0502 18.4341 16.1539 18.3214 16.3226C18.1486 16.5818 17.6355 17.1858 17.4746 17.37C17.4145 17.4387 17.3765 17.4528 17.3486 17.4562C17.3126 17.4606 17.2473 17.4522 17.1245 17.3906C17.0748 17.3657 17.0092 17.3372 16.9296 17.3025C16.7106 17.2073 16.3855 17.0659 15.9927 16.826C15.6888 16.6404 15.3444 16.3958 14.9772 16.0681C14.1914 15.3669 13.6566 14.4963 13.5016 14.2292C13.4462 14.1342 13.4576 14.0918 13.4655 14.0706C13.4804 14.0303 13.5161 13.9891 13.5892 13.916C13.6781 13.8277 13.784 13.6986 13.8816 13.5798C13.9263 13.5253 13.9692 13.473 14.0079 13.4278C14.1432 13.2735 14.2047 13.1479 14.2735 13.0075C14.2855 12.9832 14.2978 12.958 14.3107 12.9325C14.4421 12.6696 14.3689 12.4373 14.2872 12.2751C14.2576 12.2165 14.1089 11.859 13.9331 11.4319C13.867 11.2713 13.7979 11.1029 13.7314 10.9408L13.7054 10.8777C13.6081 10.6404 13.518 10.421 13.4537 10.2662C13.334 9.9798 13.1962 9.81258 13.0274 9.73281C12.898 9.67167 12.753 9.67465 12.6908 9.67592C12.6796 9.67615 12.6711 9.67622 12.6658 9.67596L12.1369 9.66665H12.1334C11.9062 9.66665 11.5535 9.75097 11.2597 10.0728C11.2436 10.0905 11.2253 10.11 11.2053 10.1315C10.9152 10.4413 10.2541 11.1476 10.2541 12.4801C10.2541 13.1956 10.5133 13.8874 10.7809 14.4144C11.0457 14.9361 11.3274 15.3127 11.4025 15.4132L11.4062 15.4182C11.4144 15.429 11.4296 15.4509 11.4518 15.4828L11.4946 15.5441C11.8986 16.1209 13.5611 18.4171 15.9916 19.5287C16.0407 19.5512 16.0901 19.5732 16.1398 19.5946C16.7984 19.8789 17.3134 20.049 17.7113 20.1754C18.4038 20.3952 19.0315 20.3629 19.5173 20.2908C19.8166 20.2463 20.2464 20.0666 20.6262 19.8231C21.0013 19.5826 21.3782 19.2478 21.515 18.865C21.6345 18.5301 21.695 18.2176 21.7163 17.9705C21.7269 17.8472 21.728 17.7371 21.7208 17.6466C21.7145 17.5673 21.6999 17.4704 21.6567 17.3985C21.5933 17.2927 21.4889 17.2261 21.3971 17.1757C21.3399 17.1444 21.268 17.1096 21.1916 17.0727C21.1461 17.0508 21.099 17.028 21.0524 17.0047C20.9152 16.9359 20.5114 16.7365 20.1106 16.543C19.7163 16.3526 19.307 16.1591 19.1694 16.1091C19.0509 16.066 18.8998 16.0127 18.7466 16.0302Z" />
</svg>
