<svg width="24" height="24" viewBox="0 0 24 24" fill="none" xmlns="http://www.w3.org/2000/svg">
<path fill-rule="evenodd" clip-rule="evenodd" d="M5.75 5C5.75 4.30964 6.30964 3.75 7 3.75H17C17.6904 3.75 18.25 4.30964 18.25 5V20.25H5.75V5ZM4.25 20.25H3H2.25V21.75H3H5H19H21H21.75V20.25H21H19.75V5C19.75 3.48122 18.5188 2.25 17 2.25H7C5.48122 2.25 4.25 3.48122 4.25 5V20.25ZM9 7.25H8.25V8.75H9H10H10.75V7.25H10H9ZM8.25 11.25H9H10H10.75V12.75H10H9H8.25V11.25ZM9 15.25H8.25V16.75H9H10H10.75V15.25H10H9ZM13.25 7.25H14H15H15.75V8.75H15H14H13.25V7.25ZM14 11.25H13.25V12.75H14H15H15.75V11.25H15H14ZM13.25 15.25H14H15H15.75V16.75H15H14H13.25V15.25Z" fill="#1366DE"/>
</svg>
