<svg width="24" height="24" viewBox="0 0 24 24" fill="none" xmlns="http://www.w3.org/2000/svg">
<path fill-rule="evenodd" clip-rule="evenodd" d="M9.75 4C9.75 3.86193 9.86193 3.75 10 3.75H14C14.1381 3.75 14.25 3.86193 14.25 4V5V6C14.25 6.13807 14.1381 6.25 14 6.25H10C9.86193 6.25 9.75 6.13807 9.75 6V5V4ZM8.25 4.25V4C8.25 3.0335 9.0335 2.25 10 2.25H14C14.9665 2.25 15.75 3.0335 15.75 4V4.25H17C17.7293 4.25 18.4288 4.53973 18.9445 5.05546C19.4603 5.57118 19.75 6.27065 19.75 7V19C19.75 19.7293 19.4603 20.4288 18.9445 20.9445C18.4288 21.4603 17.7293 21.75 17 21.75H7C6.27065 21.75 5.57118 21.4603 5.05546 20.9445C4.53973 20.4288 4.25 19.7293 4.25 19V7C4.25 6.27065 4.53973 5.57118 5.05546 5.05546C5.57118 4.53973 6.27065 4.25 7 4.25H8.25ZM15.75 5.75H17C17.3315 5.75 17.6495 5.8817 17.8839 6.11612C18.1183 6.35054 18.25 6.66848 18.25 7V19C18.25 19.3315 18.1183 19.6495 17.8839 19.8839C17.6495 20.1183 17.3315 20.25 17 20.25H7C6.66848 20.25 6.35054 20.1183 6.11612 19.8839C5.8817 19.6495 5.75 19.3315 5.75 19V7C5.75 6.66848 5.8817 6.35054 6.11612 6.11612C6.35054 5.8817 6.66848 5.75 7 5.75H8.25V6C8.25 6.9665 9.0335 7.75 10 7.75H14C14.9665 7.75 15.75 6.9665 15.75 6V5.75ZM9 11.25H8.25V12.75H9H15H15.75V11.25H15H9ZM8.25 15.25H9H15H15.75V16.75H15H9H8.25V15.25Z" fill="#1366DE"/>
</svg>
