<svg width="24" height="24" viewBox="0 0 24 24" fill="none" xmlns="http://www.w3.org/2000/svg">
<path fill-rule="evenodd" clip-rule="evenodd" d="M7.75 3.25V1.5H6.25V3.25H5.65C5.03523 3.25 4.433 3.47146 3.97865 3.88469C3.52193 4.30007 3.25 4.87954 3.25 5.50065C3.25 6.12177 3.52193 6.70124 3.97865 7.11662C4.433 7.52985 5.03524 7.75131 5.65 7.75131H5.65036L8.35 7.75H8.35029H8.35036C8.61067 7.75009 8.84766 7.84482 9.0121 7.99438C9.17425 8.14185 9.25 8.32577 9.25 8.50066C9.25 8.67554 9.17425 8.85946 9.0121 9.00693C8.84765 9.1565 8.61063 9.25124 8.35029 9.25131H8.35023H8.35L5.00029 9.25L4.25029 9.24971L4.24971 10.7497L4.99971 10.75L6.25 10.7505V12.5H7.75V10.7511L8.34971 10.7513H8.35C8.96477 10.7513 9.567 10.5299 10.0214 10.1166C10.4781 9.70124 10.75 9.12177 10.75 8.50066C10.75 7.87955 10.4781 7.30007 10.0214 6.88469C9.567 6.47146 8.96477 6.25 8.35 6.25H8.34964L5.65 6.25131H5.64971H5.64964C5.38933 6.25122 5.15234 6.15649 4.9879 6.00693C4.82575 5.85946 4.75 5.67554 4.75 5.50065C4.75 5.32577 4.82575 5.14185 4.9879 4.99438C5.15241 4.84475 5.38955 4.75 5.65 4.75H9.01673H9.76673V3.25H9.01673H7.75ZM15.5 5.75H13.5V4.25H15.5C17.5711 4.25 19.25 5.92893 19.25 8V9H17.75V8C17.75 6.75736 16.7426 5.75 15.5 5.75ZM9.5 19.75C6.87665 19.75 4.75 17.6234 4.75 15H6.25C6.25 16.7949 7.70507 18.25 9.5 18.25H10V19.75H9.5ZM14.25 12.25H15H18C19.5188 12.25 20.75 13.4812 20.75 15C20.75 16.5188 19.5188 17.75 18 17.75H15.75V19.25H17.5V20.75H15.75V22H14.25V20.75H12.5V19.25H14.25V17.75H12.5V16.25H14.25V13V12.25ZM15.75 16.25H18C18.6904 16.25 19.25 15.6904 19.25 15C19.25 14.3096 18.6904 13.75 18 13.75H15.75V16.25Z" fill="#1366DE"/>
</svg>
