<svg width="194" height="44" viewBox="0 0 194 44" fill="none" xmlns="http://www.w3.org/2000/svg">
<g clip-path="url(#clip0_402_499)">
<path fill-rule="evenodd" clip-rule="evenodd" d="M23.7922 44C35.893 44 45.7026 34.1904 45.7026 22.0896C45.7026 9.98884 35.893 0.179226 23.7922 0.179226C11.6915 0.179226 1.88184 9.98884 1.88184 22.0896C1.88184 34.1904 11.6915 44 23.7922 44ZM23.7922 37.7719C32.4533 37.7719 39.4745 30.7507 39.4745 22.0896C39.4745 13.4285 32.4533 6.40733 23.7922 6.40733C15.1311 6.40733 8.10994 13.4285 8.10994 22.0896C8.10994 30.7507 15.1311 37.7719 23.7922 37.7719Z" fill="#3BB5FC"/>
<path fill-rule="evenodd" clip-rule="evenodd" d="M55.5944 29.9925L55.5945 29.9924C56.088 28.9051 56.57 27.8434 57.0404 26.7764C57.1739 26.4735 57.2393 26.4349 57.5592 26.6258C59.2162 27.6143 60.9986 28.2541 62.9208 28.5426C64.3053 28.7506 65.6728 28.7855 67.0206 28.4244C67.6998 28.2424 68.3182 27.9216 68.4481 27.0757C68.5395 26.4798 68.3164 25.779 67.7267 25.5612C66.6451 25.1624 65.5446 24.8022 64.4289 24.5154C63.9969 24.4044 63.5621 24.3021 63.1274 24.1998L63.1274 24.1998L63.1274 24.1998C61.7027 23.8647 60.2783 23.5296 58.9518 22.8863C57.673 22.2662 56.5977 21.3673 56.0277 20.033C55.7616 19.4093 55.6487 18.7058 55.5546 18.0266C55.413 17.0005 55.5107 15.9834 55.9023 15.0084C56.5018 13.5163 57.4588 12.3451 58.8729 11.5341C60.1598 10.7957 61.5335 10.3378 62.9978 10.2078L63.2527 10.1851C64.5364 10.0706 65.8344 9.9548 67.1111 10.0447C69.5064 10.2123 71.848 10.7007 74.0014 11.9768L73.736 12.6092L73.7353 12.6111C73.5506 13.051 73.365 13.4931 73.1806 13.9357C73.0924 14.1472 73.0035 14.3583 72.9146 14.5695C72.6455 15.2086 72.3764 15.8478 72.1285 16.4951C72.0245 16.7675 71.9197 16.7343 71.7082 16.6438C71.4942 16.5522 71.281 16.4577 71.0676 16.3632C70.407 16.0707 69.7456 15.7778 69.0601 15.5658C68.3783 15.3543 67.6572 15.257 66.9427 15.1605C66.8487 15.1478 66.7548 15.1351 66.6612 15.1222C66.1217 15.0478 65.5661 14.9923 65.0267 15.0389L65.0043 15.0408C64.1431 15.1145 63.2686 15.1894 62.5605 15.8042C61.6241 16.6169 61.7549 17.9826 63.0498 18.4253C64.1601 18.8044 65.2973 19.1163 66.4372 19.3994C66.7625 19.4802 67.089 19.5572 67.4155 19.6341L67.4156 19.6341L67.4156 19.6341C68.8236 19.966 70.2307 20.2976 71.5415 20.9363C72.6724 21.4874 73.6358 22.2581 74.2478 23.3881C74.617 24.0683 74.8187 24.7968 74.8895 25.5765C74.9836 26.6222 74.8859 27.6313 74.5256 28.617C73.9889 30.0867 73.0219 31.1952 71.7064 32.0277C70.6544 32.6935 69.5154 33.1497 68.3083 33.4095C67.5538 33.5726 66.7759 33.6837 66.0061 33.7008C64.8053 33.7277 63.5929 33.7393 62.401 33.6094C59.9035 33.3369 57.5001 32.7034 55.3234 31.3852C55.2557 31.3437 55.1926 31.2944 55.1334 31.2481C55.1057 31.2264 55.0788 31.2054 55.0527 31.1862L55.0536 31.1853C55.2354 30.7834 55.4157 30.3863 55.5944 29.9925ZM119.11 16.6954C119.109 18.5801 119.107 20.4649 119.105 22.3495C119.099 22.3642 119.092 22.3787 119.086 22.3931L119.085 22.3938L119.085 22.3948C119.078 22.4098 119.071 22.4248 119.064 22.44C119.023 22.4158 118.982 22.3908 118.941 22.3657L118.941 22.3656C118.655 22.0283 118.368 21.6916 118.082 21.355L118.081 21.3547L118.081 21.3545L118.081 21.3544L118.081 21.3542C117.429 20.5882 116.777 19.8223 116.134 19.0499C115.366 18.128 114.603 17.2017 113.84 16.2754L113.84 16.2752L113.84 16.275L113.837 16.2717C113.346 15.6749 112.854 15.0781 112.361 14.4824C111.354 13.2645 110.343 12.0494 109.33 10.836C109.129 10.5949 108.921 10.4283 108.549 10.4363C107.497 10.4578 106.444 10.4548 105.392 10.4518C104.952 10.4505 104.512 10.4492 104.072 10.4498C103.976 10.4498 103.88 10.4556 103.79 10.461C103.748 10.4636 103.708 10.466 103.671 10.4677V33.2339H110.009V32.6908C110.011 30.791 110.012 28.8912 110.014 26.9914C110.015 25.0916 110.017 23.1919 110.019 21.2921C110.019 21.2813 110.02 21.2703 110.021 21.2593C110.021 21.2484 110.022 21.2374 110.022 21.2266C110.045 21.2455 110.067 21.2634 110.09 21.2813C110.207 21.4144 110.326 21.5466 110.445 21.6789L110.445 21.6792L110.445 21.6798C110.707 21.9713 110.968 22.2628 111.22 22.5628C111.776 23.2267 112.327 23.895 112.878 24.5632L112.88 24.5655L112.881 24.5663C113.167 24.9125 113.452 25.2587 113.739 25.6042C113.991 25.9096 114.245 26.214 114.499 26.5183L114.499 26.5192L114.5 26.5196L114.5 26.52L114.5 26.5204C114.825 26.9101 115.15 27.2997 115.473 27.6913C115.861 28.1618 116.247 28.6337 116.634 29.1056L116.634 29.1063C116.922 29.4584 117.211 29.8105 117.5 30.162C118.175 30.9837 118.853 31.8028 119.531 32.6218C119.847 33.0027 120.14 33.3056 120.747 33.276C121.765 33.2262 122.785 33.236 123.806 33.2457C124.218 33.2497 124.631 33.2536 125.044 33.2536H125.459V10.4793H119.115V11.0412C119.114 12.9258 119.112 14.8106 119.11 16.6954ZM193.673 10.6298C193.697 10.6044 193.721 10.579 193.743 10.5528H193.741V10.4632C193.332 10.4623 192.923 10.4612 192.514 10.4602C190.879 10.4559 189.244 10.4516 187.608 10.4587C187.481 10.4587 187.308 10.5716 187.236 10.6828C187.025 11.0109 186.828 11.348 186.631 11.6853C186.535 11.85 186.439 12.0147 186.341 12.1784C185.275 13.9617 184.208 15.7441 183.138 17.5256C182.873 17.9678 182.603 18.4073 182.328 18.8552L182.328 18.8565L182.325 18.8603L182.31 18.8844C182.199 19.066 182.087 19.2491 181.974 19.4344C181.56 18.7469 181.148 18.0618 180.736 17.3784L180.729 17.3664C179.418 15.1875 178.116 13.0261 176.826 10.8584C176.646 10.5573 176.466 10.4354 176.106 10.439C174.606 10.4538 173.106 10.452 171.606 10.4501C171.107 10.4495 170.607 10.4489 170.107 10.4489H169.648C169.691 10.514 169.73 10.5719 169.766 10.6253C169.834 10.7255 169.891 10.8102 169.944 10.8978C170.554 11.9138 171.163 12.9301 171.773 13.9464L171.776 13.951L171.779 13.9567L171.791 13.976C172.587 15.3038 173.383 16.6316 174.181 17.9584C174.615 18.6798 175.05 19.4005 175.485 20.1213L175.485 20.1215L175.485 20.1217L175.485 20.1219L175.485 20.122C176.385 21.6135 177.286 23.1051 178.176 24.6033C178.324 24.8533 178.426 25.1723 178.428 25.46C178.444 27.3421 178.442 29.2242 178.441 31.1063C178.44 31.6527 178.44 32.1991 178.44 32.7455V33.2321H184.965V32.7312L184.965 31.2563C184.964 29.2896 184.963 27.3225 184.972 25.356C184.973 25.1642 185.035 24.9501 185.133 24.7852C187.926 20.1235 190.725 15.4663 193.526 10.81C193.566 10.7442 193.619 10.6871 193.673 10.6298ZM167.486 19.2677V24.0916H157.31V28.2523H169.247V33.216H150.864V10.4722H168.82V15.443H157.319V19.2677H167.486ZM100.147 33.2459C100.68 33.2453 101.213 33.2446 101.746 33.2437V33.2455C101.748 33.2182 101.75 33.1909 101.753 33.1635V33.1635C101.755 33.1362 101.758 33.1089 101.76 33.0815C101.733 33.0198 101.706 32.958 101.679 32.8962L101.679 32.8961L101.679 32.8961C101.614 32.747 101.549 32.598 101.482 32.4498C101.274 31.9889 101.064 31.5283 100.855 31.0678L100.855 31.067C100.389 30.0414 99.9225 29.0157 99.4649 27.9861C98.882 26.6758 98.3049 25.3632 97.7277 24.0506L97.7276 24.0503L97.7273 24.0497L97.7268 24.0484C97.338 23.1643 96.9493 22.2803 96.5588 21.3969C96.3466 20.9161 96.1307 20.4371 95.9148 19.958L95.9142 19.9566C95.7455 19.5824 95.5769 19.2082 95.41 18.8331L95.0289 17.9776L95.0267 17.9726L95.0263 17.9716C93.9533 15.5624 92.8804 13.1535 91.8147 10.741C91.7188 10.525 91.6122 10.4408 91.3639 10.4426C89.4381 10.4551 87.5133 10.4543 85.5875 10.4435C85.3276 10.4417 85.2093 10.5197 85.1027 10.7634C84.8455 11.3502 84.5769 11.9319 84.3083 12.5136L84.3083 12.5137L84.3082 12.5138C84.0629 13.0451 83.8176 13.5763 83.581 14.1114C83.1375 15.1149 82.6999 16.1211 82.2622 17.1274L82.2621 17.1276L82.262 17.1279C81.8305 18.12 81.3989 19.1122 80.9617 20.102C80.6326 20.8466 80.2946 21.5874 79.9566 22.3283L79.9566 22.3283L79.9566 22.3283C79.6779 22.9392 79.3992 23.5501 79.1255 24.1633C78.0707 26.5237 77.0196 28.8868 75.9765 31.2525C75.7866 31.6836 75.6129 32.1222 75.4393 32.5606L75.4393 32.5607L75.4392 32.5607L75.4391 32.561L75.439 32.5613C75.3579 32.7661 75.2769 32.9708 75.1942 33.1747L75.2452 33.242C75.6629 33.2427 76.0805 33.2436 76.4981 33.2445C78.1684 33.248 79.8387 33.2516 81.5083 33.2437C81.6275 33.2428 81.8094 33.1183 81.8542 33.0081C82.2752 31.9776 82.6832 30.942 83.0912 29.9064C83.1955 29.6414 83.2999 29.3765 83.4045 29.1117C83.4941 28.885 83.6312 28.7855 83.9036 28.7882C85.1564 28.8003 86.4092 28.7988 87.6619 28.7973C88.0796 28.7967 88.4972 28.7962 88.9148 28.7962H93.2091L93.2697 28.9347L93.27 28.9354C93.3234 29.0569 93.3741 29.1723 93.4223 29.2891L93.7273 30.0274L93.7275 30.0278L93.7277 30.0282C94.1327 31.008 94.5374 31.9872 94.9341 32.9704C95.0175 33.1756 95.1169 33.2599 95.3481 33.259C96.9479 33.2496 98.5473 33.2477 100.147 33.2459H100.147ZM85.479 24.0019C86.4334 21.6595 87.3914 19.308 88.4004 16.8302L88.9542 18.1837C89.7622 20.1585 90.5423 22.065 91.3344 24.0019H85.479ZM134.955 33.2321H141.441L141.442 33.233V15.547H148.411V10.4704H127.943V15.5792H134.955V33.2321Z" fill="#0C2F86"/>
<path fill-rule="evenodd" clip-rule="evenodd" d="M32.1192 16.1225C32.5449 16.2341 32.9716 16.346 33.3997 16.4583H33.4024C33.4024 16.4299 33.4043 16.4052 33.406 16.3838C33.409 16.3452 33.4112 16.3172 33.3997 16.297C32.9633 15.5308 32.5268 14.7646 32.077 14.0065C32.0304 13.9294 31.8996 13.8864 31.7992 13.8604C29.1664 13.183 26.5326 12.5091 23.8971 11.8424C23.7815 11.8128 23.6426 11.8441 23.5207 11.8746C22.8284 12.0461 22.1366 12.2198 21.4448 12.3936C20.0684 12.7393 18.6921 13.085 17.3114 13.4124C17.2579 13.4251 17.2044 13.4376 17.151 13.4502C16.1738 13.6792 15.2338 13.8995 14.8659 15.0568C14.7665 15.3702 14.5904 15.6591 14.4084 15.9577C14.3229 16.098 14.236 16.2404 14.1553 16.3884C14.1932 16.3928 14.2227 16.398 14.2468 16.4022C14.2864 16.4091 14.311 16.4134 14.3327 16.4072C14.6626 16.3175 14.9921 16.2265 15.3217 16.1354C15.8972 15.9764 16.4729 15.8174 17.0507 15.6652C18.8707 15.1867 20.6925 14.71 22.5171 14.2476C22.6254 14.2201 22.7361 14.1875 22.8478 14.1546C23.2273 14.0429 23.6177 13.928 23.9625 13.9993C24.9578 14.2055 25.9401 14.4759 26.9224 14.7463C27.3278 14.8579 27.7331 14.9694 28.1394 15.0765C29.462 15.4256 30.7856 15.7727 32.1192 16.1225ZM11.1649 21.7025L11.1657 21.7011C11.4535 21.6227 11.7301 21.548 11.9991 21.4754L11.9993 21.4753C12.5288 21.3324 13.0289 21.1974 13.5271 21.0573C14.1464 20.8828 14.765 20.706 15.3836 20.5291L15.3842 20.529C16.2717 20.2752 17.1593 20.0215 18.049 19.7749C19.6271 19.3367 21.2096 18.9119 22.7922 18.489C22.879 18.4659 22.9667 18.4391 23.0549 18.4123C23.3367 18.3264 23.6228 18.2392 23.8944 18.2658C24.2849 18.3039 24.6685 18.422 25.051 18.5398C25.182 18.5801 25.3128 18.6204 25.4438 18.6574C26.2257 18.8779 27.0069 19.1 27.7881 19.3222L27.7892 19.3225C28.7287 19.5896 29.6681 19.8567 30.6082 20.1208C31.9632 20.5017 33.3199 20.8754 34.6776 21.2464C35.0397 21.3453 35.4039 21.4377 35.798 21.5376C35.9997 21.5887 36.2092 21.6419 36.4304 21.6989C36.2602 21.4077 36.0936 21.122 35.9295 20.8408L35.9291 20.84L35.9285 20.839C35.3664 19.8753 34.8344 18.9632 34.2922 18.057C34.2205 17.9387 34.0557 17.8411 33.9159 17.8034C33.244 17.6233 32.5698 17.4532 31.8953 17.2831L31.8953 17.2831C31.627 17.2154 31.3586 17.1477 31.0904 17.0793C30.4557 16.9178 29.8212 16.7556 29.1867 16.5935L29.1863 16.5934C27.7198 16.2187 26.2531 15.8439 24.7852 15.4762C24.7043 15.4558 24.6213 15.4322 24.5375 15.4082C24.2222 15.3182 23.8941 15.2245 23.613 15.2925C20.6503 16.0049 17.6967 16.7543 14.7429 17.5037L13.5612 17.8034C13.4545 17.8303 13.3317 17.9136 13.278 18.0059C12.7335 18.9467 12.1962 19.8907 11.6293 20.8868L11.625 20.8944C11.4742 21.1593 11.3213 21.4279 11.1657 21.7011L11.164 21.7016L11.1649 21.7025ZM8.82779 25.6338C8.72693 25.7924 8.62608 25.9511 8.52846 26.1114H8.52578L7.77945 27.4379C7.44705 28.0288 7.10752 28.6323 6.75144 29.2649C7.41439 29.0705 8.00755 28.8963 8.58007 28.7281L8.59856 28.7226L8.59889 28.7225L9.30899 28.514C9.64072 28.4029 9.97219 28.291 10.3037 28.1791C11.0369 27.9316 11.7702 27.684 12.5064 27.4458L12.9468 27.3032L12.9469 27.3032C16.3774 26.1929 19.8073 25.0827 23.2447 23.9957C23.5593 23.8962 23.9571 23.8899 24.2708 23.9867C25.8779 24.4805 27.4779 24.9986 29.0781 25.5167L29.0782 25.5167L29.0783 25.5167L29.0794 25.5171C29.5202 25.6598 29.9611 25.8025 30.4021 25.9448C31.5465 26.3139 32.6905 26.684 33.8346 27.0541C34.6347 27.3129 35.4348 27.5717 36.235 27.8302C36.874 28.0361 37.5129 28.2428 38.1519 28.4496L38.1626 28.453C38.2794 28.4884 38.396 28.5244 38.5127 28.5605C38.7773 28.6423 39.0419 28.724 39.3087 28.798C39.6239 28.8856 39.9403 28.9661 40.2568 29.0467L40.257 29.0468L40.2572 29.0468C40.3912 29.0809 40.5252 29.115 40.6592 29.1497L40.6628 29.1565L40.6682 29.152L40.6592 29.1497C40.6054 29.0487 40.5521 28.9474 40.4989 28.846C40.4026 28.6628 40.3063 28.4795 40.2067 28.298C39.9083 27.7545 39.6085 27.212 39.3086 26.6694L39.3086 26.6693L39.3085 26.6692L38.9682 26.0532C38.8668 25.8899 38.7663 25.726 38.6659 25.5621C38.3997 25.1279 38.1335 24.6937 37.8498 24.2708C37.7396 24.1077 37.5541 23.9473 37.3695 23.8872C35.6821 23.3388 33.9911 22.8011 32.2938 22.2841C29.9878 21.5818 27.6777 20.8949 25.3674 20.208L25.3668 20.2078L25.0289 20.1074C24.9151 20.0735 24.8021 20.0351 24.6891 19.9968C24.19 19.8273 23.6917 19.6582 23.1327 19.8753C22.7077 20.0397 22.2686 20.1699 21.8302 20.2999C21.7287 20.33 21.6272 20.3601 21.5259 20.3905C20.6523 20.6538 19.7784 20.9159 18.9045 21.1781L18.9025 21.1787C17.5907 21.5721 16.2789 21.9656 14.9681 22.3629C14.4412 22.5226 13.9157 22.6871 13.3902 22.8515L13.3901 22.8516C12.4115 23.1579 11.4329 23.4642 10.4453 23.7394C9.97034 23.872 9.69612 24.0978 9.48105 24.5253C9.28903 24.9081 9.0584 25.2709 8.8278 25.6337L8.82779 25.6338ZM4.87407 32.4623L4.59895 32.9068L4.59985 32.9086C4.57284 32.9672 4.54701 33.0263 4.52118 33.0855L4.52117 33.0856L4.52116 33.0856C4.46556 33.213 4.40996 33.3404 4.34266 33.4615C4.09771 33.9039 3.84885 34.3441 3.60001 34.7843L3.59996 34.7844L3.5998 34.7847C3.49185 34.9756 3.38389 35.1666 3.27627 35.3577L2.83765 36.1347L2.83727 36.1353L2.83716 36.1355C2.34153 37.0132 1.84593 37.8909 1.35407 38.7702C1.07707 39.265 0.80483 39.7621 0.522029 40.2784L0.522013 40.2784L0.521958 40.2785L0.521504 40.2793L0.520123 40.2818C0.396404 40.5077 0.270657 40.7373 0.141602 40.972C0.193031 40.9652 0.235582 40.9614 0.271903 40.958C0.336841 40.9521 0.381862 40.9481 0.42209 40.9325C1.05485 40.6905 1.68716 40.4474 2.31947 40.2043L2.31953 40.2043C2.95164 39.9613 3.58375 39.7182 4.21631 39.4763C5.25907 39.0778 6.30332 38.6812 7.34722 38.2848L8.41916 37.8776L15.2934 35.2672L21.1218 33.0547C21.3225 32.9785 21.5231 32.9019 21.7238 32.8254L21.7239 32.8253C22.3894 32.5713 23.0551 32.3173 23.7251 32.077C23.8407 32.0349 24.0073 32.0913 24.1364 32.1397C26.2011 32.9211 28.264 33.7061 30.3251 34.4956C30.8003 34.6777 31.2726 34.8675 31.7448 35.0572L31.7451 35.0574C31.954 35.1413 32.1628 35.2252 32.3718 35.3084C32.3946 35.3129 32.4177 35.3165 32.4408 35.32L32.4409 35.32C32.4914 35.3277 32.542 35.3354 32.5887 35.3532C34.6417 36.1311 36.6957 36.9098 38.7469 37.6948C38.8258 37.7248 38.8946 37.7806 38.9635 37.8364L38.9635 37.8365C38.9955 37.8624 39.0275 37.8884 39.0605 37.9117C39.2627 37.9801 39.4656 38.0465 39.6684 38.1129L39.6685 38.1129L39.6686 38.113L39.6688 38.113L39.6688 38.113C40.1141 38.2588 40.5591 38.4044 40.9962 38.5712C41.976 38.9456 42.9527 39.3274 43.9295 39.7092L43.9299 39.7093C44.6879 40.0056 45.4459 40.3018 46.2054 40.5947C46.4559 40.6917 46.7137 40.7712 46.9997 40.8595L46.9998 40.8595L46.9999 40.8595C47.1394 40.9026 47.2857 40.9477 47.4412 40.998C47.3975 40.9244 47.3615 40.8646 47.3307 40.8134L47.3304 40.8128L47.3302 40.8125C47.2771 40.7242 47.2393 40.6614 47.2037 40.5974C46.9315 40.1132 46.6589 39.6292 46.3864 39.1452C45.6729 37.878 44.9593 36.6108 44.2518 35.3398C43.9292 34.7608 43.6179 34.1752 43.3067 33.5898C43.1719 33.3363 43.0371 33.0827 42.9014 32.8297C42.8257 32.7738 42.7525 32.7112 42.6794 32.6485C42.5203 32.5124 42.3614 32.3763 42.1773 32.31C40.9093 31.8554 39.6343 31.4188 38.3594 30.9823L38.3591 30.9822L38.3584 30.9819C37.9298 30.8352 37.5012 30.6884 37.0729 30.541C35.5692 30.032 34.0655 29.523 32.5618 29.0158C31.9161 28.7983 31.27 28.5815 30.6238 28.3646C29.5473 28.0033 28.4705 27.6419 27.3947 27.2773C27.0471 27.1595 26.7005 27.038 26.3539 26.9164L26.3539 26.9163L26.3538 26.9163C25.6746 26.6781 24.9952 26.4398 24.3076 26.2297C24.0073 26.1383 23.6265 26.1356 23.3308 26.2342C20.5607 27.1566 17.7967 28.095 15.0326 29.0334L15.0324 29.0335L15.0321 29.0336C14.2706 29.2921 13.5091 29.5507 12.7475 29.8089C12.2327 29.9835 11.7175 30.1565 11.2022 30.3295L11.2011 30.3299L11.2008 30.33L11.2006 30.3301C10.9629 30.4099 10.7251 30.4897 10.4874 30.5697L10.486 30.5702C8.63867 31.1928 6.7913 31.8155 4.87407 32.4623Z" fill="#0B2E85"/>
</g>
<defs>
<clipPath id="clip0_402_499">
<rect width="194" height="44" fill="white"/>
</clipPath>
</defs>
</svg>
