<svg width="24" height="24" viewBox="0 0 24 24" fill="none" xmlns="http://www.w3.org/2000/svg">
<path fill-rule="evenodd" clip-rule="evenodd" d="M12.0001 2.13948L12.3678 2.34631L20.3573 6.84039C20.3648 6.84444 20.3722 6.84862 20.3796 6.85292L20.7501 7.06136V7.48521C20.7503 7.49462 20.7503 7.50401 20.7501 7.5134V16.5V16.9386L20.3678 17.1537L12.3795 21.6471C12.3714 21.6519 12.3632 21.6565 12.355 21.6609L12.0001 21.8605L11.6453 21.6609C11.637 21.6565 11.6288 21.6519 11.6208 21.6471L3.63244 17.1537L3.25013 16.9386V16.5V7.51342C3.24996 7.50402 3.24996 7.49461 3.25013 7.48519V7.06136L3.62066 6.85293C3.62803 6.84862 3.63547 6.84444 3.64297 6.84038L11.6324 2.34631L12.0001 2.13948ZM4.75013 8.78238V16.0614L11.2501 19.7176V12.4386L4.75013 8.78238ZM12.0001 11.1395L18.4703 7.49999L15.8675 6.03588L9.63421 9.80865L12.0001 11.1395ZM8.13274 8.96407L5.52993 7.49999L12.0001 3.8605L14.366 5.1913L8.13274 8.96407ZM19.2501 16.0614L12.7501 19.7176V12.4386L19.2501 8.78238V16.0614Z" fill="#1366DE"/>
</svg>
