<svg width="24" height="24" viewBox="0 0 24 24" fill="none" xmlns="http://www.w3.org/2000/svg">
<path d="M18.5 19.9957C10.4207 19.3591 4.64091 13.5793 4.00437 5.49997C3.93931 4.6741 4.61752 4 5.44594 4H7.9076C8.33803 4 8.72017 4.27543 8.85629 4.68377L9.71305 7.25409C9.86103 7.69802 9.68136 8.18521 9.28059 8.42677L7.49999 9.5C7.49999 12.1757 11.8243 16.5 14.5 16.5L15.5732 14.7194C15.8148 14.3187 16.302 14.139 16.7459 14.287L19.3162 15.1437C19.7245 15.2798 19.9999 15.662 19.9999 16.0924V18.5541C19.9999 19.3825 19.3258 20.0607 18.5 19.9957Z" fill="#212529"/>
</svg>
