<svg width="24" height="24" viewBox="0 0 24 24" fill="none" xmlns="http://www.w3.org/2000/svg">
<path fill-rule="evenodd" clip-rule="evenodd" d="M10.0979 2.43735C11.9892 2.06114 13.9496 2.25422 15.7312 2.99218C17.5127 3.73013 19.0355 4.97982 20.1068 6.58319C21.1782 8.18657 21.75 10.0716 21.75 12V12.75H20.25V12C20.25 11.235 20.1437 10.4781 19.9373 9.75H15.7048C15.7621 10.1925 15.7921 10.614 15.7921 11.0056V11.7556H14.2921V11.0056C14.2921 10.6242 14.2573 10.2014 14.1909 9.75H9.82876C9.72491 10.4928 9.67224 11.2445 9.67224 12C9.67224 12.7555 9.72491 13.5072 9.82876 14.25H12.0004V15.75H10.1109C10.4846 17.326 11.0934 18.8434 11.922 20.2496C11.948 20.2499 11.974 20.25 12 20.25H12.75V21.75H12C10.0716 21.75 8.18657 21.1782 6.58319 20.1068C4.97982 19.0355 3.73013 17.5127 2.99218 15.7312C2.25422 13.9496 2.06114 11.9892 2.43735 10.0979C2.81355 8.20656 3.74215 6.46928 5.10571 5.10571C6.46928 3.74215 8.20656 2.81355 10.0979 2.43735ZM15.4268 8.25H19.3485C19.2025 7.96386 19.0394 7.68552 18.8596 7.41655C17.9531 6.05984 16.6646 5.00242 15.1571 4.378C14.7407 4.2055 14.3127 4.06819 13.8776 3.9665C14.5558 5.34645 15.0956 6.84807 15.4268 8.25ZM12.0691 3.75029C12.8658 5.16094 13.4981 6.77256 13.8815 8.25H10.1109C10.4846 6.67405 11.0934 5.15662 11.922 3.75037C11.9711 3.74991 12.0201 3.74988 12.0691 3.75029ZM8.57289 8.25C8.8931 6.76857 9.40239 5.33121 10.0904 3.97405C8.60667 4.32706 7.24765 5.08509 6.16637 6.16637C5.55211 6.78063 5.04217 7.48453 4.65154 8.25H8.57289ZM8.17224 12C8.17224 11.2451 8.22038 10.4937 8.31542 9.75H4.06275C4.00299 9.96082 3.9515 10.1745 3.90853 10.3905C3.65292 11.6755 3.70789 12.9982 4.06274 14.25H8.31542C8.22038 13.5063 8.17224 12.7549 8.17224 12ZM4.65153 15.75H8.57289C8.8931 17.2314 9.4024 18.6688 10.0904 20.026C9.14183 19.8003 8.23574 19.407 7.41655 18.8596C6.24134 18.0744 5.2907 17.0025 4.65153 15.75ZM15.3483 15.3483C16.0516 14.6451 17.0054 14.25 18 14.25C18.9946 14.25 19.9484 14.6451 20.6517 15.3483C21.3549 16.0516 21.75 17.0054 21.75 18C21.75 18.7407 21.5308 19.4589 21.1284 20.0678L23.0303 21.9697L21.9696 23.0303L20.0678 21.1284C19.4589 21.5308 18.7407 21.75 18 21.75C17.0054 21.75 16.0516 21.3549 15.3483 20.6517C14.6451 19.9484 14.25 18.9946 14.25 18C14.25 17.0054 14.6451 16.0516 15.3483 15.3483ZM18 15.75C17.4033 15.75 16.831 15.9871 16.409 16.409C15.9871 16.831 15.75 17.4033 15.75 18C15.75 18.5967 15.9871 19.169 16.409 19.591C16.831 20.0129 17.4033 20.25 18 20.25C18.5967 20.25 19.169 20.0129 19.591 19.591C20.0129 19.169 20.25 18.5967 20.25 18C20.25 17.4033 20.0129 16.831 19.591 16.409C19.169 15.9871 18.5967 15.75 18 15.75Z" fill="#1366DE"/>
</svg>
