<svg width="24" height="24" viewBox="0 0 24 24" fill="none" xmlns="http://www.w3.org/2000/svg">
<path fill-rule="evenodd" clip-rule="evenodd" d="M9.75 2.25V3V4.25H11H11.75V5.75H11H9.72949C9.61989 7.74565 9.07613 9.56926 8.22245 10.9715C9.34992 11.2436 10.6997 11.25 12 11.25V12.75L11.9315 12.75H11.9315C10.5182 12.7501 8.72171 12.7503 7.24451 12.249C6.35604 13.1658 5.25024 13.75 4 13.75H3.25V12.25H4C4.62152 12.25 5.24901 12.0056 5.83055 11.5206C5.55032 11.3087 5.29383 11.0584 5.07188 10.7625C4.53489 10.0465 4.25 9.12997 4.25 8H5.75C5.75 8.87003 5.96511 9.45349 6.27187 9.8625C6.42111 10.0615 6.60372 10.2347 6.81892 10.3849C6.84596 10.3437 6.87278 10.3018 6.89938 10.2592C7.61931 9.1074 8.11687 7.53347 8.22698 5.75H4H3.25V4.25H4H8.25V3V2.25H9.75ZM13.3763 18.75L12.6854 20.3046L12.3808 20.99L11.01 20.3808L11.3146 19.6954L15.3146 10.6954H16.6854L20.6854 19.6954L20.99 20.3808L19.6192 20.99L19.3146 20.3046L18.6237 18.75H13.3763ZM14.043 17.25H17.957L16 12.8467L14.043 17.25Z" fill="#1366DE"/>
</svg>
