<svg width="156" height="108" viewBox="0 0 156 108" fill="none" xmlns="http://www.w3.org/2000/svg">
<path d="M154.775 1.00084C154.13 1.14236 153.417 1.65137 152.783 2.53598C152.616 2.87769 151.877 4.0719 151.559 4.85146C151.035 5.28296 150.732 5.6118 150.346 6.01317C149.865 6.51127 149.169 7.34474 149.135 7.45197C148.773 8.64222 147.658 10.9508 147.658 10.9508C147.823 9.91968 148.796 7.11283 148.881 6.60383C149 5.87561 148.761 4.9908 148.694 4.26298C148.645 3.70898 148.597 3.15717 148.59 2.60496C148.585 2.35382 148.849 0.757647 148.287 0.800658C147.805 0.837327 146.767 1.23691 146.493 2.6543C146.326 3.49848 146.533 4.99318 146.424 6.62781C146.4 7.00758 146.074 7.56396 145.864 8.58394C145.625 9.75219 145.336 11.3567 144.891 12.7013C144.954 12.2478 145.383 9.5849 145.453 8.47869C145.523 7.37704 144.55 3.90442 144.481 3.3524C144.426 2.90782 144.254 2.77899 144.019 2.75758C143.191 2.68424 142.359 3.92979 142.628 5.61596C142.712 6.121 143.348 7.57882 143.289 8.41428C143.23 9.24775 142.825 10.1004 142.787 10.5728C142.695 11.7456 142.638 13.3346 142.489 14.067C142.609 13.4807 142.396 10.5599 142.348 9.9391C142.312 9.49868 141.408 7.44563 140.974 6.29462C140.79 5.80306 140.444 5.77472 140.202 5.89523C139.226 6.38065 139.185 8.06424 139.379 8.84816C139.494 9.30563 140.106 10.5361 140.346 11.5779C139.716 16.4491 138.65 16.8011 138.65 16.8011C138.65 16.8011 138.284 17.0909 137.019 17.2972C134.798 17.6689 130.9 18.7533 129.821 17.5957C129.748 17.5182 129.546 17.4047 129.39 17.5313C129.055 17.7932 126.22 20.2309 124.506 21.5239C119.043 25.6474 115.263 26.7726 110.942 29.7365C105.943 37.5368 101.258 40.1593 95.0813 41.8475C92.4284 42.5711 89.7822 42.5198 89.2991 41.126C88.1321 37.7776 92.489 36.0336 95.5709 35.5246C95.737 35.4988 95.7403 35.2689 95.5785 35.1809C94.0895 34.3777 92.3749 34.0063 90.2732 34.0063C74.7619 33.6216 60.3115 52.0382 61.6211 62.0424C61.6406 62.242 61.6685 62.4379 61.6978 62.6331H77.6053C79.8428 60.5648 82.1956 57.9018 84.5808 54.5937C84.583 54.5915 80.4055 55.4552 76.8271 55.2038C76.8419 55.1973 81.6042 54.3493 88.4228 49.667C99.5927 52.6049 109.793 38.0523 112.754 42.9406C112.846 43.0887 113.055 42.9533 113.113 42.9105C122.099 36.8409 125.625 29.1436 131.914 23.792C134.732 21.3905 135.287 20.3986 140.18 19.1011C141.54 18.7426 141.692 18.2163 142.149 17.6879C142.787 16.9428 143.704 17.6041 144.364 16.4491C144.627 15.9893 144.348 15.2933 145.678 15.0162C147.02 14.733 147.151 13.5001 147.788 12.7997C149.454 10.9636 149.248 11.0796 150.681 9.54863C151.217 8.92546 153.388 6.29661 153.594 5.88651C153.899 5.28297 154.649 3.3074 155.601 2.20338C156.512 1.14236 155.701 0.798668 154.775 1.00084ZM76.6527 20.4799C76.8329 20.4779 76.997 20.4135 77.1248 20.3189C77.5862 19.9774 78.0236 19.5091 78.0197 19.1937C78.0141 18.4593 77.1059 17.5999 75.3831 17.5099C74.7527 17.4752 74.6193 17.5805 74.2255 17.9739C73.6795 18.515 74.1922 19.7951 74.3117 20.0803C75.6766 20.1063 76.364 20.4799 76.6527 20.4799ZM64.9289 17.4241C64.9289 17.4241 65.619 18.0017 67.0929 17.9888C68.5652 17.9759 69.2754 18.4163 69.6149 18.9188C69.5265 21.7881 68.0476 23.8713 66.8936 23.8861C66.6389 23.8861 66.5005 23.7339 66.531 23.5361C66.604 23.0511 66.5945 22.4432 66.2478 21.9597C65.8556 21.4099 65.4368 20.931 64.4183 20.3986C64.2146 20.2934 63.7887 20.0353 63.7853 19.5136C63.7742 18.2958 64.9289 17.4241 64.9289 17.4241ZM79.5431 34.2705C79.8428 34.1522 79.8394 33.9934 79.5431 34.0277C75.591 34.4765 71.6023 35.8146 67.8868 37.6036C67.7344 37.3457 67.6191 37.1418 67.6191 36.4524C67.6191 35.3161 67.919 33.6045 69.0896 33.639C71.9022 33.7227 73.5903 32.0002 73.5903 32.0002C73.5903 32.0002 69.242 31.4462 69.5988 29.6098C69.7053 29.0558 70.0412 28.7936 70.5762 28.8881C72.2076 29.1781 72.7896 27.8553 72.7896 27.8553C72.7896 27.8553 71.2299 27.4731 70.5511 26.9812C70.4122 26.8805 70.2236 26.7084 70.4454 26.4829C70.7091 26.2143 70.9763 25.9909 71.4541 26.1134C72.7813 26.4595 73.5481 26.5172 73.9889 26.5152C74.2665 26.5128 74.4425 26.3067 74.2201 26.1949C73.7345 25.9566 73.0582 25.231 72.1568 24.8375C73.5813 23.9616 74.4501 22.7845 74.4501 22.7845C74.4501 22.7845 74.0592 22.9089 73.3227 22.5999C72.4272 22.2217 72.4523 17.9004 71.8735 16.9642C71.221 15.9034 69.8951 14.8834 69.0876 14.535C68.0462 14.0843 67.052 13.9513 66.5568 13.423C65.7164 12.5208 67.1878 6.93901 61.15 6.93901C57.3688 6.93901 54.8358 9.89629 54.2544 12.8966C54.0582 13.9146 54.2211 15.0872 54.2211 15.0872C54.2211 15.0872 57.3658 14.4 58.5155 17.5977C57.5836 16.6699 56.686 16.2192 56.3692 16.1609C55.1301 15.9377 54.3732 16.7129 54.1681 17.7674C53.5574 20.9074 56.8088 23.5795 57.1443 23.8927C56.5068 30.1983 59.2317 34.1996 59.4917 39.2144C59.6588 42.4637 57.3246 43.8254 56.9283 44.2185C54.2753 46.8624 53.5704 48.0391 52.7496 50.2533C52.7496 48.5481 53.343 46.2007 54.7713 43.6555C54.8812 43.4623 54.8748 43.1985 54.4937 43.4044C53.3293 44.0315 51.5089 45.0646 50.0179 46.3125C48.8658 47.2788 47.931 48.3719 47.0308 49.4266C45.497 49.8752 43.2033 50.846 40.1086 53.0067C37.5756 54.7765 36.0042 58.0949 36.0042 58.0949C36.0042 58.0949 33.3846 57.8715 29.5691 58.1875C21.3468 58.8705 10.7555 62.6331 10.7555 62.6331H53.0459C53.8272 51.6902 68.3007 37.9106 79.5431 34.2705ZM130.359 16.3373C131.605 15.6458 133.388 15.4761 135.108 14.6494C136.29 14.0781 136.554 14.0286 138.157 12.9652C138.26 12.9009 138.274 12.7463 137.979 12.7119C137.233 12.6219 135.916 12.3317 135.844 11.4211C135.703 10.5169 136.045 9.39145 136.84 8.51557C137.4 7.89676 138.373 6.97548 138.423 6.11188C138.522 4.39182 137.614 4.1169 136.856 4.17497C136.824 5.76005 135.332 7.13682 134.709 7.86246C132.703 10.1968 130.81 10.9874 130.724 13.3541C130.691 14.1915 130.283 15.5468 130.067 16.2126C129.985 16.4574 130.208 16.4209 130.359 16.3373Z" fill="url(#paint0_linear_433_529)"/>
<path d="M53.5969 90.0721H63.5293C64.403 90.0721 64.9876 89.4321 64.9876 88.5126V87.7223C64.5108 87.8296 63.7943 87.8791 62.4399 87.8791H59.171L64.8558 76.9819H53.6803V79.1403H58.6814L53.9161 88.1433C53.4912 88.9336 53.4404 89.5675 53.5969 90.0721Z" fill="#155196"/>
<path d="M43.6946 83.1136L46.2684 88.0403C46.987 89.4598 47.3042 90.0721 48.9254 90.0721H52.589C52.3783 89.9088 52.1887 89.5675 51.8176 88.9098L48.0708 82.0523L52.455 76.9819H48.5532L43.6946 83.1136Z" fill="#155196"/>
<path d="M38.8875 90.0721H43.428V74.4217C43.428 72.7981 42.2335 71.7437 40.5884 71.7437H38.8875V90.0721Z" fill="#155196"/>
<path d="M25.5603 83.8243L28.0015 76.7282L30.2776 83.8243H25.5603ZM36.8714 88.8842L32.3329 75.4528C31.8011 73.8483 31.2445 73.1117 29.0136 73.1117H26.8615L20.5453 90.0721H23.4104L24.8528 85.8776H30.9337L31.8011 88.5921C32.1204 89.593 32.5177 90.0376 33.6071 90.0376H37.4301C37.2465 89.8531 37.1117 89.5435 36.8714 88.8842Z" fill="#155196"/>
<path d="M72.714 87.9627C71.1758 87.9627 70.6173 86.1951 70.6173 83.4315C70.6173 80.8002 71.1502 79.007 72.714 79.007C74.257 79.007 74.7574 80.9035 74.7574 83.6653C74.7574 86.2789 74.257 87.9627 72.714 87.9627ZM72.6635 90.3811C76.4335 90.3811 79.6433 87.6985 79.6433 83.2485C79.6433 79.4536 76.5922 76.64 72.7431 76.64C68.9202 76.64 65.729 79.4021 65.729 83.8564C65.729 87.7738 68.9202 90.3811 72.6635 90.3811Z" fill="#155196"/>
<path d="M81.6851 90.072H84.5247V79.2581L91.7415 87.8833C92.7525 89.0988 93.4157 90.072 94.5051 90.072H96.5727V74.5335C96.5727 73.6376 95.9654 73.0624 95.0373 73.0624H93.7875V83.2894L86.8482 75.0574C85.8138 73.8247 85.2831 73.0624 83.7728 73.0624H81.6851V90.072Z" fill="#155196"/>
<path d="M105.524 87.9628C103.981 87.9628 103.425 86.1952 103.425 83.4333C103.425 80.8003 103.957 79.0071 105.524 79.0071C107.061 79.0071 107.567 80.9076 107.567 83.6718C107.567 86.279 107.061 87.9628 105.524 87.9628ZM105.47 90.3812C109.24 90.3812 112.454 87.6986 112.454 83.2486C112.454 79.4598 109.399 76.6401 105.55 76.6401C101.725 76.6401 98.5414 79.4022 98.5414 83.8565C98.5414 87.7783 101.725 90.3812 105.47 90.3812Z" fill="#155196"/>
<path d="M133.779 81.96C133.926 80.0358 134.672 78.8242 135.95 78.8242C137.703 78.8242 138.048 81.96 138.048 81.96H133.779ZM142.163 83.7727C142.244 83.2486 142.27 82.7206 142.27 82.248C142.27 79.1401 139.96 76.6659 136.006 76.6659C132.077 76.6659 129.207 79.4022 129.207 83.5644C129.207 87.5936 131.73 90.3812 135.844 90.3812C139.96 90.3812 141.444 88.2506 141.53 86.1952C140.65 86.831 139.297 87.1963 137.783 87.1963C135.484 87.1963 133.996 85.8947 133.781 83.7727H142.163Z" fill="#155196"/>
<path d="M119.62 87.8835H118.931V79.4326C119.222 79.4023 119.464 79.3769 119.914 79.3769C121.642 79.3769 122.943 80.9614 122.943 83.064C122.943 86.1953 121.745 87.8835 119.62 87.8835ZM122.385 76.7972C120.844 76.7972 119.569 77.3514 118.931 77.9827V74.4284C118.931 72.7981 117.763 71.7437 116.119 71.7437H114.42V90.0721H119.73C124.798 90.0721 127.614 87.4369 127.614 82.5358C127.614 79.2455 125.361 76.7972 122.385 76.7972Z" fill="#155196"/>
<path d="M144.161 90.0721H148.674V74.4284C148.674 72.7981 147.481 71.7437 145.834 71.7437H144.161V90.0721Z" fill="#155196"/>
<path d="M20.4961 97.3738H26.672V98.0011H23.9556V105.129H23.2125V98.0011H20.4961V97.3738Z" fill="#0492D2"/>
<path d="M26.534 102.324C26.534 103.521 27.1887 104.713 28.5068 104.713C29.8262 104.713 30.4843 103.521 30.4843 102.324C30.4843 101.128 29.8262 99.9339 28.5068 99.9339C27.1887 99.9339 26.534 101.128 26.534 102.324ZM31.1712 102.324C31.1712 103.931 30.2308 105.291 28.5068 105.291C26.7829 105.291 25.8456 103.931 25.8456 102.324C25.8456 100.716 26.7829 99.3563 28.5068 99.3563C30.2308 99.3563 31.1712 100.716 31.1712 102.324Z" fill="#0492D2"/>
<path d="M32.2603 99.5214H32.8955V100.469H32.9266C33.2862 99.7943 33.8762 99.3563 34.7708 99.3563C35.5137 99.3563 36.1794 99.7192 36.3854 100.456C36.7251 99.7192 37.433 99.3563 38.1761 99.3563C39.4092 99.3563 40.0414 99.9961 40.0414 101.324V105.129H39.3545V101.358C39.3545 100.435 39.0058 99.9339 38.0218 99.9339C36.8333 99.9339 36.4946 100.912 36.4946 101.957V105.129H35.806V101.324C35.8191 100.563 35.5019 99.9339 34.6292 99.9339C33.4373 99.9339 32.9592 100.826 32.9475 102V105.129H32.2603V99.5214Z" fill="#0492D2"/>
<path d="M41.5988 102.324C41.5988 103.521 42.2555 104.713 43.5773 104.713C44.8956 104.713 45.5501 103.521 45.5501 102.324C45.5501 101.128 44.8956 99.9339 43.5773 99.9339C42.2555 99.9339 41.5988 101.128 41.5988 102.324ZM46.2385 102.324C46.2385 103.931 45.2996 105.291 43.5773 105.291C41.8535 105.291 40.9151 103.931 40.9151 102.324C40.9151 100.716 41.8535 99.3563 43.5773 99.3563C45.2996 99.3563 46.2385 100.716 46.2385 102.324Z" fill="#0492D2"/>
<path d="M47.3306 99.5214H47.9628V100.836H47.9843C48.3336 99.9339 49.0974 99.4015 50.1117 99.4445V100.129C48.8686 100.065 48.0178 100.978 48.0178 102.14V105.129H47.3306V99.5214Z" fill="#0492D2"/>
<path d="M51.2674 99.5214H51.9006V100.836H51.9221C52.2705 99.9339 53.0357 99.4015 54.052 99.4445V100.129C52.8059 100.065 51.9557 100.978 51.9557 102.14V105.129H51.2674V99.5214Z" fill="#0492D2"/>
<path d="M54.9795 102.324C54.9795 103.521 55.6356 104.713 56.9552 104.713C58.2755 104.713 58.9316 103.521 58.9316 102.324C58.9316 101.128 58.2755 99.9339 56.9552 99.9339C55.6356 99.9339 54.9795 101.128 54.9795 102.324ZM59.6182 102.324C59.6182 103.931 58.6775 105.291 56.9552 105.291C55.231 105.291 54.2922 103.931 54.2922 102.324C54.2922 100.716 55.231 99.3563 56.9552 99.3563C58.6775 99.3563 59.6182 100.716 59.6182 102.324Z" fill="#0492D2"/>
<path d="M60.1424 99.5214H60.8713L62.3128 104.322H62.3345L63.7076 99.5214H64.4851L65.8598 104.322H65.8794L67.3214 99.5214H68.0519L66.2404 105.129H65.4877L64.1006 100.413H64.0797L62.7044 105.129H61.9524L60.1424 99.5214Z" fill="#0492D2"/>
<path d="M69.7637 97.3738V98.5337C69.7539 99.1606 69.4598 99.8266 68.7939 100.012V99.5455C69.1651 99.4124 69.329 98.8772 69.3067 98.5208H68.8479V97.3738H69.7637Z" fill="#0492D2"/>
<path d="M73.2461 101.165C73.2127 100.314 72.5581 99.934 71.7734 99.934C71.1605 99.934 70.4413 100.173 70.4413 100.903C70.4413 101.51 71.139 101.726 71.6086 101.848L72.5255 102.05C73.3094 102.174 74.1286 102.627 74.1286 103.609C74.1286 104.824 72.9172 105.291 71.8708 105.291C70.5624 105.291 69.6656 104.683 69.5564 103.313H70.2452C70.3001 104.236 70.9859 104.713 71.9043 104.713C72.547 104.713 73.4416 104.429 73.4416 103.652C73.4416 103.001 72.8307 102.778 72.2083 102.628L71.3248 102.434C70.4282 102.194 69.754 101.889 69.754 100.933C69.754 99.7945 70.8772 99.3565 71.8708 99.3565C72.995 99.3565 73.8888 99.9473 73.9334 101.165H73.2461Z" fill="#0492D2"/>
<path d="M79.5188 102.084H82.5858L81.0805 98.1066L79.5188 102.084ZM80.6988 97.3738H81.5285L84.5821 105.129H83.7871L82.8371 102.717H79.2912L78.3513 105.129H77.5557L80.6988 97.3738Z" fill="#0492D2"/>
<path d="M85.4322 99.5214H86.1182V100.488H86.1395C86.39 99.8157 87.1441 99.3563 87.9393 99.3563C89.5185 99.3563 89.9998 100.185 89.9998 101.521V105.129H89.3124V101.631C89.3124 100.662 88.9953 99.9339 87.8844 99.9339C86.7938 99.9339 86.1395 100.756 86.1182 101.856V105.129H85.4322V99.5214Z" fill="#0492D2"/>
<path d="M94.5146 101.165C94.4832 100.314 93.8275 99.934 93.0418 99.934C92.4305 99.934 91.7119 100.173 91.7119 100.903C91.7119 101.51 92.409 101.726 92.8793 101.848L93.796 102.05C94.5799 102.174 95.4001 102.627 95.4001 103.609C95.4001 104.824 94.1897 105.291 93.1413 105.291C91.8313 105.291 90.9361 104.683 90.8268 103.313H91.5143C91.5707 104.236 92.2578 104.713 93.1748 104.713C93.8165 104.713 94.7122 104.429 94.7122 103.652C94.7122 103.001 94.1013 102.778 93.4802 102.628L92.5944 102.434C91.7001 102.194 91.0239 101.889 91.0239 100.933C91.0239 99.7945 92.1475 99.3565 93.1413 99.3565C94.2655 99.3565 95.1594 99.9473 95.2026 101.165H94.5146Z" fill="#0492D2"/>
<path d="M95.8893 99.5214H96.622L98.0619 104.322H98.0814L99.4565 99.5214H100.232L101.608 104.322H101.629L103.07 99.5214H103.8L101.99 105.129H101.237L99.8497 100.413H99.828L98.4549 105.129H97.7009L95.8893 99.5214Z" fill="#0492D2"/>
<path d="M108.439 101.934C108.404 100.903 107.761 99.934 106.648 99.934C105.526 99.934 104.902 100.912 104.794 101.934H108.439ZM104.794 102.509C104.804 103.508 105.329 104.713 106.648 104.713C107.652 104.713 108.198 104.127 108.417 103.285H109.102C108.81 104.55 108.067 105.291 106.648 105.291C104.859 105.291 104.106 103.922 104.106 102.324C104.106 100.845 104.859 99.3565 106.648 99.3565C108.46 99.3565 109.181 100.933 109.125 102.509H104.794Z" fill="#0492D2"/>
<path d="M110.118 99.5214H110.751V100.836H110.772C111.123 99.9339 111.887 99.4015 112.901 99.4445V100.13C111.657 100.065 110.807 100.978 110.807 102.14V105.129H110.118V99.5214Z" fill="#0492D2"/>
<path d="M116.993 101.165C116.96 100.314 116.305 99.9339 115.52 99.9339C114.909 99.9339 114.189 100.173 114.189 100.903C114.189 101.51 114.886 101.725 115.355 101.848L116.272 102.049C117.059 102.174 117.876 102.627 117.876 103.609C117.876 104.824 116.664 105.291 115.617 105.291C114.308 105.291 113.414 104.683 113.304 103.313H113.992C114.047 104.236 114.735 104.713 115.651 104.713C116.294 104.713 117.187 104.429 117.187 103.652C117.187 103.001 116.577 102.777 115.955 102.627L115.072 102.434C114.178 102.194 113.501 101.888 113.501 100.933C113.501 99.7943 114.625 99.3563 115.617 99.3563C116.741 99.3563 117.637 99.9471 117.68 101.165H116.993Z" fill="#0492D2"/>
<path d="M120.217 97.3738H126.393V98.0011H123.675V105.129H122.934V98.0011H120.217V97.3738Z" fill="#0492D2"/>
<path d="M126.469 102.324C126.469 103.521 127.124 104.713 128.444 104.713C129.764 104.713 130.419 103.521 130.419 102.324C130.419 101.128 129.764 99.934 128.444 99.934C127.124 99.934 126.469 101.128 126.469 102.324ZM131.107 102.324C131.107 103.931 130.17 105.291 128.444 105.291C126.72 105.291 125.782 103.931 125.782 102.324C125.782 100.716 126.72 99.3565 128.444 99.3565C130.17 99.3565 131.107 100.716 131.107 102.324Z" fill="#0492D2"/>
<path d="M134.488 104.713C135.951 104.713 136.465 103.486 136.465 102.324C136.465 101.165 135.951 99.9339 134.488 99.9339C133.18 99.9339 132.645 101.165 132.645 102.324C132.645 103.486 133.18 104.713 134.488 104.713ZM137.152 105.129H136.518V104.062H136.498C136.203 104.788 135.307 105.291 134.488 105.291C132.776 105.291 131.958 103.911 131.958 102.324C131.958 100.739 132.776 99.3563 134.488 99.3563C135.329 99.3563 136.148 99.784 136.443 100.589H136.465V97.3738H137.152V105.129Z" fill="#0492D2"/>
<path d="M141.908 102.063H141.889C141.8 102.228 141.495 102.284 141.311 102.316C140.141 102.522 138.691 102.509 138.691 103.609C138.691 104.294 139.301 104.713 139.944 104.713C140.992 104.713 141.922 104.054 141.908 102.954V102.063ZM138.243 101.238C138.308 99.9213 139.238 99.3565 140.524 99.3565C141.516 99.3565 142.597 99.6659 142.597 101.165V104.137C142.597 104.399 142.728 104.55 143.001 104.55C143.078 104.55 143.164 104.53 143.219 104.507V105.082C143.066 105.117 142.958 105.129 142.773 105.129C142.073 105.129 141.964 104.736 141.964 104.148H141.942C141.462 104.878 140.971 105.291 139.889 105.291C138.856 105.291 138.004 104.779 138.004 103.652C138.004 102.077 139.544 102.017 141.025 101.848C141.592 101.781 141.908 101.706 141.908 101.083C141.908 100.162 141.243 99.934 140.435 99.934C139.586 99.934 138.952 100.323 138.929 101.238H138.243Z" fill="#0492D2"/>
<path d="M143.622 99.5214H144.352L146.207 104.298L147.945 99.5214H148.631L146.187 105.984C145.793 106.927 145.563 107.2 144.703 107.2C144.43 107.191 144.288 107.191 144.178 107.146V106.573C144.343 106.6 144.494 106.626 144.646 106.626C145.257 106.626 145.402 106.265 145.629 105.748L145.869 105.104L143.622 99.5214Z" fill="#0492D2"/>
<path fill-rule="evenodd" clip-rule="evenodd" d="M148.766 63.9537H0V61.287H148.766V63.9537Z" fill="#155196"/>
<defs>
<linearGradient id="paint0_linear_433_529" x1="0.643085" y1="-1.21285" x2="172.781" y2="53.7837" gradientUnits="userSpaceOnUse">
<stop stop-color="#155195"/>
<stop offset="0.337079" stop-color="#155195"/>
<stop offset="0.926966" stop-color="#0491D1"/>
<stop offset="1" stop-color="#0491D1"/>
</linearGradient>
</defs>
</svg>
