<svg width="178" height="64" viewBox="0 0 178 64" fill="none" xmlns="http://www.w3.org/2000/svg">
<path fill-rule="evenodd" clip-rule="evenodd" d="M150.562 10.3773H140.832C140.832 7.9503 138.575 6.84075 136.61 6.84075C137.245 6.84075 132.893 6.49844 132.893 9.14435C132.893 11.0066 135.638 11.7469 136.921 12.0929L136.921 12.0929C137.061 12.1307 137.184 12.1637 137.284 12.193C137.914 12.3774 138.74 12.5882 139.651 12.8208C141.648 13.3303 144.055 13.9445 145.713 14.6156C149.728 16.2414 151.468 19.6558 151.468 22.734C151.468 26.5062 148.986 33.5989 137.122 33.5989C126.371 33.5989 122.539 27.3511 122.539 21.7682H132.589C132.589 25.972 136.546 26.3631 137.723 26.3631C139.557 26.3631 141.76 25.4694 141.76 23.6191C141.76 22.4121 140.683 21.5085 139.557 21.1058C138.773 20.8245 136.564 20.2034 134.662 19.6686L134.662 19.6684L134.661 19.6683L134.661 19.6681L134.657 19.6671C133.412 19.3171 132.299 19.0042 131.804 18.8478C131.793 18.8442 131.765 18.8372 131.723 18.8264L131.723 18.8264C130.816 18.5944 123.161 16.636 123.161 10.075C123.161 5.81692 126.418 -0.000976562 136.935 -0.000976562C146.523 -0.000976562 150.564 4.99478 150.562 10.3773ZM0.600098 0.949023V32.6931H32.2707V0.949023H0.600098ZM22.5259 22.9254H10.3425V10.7136H22.5259V22.9254ZM42.0149 10.7158H54.1959V22.9252H42.0149V10.7158ZM81.5851 0.949023H63.9401L63.9321 32.6894H81.6085C89.4009 32.6894 92.7046 27.8496 92.7046 23.2893C92.7046 19.4759 90.6937 17.0039 86.995 15.6335C89.9277 13.9207 91.0205 12.0828 91.0205 9.23335C91.0205 5.27745 88.062 0.949023 81.5851 0.949023ZM79.9619 25.5238H73.5773V19.8225H80.2856C83.5523 19.8225 83.2594 23.1191 83.2594 22.4524C83.2594 23.8931 82.2386 25.5238 79.9619 25.5238ZM78.7312 13.4464H73.6001V8.30266H79.4044C81.8971 8.30266 82.0115 10.3762 82.0115 10.7463C82.0115 12.3517 81.0769 13.4464 78.7312 13.4464ZM102.739 0.949023H112.941L124.561 32.6505H114.09L112.557 27.9015H102.782L101.482 32.6258H91.0907L102.739 0.949023ZM107.426 10.3608L104.732 20.9481H110.491L107.426 10.3608ZM153.118 0.941602H177.4V9.31967H162.821V14.9044H175.821V22.91H162.775V32.6838H153.07L153.118 0.941602ZM13.2272 57.7673L13.2376 57.8067H13.357L16.1518 46.3307H17.8735L14.2197 60.019H12.3916L9.26082 48.4665L9.25036 48.4276H9.13221L5.951 60.019H4.1241L0.623535 46.3307H2.38336L5.07232 57.766L5.08155 57.8067H5.20338L8.28676 46.3307H10.1912L13.2272 57.7673ZM24.5638 50.4501C25.126 50.7987 25.6016 51.2712 25.9544 51.8316V51.8292C26.3043 52.3933 26.5503 53.0158 26.6805 53.6671C26.8062 54.2755 26.8611 54.8964 26.8442 55.5174H19.3822V55.5692C19.3676 55.9959 19.4207 56.4223 19.5397 56.8323C19.6526 57.2222 19.8466 57.5838 20.1089 57.8931C20.3836 58.211 20.7254 58.4638 21.1094 58.6333C21.5124 58.8164 21.9924 58.9065 22.5388 58.9065C23.2415 58.9065 23.834 58.7356 24.2758 58.4131C24.7176 58.0905 25.0173 57.6008 25.1637 56.9544H26.6787C26.4553 58.0258 25.9809 58.8442 25.2634 59.3906C24.5312 59.9463 23.5941 60.2313 22.4797 60.2313C21.6964 60.2313 21.006 60.1012 20.4307 59.847C19.8706 59.6066 19.3726 59.2415 18.9742 58.7794C18.5684 58.2991 18.2663 57.7396 18.0869 57.1364C17.8841 56.4575 17.7718 55.7546 17.7528 55.0462C17.7451 54.3421 17.8615 53.6423 18.0968 52.9788C18.3111 52.3811 18.638 51.8302 19.0597 51.3561C19.4697 50.9024 19.9692 50.539 20.5267 50.2891C21.1122 50.0314 21.7455 49.901 22.3849 49.9067C23.2569 49.9067 23.9891 50.0905 24.5638 50.4501ZM19.3822 54.1161L19.3785 54.1728L25.2173 54.1747L25.213 54.118C25.1887 53.7343 25.1005 53.3574 24.9521 53.0029C24.8106 52.6615 24.6041 52.351 24.3441 52.0888C24.0838 51.8304 23.7771 51.6234 23.4402 51.4788C23.0772 51.3247 22.6863 51.2474 22.292 51.2519C21.8909 51.2459 21.4928 51.3232 21.1229 51.4788C20.7864 51.6217 20.4822 51.8316 20.2289 52.0956C19.9781 52.3606 19.7775 52.669 19.6369 53.0059C19.4925 53.3597 19.4064 53.7346 19.3822 54.1161ZM38.3536 58.9071C37.8318 58.9071 37.3758 58.8023 36.9999 58.592C36.6306 58.3904 36.3143 58.104 36.0769 57.7563C35.836 57.394 35.6604 56.9921 35.5582 56.569C35.4478 56.1223 35.3925 55.6637 35.3933 55.2035C35.3925 54.7092 35.4445 54.2163 35.5483 53.7331C35.6425 53.2832 35.8183 52.8544 36.067 52.4682C36.3138 52.0978 36.6474 51.7937 37.0386 51.5825C37.4447 51.3611 37.9524 51.2488 38.548 51.2488C39.2519 51.2488 39.8211 51.4277 40.2408 51.7829C40.6481 52.1277 40.9238 52.6187 41.0591 53.2391H42.6528C42.6013 52.7285 42.4484 52.2334 42.203 51.7829C41.9731 51.3695 41.6585 51.0095 41.28 50.7264C40.892 50.4401 40.4537 50.2296 39.9879 50.106C39.4736 49.969 38.9435 49.9012 38.4114 49.9043C37.6392 49.9043 36.9531 50.0424 36.3722 50.3163C35.8075 50.5748 35.3095 50.9597 34.9164 51.4413C34.5194 51.9386 34.2242 52.5095 34.0475 53.1213C33.8533 53.7981 33.757 54.4993 33.7614 55.2035C33.754 55.8952 33.8539 56.5839 34.0574 57.245C34.2376 57.8309 34.5366 58.3732 34.9355 58.8381C35.3311 59.2892 35.8259 59.6421 36.3808 59.8687C36.9549 60.1098 37.6269 60.2301 38.3745 60.2301C39.6267 60.2301 40.6297 59.8983 41.3557 59.2402C42.0701 58.5938 42.5248 57.6625 42.7094 56.474H41.1367C41.0265 57.2345 40.741 57.8309 40.2875 58.2552C39.8211 58.687 39.1719 58.9065 38.3536 58.9065V58.9071ZM46.2044 52.2133C46.5458 51.4985 47.0689 50.8863 47.7212 50.4383L47.7236 50.4402C48.2516 50.0849 48.9284 49.9042 49.7283 49.9042H49.8403V51.5368C49.2029 51.5435 48.6497 51.6348 48.1962 51.8118C47.7521 51.9768 47.3591 52.2558 47.0566 52.621C46.7564 52.9979 46.5414 53.4356 46.4265 53.9039C46.2897 54.469 46.2248 55.0493 46.2333 55.6308V60.0191H44.6993V50.1367H46.1367V52.2417H46.1902L46.2044 52.2133ZM58.2099 51.8316C57.8572 51.2711 57.3816 50.7986 56.8192 50.4501C56.2451 50.0905 55.5123 49.9067 54.6404 49.9067C54.0011 49.901 53.368 50.0313 52.7827 50.2891C52.2253 50.5399 51.726 50.9041 51.3164 51.3586C50.8947 51.8318 50.5676 52.3819 50.3528 52.9788C50.1179 53.6431 50.0021 54.3439 50.0107 55.0487C50.0295 55.7571 50.1416 56.4599 50.3442 57.1389C50.524 57.7421 50.8263 58.3015 51.2321 58.7819C51.6302 59.2439 52.1281 59.609 52.688 59.8495C53.2633 60.1036 53.9537 60.2338 54.7376 60.2338C55.8513 60.2338 56.7885 59.9488 57.5213 59.3931C58.2382 58.8467 58.7132 58.0282 58.9366 56.9569H57.4192C57.2715 57.6045 56.9737 58.093 56.5331 58.4156C56.0925 58.7381 55.4981 58.909 54.7954 58.909C54.249 58.909 53.7691 58.8189 53.3667 58.6357C52.9826 58.4664 52.6408 58.2136 52.3662 57.8956C52.1039 57.5862 51.9099 57.2247 51.797 56.8348C51.6774 56.424 51.6236 55.9969 51.6376 55.5692V55.5174H59.099C59.1168 54.8964 59.062 54.2754 58.936 53.6671C58.806 53.0157 58.56 52.3931 58.2099 51.8292V51.8316ZM51.6339 54.1729L51.6376 54.1161C51.6624 53.7347 51.7486 53.3598 51.893 53.0059C52.0319 52.6674 52.2317 52.3574 52.4824 52.0913C52.7358 51.8272 53.04 51.6174 53.3765 51.4745C53.7464 51.3189 54.1445 51.2416 54.5456 51.2476C54.9397 51.2431 55.3304 51.3204 55.6932 51.4745C56.0295 51.6194 56.3353 51.8268 56.5947 52.0857C56.855 52.3478 57.0617 52.6583 57.2032 52.9998C57.3524 53.3553 57.4416 53.7331 57.4672 54.118L57.4715 54.1747L51.6339 54.1729ZM68.9739 57.7327C68.9739 58.133 68.9961 58.4155 69.041 58.5962L69.0422 58.6023C69.0939 58.8083 69.2625 58.9107 69.548 58.9107C69.7005 58.9074 69.8516 58.8816 69.9966 58.8342V60.0061C69.7246 60.1578 69.3462 60.2337 68.8724 60.2337C68.4651 60.2337 68.1328 60.1183 67.8965 59.892C67.6602 59.6656 67.5371 59.2845 67.5371 58.7621V58.6153L67.4442 58.7294C67.0321 59.2375 66.4994 59.6339 65.8949 59.8821C65.2835 60.12 64.6327 60.2393 63.9769 60.2337C63.5529 60.2366 63.1301 60.189 62.7173 60.0918C62.3454 60.0047 61.9948 59.8432 61.6867 59.6169C61.3887 59.395 61.1493 59.1037 60.9889 58.7682C60.8197 58.4216 60.7329 57.9985 60.7329 57.5051C60.7329 56.9519 60.8289 56.4899 61.0166 56.139C61.1953 55.7971 61.4508 55.5015 61.763 55.2755C62.0848 55.0463 62.444 54.875 62.8244 54.7692C63.228 54.6538 63.6434 54.5558 64.0637 54.4793C64.5128 54.3899 64.9423 54.3214 65.3411 54.2795C65.7045 54.2414 66.0645 54.1754 66.4179 54.0821C66.6952 54.0174 66.9535 53.8881 67.1716 53.7046C67.363 53.535 67.4596 53.2828 67.4596 52.9608C67.4596 52.592 67.3889 52.2892 67.2492 52.0622C67.1179 51.8445 66.9318 51.6652 66.7095 51.5423C66.4818 51.42 66.234 51.3395 65.9779 51.3048C65.7169 51.2662 65.4535 51.2467 65.1897 51.2462C64.4901 51.2462 63.8957 51.3831 63.4286 51.6484C62.9616 51.9136 62.7026 52.4168 62.6539 53.1397H61.1212C61.1501 52.5587 61.2769 52.0585 61.4965 51.6514C61.7148 51.2458 62.0263 50.8983 62.4054 50.6375C62.804 50.3693 63.2491 50.1781 63.7178 50.0738C64.6187 49.8665 65.6346 49.856 66.6191 49.9985C67.0343 50.0566 67.4359 50.1886 67.8048 50.3883C68.1552 50.5827 68.4477 50.8671 68.6521 51.2123C68.8656 51.5645 68.9739 52.0301 68.9739 52.5969V57.7327ZM67.2652 57.3663C67.3758 57.1267 67.4361 56.8668 67.4424 56.6028L67.4393 54.8136L67.355 54.8789C67.1187 55.0436 66.8499 55.1557 66.5668 55.2077C66.24 55.2761 65.8899 55.3354 65.5207 55.3804C65.1386 55.4285 64.7651 55.4797 64.4132 55.5352C64.0639 55.586 63.7227 55.6818 63.3979 55.8201C63.1057 55.942 62.8495 56.1369 62.6539 56.3863C62.4607 56.6324 62.3629 56.9728 62.3629 57.3929C62.356 57.6416 62.4153 57.8876 62.5346 58.1058C62.6439 58.2942 62.7945 58.4551 62.9751 58.5764C63.1681 58.7025 63.3835 58.7903 63.6095 58.8348C63.8506 58.8878 64.0968 58.9141 64.3436 58.9132C64.8894 58.9132 65.3601 58.8367 65.7509 58.6887C66.1039 58.5609 66.4298 58.3675 66.7114 58.1188C66.9458 57.909 67.1344 57.6528 67.2652 57.3663ZM85.1132 51.8316C84.7605 51.2709 84.2846 50.7984 83.7219 50.4501C83.1472 50.0905 82.4138 49.9067 81.5425 49.9067C80.9032 49.901 80.2701 50.0313 79.6848 50.2891C79.127 50.5396 78.6274 50.9038 78.2179 51.3586C77.7961 51.8317 77.4692 52.3818 77.2549 52.9788C77.0207 53.6425 76.9047 54.3423 76.9122 55.0462C76.9298 55.7547 77.0419 56.4577 77.2457 57.1364C77.4241 57.7404 77.7256 58.3007 78.1311 58.7819C78.5301 59.243 79.0278 59.6079 79.587 59.8495C80.1629 60.1036 80.8533 60.2338 81.6378 60.2338C82.7516 60.2338 83.6869 59.9488 84.4191 59.3931C85.1353 58.8467 85.6122 58.0282 85.8343 56.9569H84.3219C84.1742 57.6033 83.8752 58.093 83.4334 58.4156C82.9916 58.7381 82.3996 58.909 81.6963 58.909C81.1511 58.909 80.6705 58.8189 80.2669 58.6357C79.8829 58.4663 79.5411 58.2135 79.2664 57.8956C79.0042 57.5862 78.8102 57.2247 78.6972 56.8348C78.5788 56.4251 78.5263 55.9991 78.5415 55.5729V55.5211H86.0017C86.0187 54.9 85.9634 54.279 85.8368 53.6708C85.7066 53.0198 85.4613 52.3974 85.1126 51.8329L85.1132 51.8316ZM78.5711 54.1766L78.5748 54.1198C78.5974 53.7381 78.6837 53.3628 78.8301 53.0096C78.9673 52.6707 79.1666 52.3604 79.4178 52.095C79.6714 51.831 79.9758 51.6212 80.3124 51.4782C80.6824 51.3227 81.0804 51.2454 81.4815 51.2513C82.0487 51.2432 82.6053 51.4057 83.0795 51.7178C83.5536 52.03 83.9236 52.4773 84.1416 53.0022C84.2918 53.3575 84.3815 53.7354 84.4068 54.1204L84.4105 54.1772L78.5711 54.1766ZM96.1791 58.592C96.5563 58.8023 97.0122 58.9071 97.5328 58.9071L97.5359 58.9065C98.3561 58.9065 99.0071 58.687 99.4698 58.2552C99.9264 57.8309 100.211 57.2345 100.32 56.474H101.888C101.703 57.6644 101.246 58.5957 100.534 59.2402C99.8082 59.8983 98.8059 60.2301 97.55 60.2301C96.8048 60.2301 96.1341 60.1098 95.5576 59.8687C95.003 59.6411 94.5081 59.2884 94.1116 58.8381C93.715 58.3722 93.4174 57.8301 93.2372 57.245C93.0344 56.5838 92.9348 55.8952 92.9419 55.2035C92.9378 54.4993 93.0341 53.7982 93.228 53.1213C93.4039 52.5092 93.6992 51.9382 94.0968 51.4413C94.4892 50.9591 94.9872 50.5742 95.5521 50.3163C96.1317 50.0424 96.819 49.9043 97.5906 49.9043C98.1229 49.9013 98.6532 49.9691 99.1677 50.106C99.6331 50.2306 100.071 50.441 100.46 50.7264C100.838 51.0093 101.152 51.3686 101.383 51.7811C101.628 52.2323 101.781 52.728 101.833 53.2391H100.238C100.104 52.6186 99.8298 52.1277 99.4194 51.7829C99.0003 51.4277 98.4299 51.2488 97.7284 51.2488C97.1304 51.2488 96.6221 51.3611 96.2178 51.5825C95.8263 51.7946 95.4924 52.0992 95.245 52.47C94.9967 52.8556 94.8215 53.2838 94.7281 53.7331C94.6233 54.2162 94.5711 54.7092 94.5725 55.2035C94.572 55.6636 94.6269 56.1221 94.7361 56.569C94.8389 56.9922 95.0148 57.394 95.2561 57.7563C95.4938 58.1038 95.81 58.3902 96.1791 58.592ZM111.346 50.9121C111.066 50.5837 110.709 50.3296 110.307 50.1719C109.876 49.9949 109.334 49.9043 108.689 49.9043C108.384 49.9063 108.081 49.9387 107.783 50.0011C107.474 50.0637 107.175 50.1628 106.89 50.2965C106.609 50.427 106.351 50.5998 106.123 50.8091C105.898 51.0144 105.666 51.2716 105.541 51.5726L105.529 51.6053H105.455V46.3308H103.922V60.0191H105.455V54.4319C105.451 54.0036 105.513 53.5772 105.64 53.1682C105.757 52.7965 105.947 52.4522 106.199 52.1554C106.455 51.8627 106.775 51.6327 107.133 51.4832C107.506 51.3271 107.95 51.2488 108.456 51.2488C109.096 51.2488 109.609 51.4338 109.977 51.8039C110.346 52.1739 110.531 52.6778 110.531 53.3094V60.0191H112.069V53.5055C112.074 53.0117 112.019 52.5192 111.907 52.0383C111.811 51.6244 111.619 51.2388 111.348 50.9121H111.346ZM120.96 50.4477C121.523 50.7964 121.999 51.2699 122.351 51.8318L122.351 51.8305C122.701 52.3948 122.946 53.0173 123.076 53.6685C123.203 54.2766 123.258 54.8976 123.241 55.5187H115.781V55.5706C115.765 55.997 115.818 56.4231 115.938 56.8325C116.051 57.2224 116.245 57.584 116.507 57.8933C116.782 58.2114 117.123 58.4643 117.508 58.6334C117.91 58.8166 118.391 58.9066 118.937 58.9066C119.638 58.9066 120.229 58.7358 120.673 58.4132C121.116 58.0906 121.415 57.6009 121.562 56.9546H123.074C122.851 58.0271 122.375 58.8443 121.658 59.3908C120.924 59.9465 119.99 60.2314 118.877 60.2314C118.093 60.2314 117.402 60.1013 116.826 59.8472C116.267 59.6061 115.769 59.2411 115.371 58.7796C114.965 58.2991 114.663 57.7397 114.483 57.1365C114.28 56.4576 114.168 55.7547 114.15 55.0463C114.142 54.3423 114.258 53.6425 114.492 52.9789C114.708 52.3816 115.034 51.8309 115.455 51.3562C115.865 50.9019 116.365 50.5377 116.922 50.2868C117.508 50.0289 118.141 49.8986 118.781 49.9044C119.653 49.9044 120.386 50.0882 120.96 50.4477ZM115.78 54.1175L115.775 54.1742L121.615 54.1748L121.61 54.1181C121.584 53.7334 121.495 53.3556 121.347 52.9999C121.204 52.6588 120.996 52.3485 120.736 52.0859C120.467 51.8166 120.148 51.6038 119.796 51.4601C119.444 51.3164 119.067 51.2446 118.686 51.2489C118.285 51.2426 117.887 51.3199 117.517 51.4759C117.181 51.6193 116.877 51.8291 116.623 52.0926C116.371 52.358 116.172 52.6683 116.034 53.0073C115.889 53.3608 115.803 53.7359 115.78 54.1175ZM138.186 50.5697C137.884 50.333 137.537 50.1618 137.165 50.067C136.726 49.9541 136.273 49.8994 135.819 49.9042C135.2 49.8988 134.588 50.0496 134.042 50.3427C133.508 50.6327 133.06 51.0581 132.742 51.5762L132.68 51.6731L132.643 51.5664C132.445 50.9644 132.096 50.5333 131.611 50.2823C131.097 50.0251 130.53 49.8946 129.957 49.9017C128.581 49.9017 127.454 50.4667 126.724 51.5787L126.708 51.6028H126.647V50.1367H125.209V60.0191H126.743V53.8515C126.753 53.5987 126.803 53.349 126.889 53.1114C126.996 52.801 127.156 52.5113 127.36 52.2547C127.593 51.9647 127.88 51.7235 128.206 51.5448C128.551 51.348 128.972 51.2487 129.455 51.2487C129.833 51.2487 130.149 51.3049 130.392 51.4184C130.629 51.5221 130.833 51.6887 130.982 51.9C131.133 52.1174 131.238 52.3634 131.29 52.6229C131.35 52.9191 131.38 53.221 131.377 53.5234V60.0191H132.912V53.8515C132.912 53.0694 133.149 52.4329 133.62 51.9617C134.09 51.4905 134.746 51.25 135.566 51.25C135.968 51.25 136.304 51.3116 136.56 51.4276C136.804 51.5347 137.014 51.705 137.171 51.921C137.32 52.1388 137.421 52.3865 137.466 52.6469C137.521 52.9369 137.547 53.2314 137.545 53.5264V60.0191H139.079V52.7506C139.079 52.2448 138.999 51.8075 138.843 51.4467C138.698 51.1055 138.472 50.8045 138.186 50.5697ZM141.763 48.2353H143.297V46.3308H141.763V48.2353ZM141.763 50.1368H143.297V60.0191H141.763V50.1368ZM152.466 59.5832C152.857 59.347 153.188 59.0218 153.431 58.634C153.677 58.2461 153.8 57.7483 153.8 57.1538C153.8 56.6931 153.708 56.299 153.528 55.9819C153.348 55.6717 153.102 55.4046 152.809 55.1993C152.494 54.9804 152.148 54.8097 151.782 54.6929C151.388 54.5627 150.988 54.4536 150.582 54.366C150.197 54.276 149.812 54.1896 149.425 54.1051C149.068 54.0302 148.717 53.9271 148.376 53.7968C148.09 53.6887 147.827 53.528 147.599 53.3231C147.497 53.2283 147.416 53.1128 147.362 52.9842C147.307 52.8557 147.281 52.717 147.284 52.5774C147.274 52.3403 147.346 52.1071 147.487 51.9169C147.627 51.7446 147.805 51.6077 148.007 51.5172C148.23 51.4136 148.466 51.3429 148.708 51.3075C149.226 51.2187 149.756 51.2292 150.27 51.3383C150.53 51.3931 150.779 51.4889 151.009 51.6221C151.231 51.7535 151.421 51.9343 151.563 52.1506C151.709 52.3865 151.796 52.6541 151.818 52.9308H153.351C153.309 52.3579 153.182 51.8743 152.976 51.4901C152.773 51.1072 152.477 50.7822 152.115 50.5458C151.735 50.3037 151.313 50.1363 150.87 50.0524C150.359 49.9529 149.84 49.9043 149.319 49.9075C148.879 49.909 148.44 49.9637 148.012 50.0703C147.595 50.1709 147.196 50.3385 146.831 50.5668C146.488 50.7884 146.197 51.0832 145.98 51.4302C145.763 51.7799 145.652 52.2067 145.652 52.6965C145.652 53.3249 145.809 53.819 146.121 54.1668C146.447 54.5313 146.853 54.8151 147.307 54.9957C147.811 55.2016 148.334 55.356 148.868 55.4565C149.427 55.5638 149.956 55.6871 150.442 55.8265C150.875 55.9377 151.287 56.1192 151.662 56.3637C151.996 56.5931 152.167 56.9324 152.167 57.3733C152.167 57.6941 152.086 57.9611 151.921 58.1696C151.762 58.3765 151.553 58.5386 151.313 58.6402C151.06 58.7479 150.792 58.8207 150.519 58.8567C149.921 58.9455 149.313 58.9322 148.719 58.8172C148.416 58.7578 148.125 58.6475 147.858 58.4909C147.602 58.3397 147.386 58.128 147.231 57.8742C147.073 57.6021 146.985 57.295 146.975 56.9805H145.447C145.476 57.5658 145.605 58.0672 145.824 58.4774C146.039 58.8884 146.351 59.2405 146.733 59.503C147.131 59.7699 147.576 59.9598 148.044 60.063C148.992 60.2845 150.064 60.2943 151.115 60.0926C151.593 60.007 152.052 59.8361 152.469 59.5881L152.466 59.5832ZM156.418 47.1429H157.953V50.1366H159.998V51.4799H157.953V57.7351C157.948 57.8962 157.965 58.0572 158.004 58.2137C158.033 58.3342 158.105 58.44 158.207 58.5116C158.326 58.5893 158.464 58.6361 158.606 58.6479C158.816 58.6682 159.028 58.6775 159.239 58.6757H159.939V60.0196H158.738C158.376 60.0251 158.015 59.9962 157.659 59.9332C157.4 59.8928 157.157 59.7866 156.951 59.6249C156.759 59.4576 156.621 59.2382 156.552 58.9933C156.463 58.7182 156.418 58.3451 156.418 57.8893V51.4799H154.783V50.1366H156.418V47.1429ZM73.7903 47.1429H72.252V50.1366H70.6165V51.4799H72.252V57.8893C72.252 58.3451 72.2976 58.7182 72.3862 58.9933C72.4546 59.2384 72.5933 59.4579 72.7849 59.6249C72.9907 59.7869 73.2346 59.8931 73.4931 59.9332C73.8489 59.9962 74.2099 60.0251 74.5712 60.0196H75.7723V58.6757H75.0727C74.8615 58.6775 74.6503 58.6683 74.4401 58.6479C74.2973 58.6361 74.1595 58.5893 74.0389 58.5116C73.9386 58.4394 73.8671 58.3338 73.8371 58.2137C73.7994 58.0571 73.7829 57.8961 73.7879 57.7351V51.4799H75.832V50.1366H73.7879L73.7903 47.1429ZM163.787 52.3609L163.801 52.3331C164.143 51.6184 164.667 51.006 165.318 50.5569C165.872 50.1868 166.584 50.0067 167.433 50.0228V51.6572C166.796 51.6633 166.243 51.7528 165.789 51.9304C165.346 52.0966 164.953 52.3757 164.65 52.7402C164.352 53.1185 164.138 53.5569 164.024 54.0255C163.887 54.5888 163.821 55.1672 163.829 55.7469V60.0192H162.295V50.1369H163.733V52.3609H163.787ZM172.503 62.6001C172.717 62.2017 172.905 61.7896 173.066 61.3666L177.377 50.1372H175.758L172.96 58.3099H172.848L172.836 58.2729L169.937 50.1366H168.204L172.133 60.0159L172.125 60.0338L171.449 61.7138C171.319 61.9856 171.13 62.2243 170.895 62.412C170.68 62.5748 170.396 62.6556 170.052 62.6556C169.879 62.6552 169.707 62.628 169.542 62.5748C169.433 62.5409 169.325 62.5046 169.217 62.4685L169.141 62.4428V63.8398C169.307 63.8983 169.479 63.9397 169.654 63.9632C169.844 63.9878 170.034 64.0001 170.225 64.0002C170.546 64.0066 170.866 63.9588 171.17 63.8589C171.441 63.7604 171.688 63.6062 171.895 63.4062C172.137 63.1693 172.342 62.8971 172.503 62.5989V62.6001Z" fill="black"/>
</svg>
