<svg width="98" height="112" viewBox="0 0 98 112" fill="none" xmlns="http://www.w3.org/2000/svg">
<path d="M48.9992 0L97.7992 84.8H0.199219L48.9992 0Z" fill="#ED1C24"/>
<path d="M41.7908 59.0272H38.4738C38.0112 59.0272 37.5658 59.4022 37.4838 59.8646L34.6965 75.1172C34.6128 75.5817 34.9213 75.9566 35.3857 75.9566H38.7046C39.1672 75.9566 39.6125 75.5817 39.6966 75.1172L42.4823 59.8646C42.5659 59.4022 42.2572 59.0288 41.7908 59.0272Z" fill="#FBAC23"/>
<path d="M43.7803 52.7325L44.3027 49.8428C44.3858 49.3804 44.0779 49.0073 43.6149 49.0053L40.2945 49.0073C39.8334 49.0073 39.3901 49.3804 39.306 49.8428L38.7806 52.7325C38.7008 53.193 39.0068 53.5699 39.4718 53.5699H42.7902C43.2528 53.5699 43.697 53.193 43.7803 52.7325Z" fill="#FBAC23"/>
<path d="M79.6408 75.1573C79.8676 74.588 80.0335 73.0461 80.0335 73.0461C80.0718 72.8152 80.1229 72.2105 79.5652 72.0426C79.0055 71.8758 77.6799 72.077 77.6799 71.2094C77.6799 70.9087 78.7197 65.7995 78.8278 64.1626C78.9368 62.5257 78.8376 60.3687 76.155 59.3123C75.18 58.9281 66.46 59.0286 66.46 59.0286C65.9449 59.0232 65.4765 59.3525 65.4136 59.7671L65.0177 61.6046C64.9549 62.0191 65.3239 62.3581 65.8398 62.3658C65.8398 62.3658 69.5691 62.3658 71.8582 62.3658C74.0017 62.3658 74.7803 62.7787 74.8245 63.1457C74.8638 63.5154 74.9208 65.609 74.0164 65.5734C73.2191 65.5408 62.3789 63.4049 62.3789 70.5486C62.3789 71.7914 60.2782 72.2546 59.7281 71.4152C59.1758 70.5732 56.3563 67.7544 56.3333 67.2555C56.3045 66.757 60.9985 64.3317 61.9977 60.3518C62.0913 59.9845 62.1557 59.027 61.4227 59.027C60.8953 59.027 58.9587 59.0286 58.5572 59.0251C58.1743 59.0212 57.6719 59.1145 57.23 60.0298C55.2938 64.5031 50.2386 65.5273 50.5987 63.8638C50.7169 63.3213 56.4802 31.4587 56.4802 31.4587C56.5634 30.9983 56.255 30.6204 55.7906 30.6204H52.472C52.009 30.6204 51.5656 30.9983 51.4821 31.4587L43.5252 75.1171C43.4397 75.5815 43.748 75.9565 44.2125 75.9565H47.5315C47.9959 75.9565 48.4374 75.5815 48.5214 75.1171L49.4542 70.1851L49.4561 70.1889C49.7323 69.4792 50.1416 69.1686 51.0479 69.1686C54.3246 69.1686 55.998 76.1961 59.3438 76.2529C61.3598 76.2882 63.7589 74.7628 64.2199 74.7501C65.1831 74.7218 65.7258 76.2529 68.9523 76.2529C71.816 76.2529 73.8966 75.2102 74.5692 75.2102C75.1594 75.2102 76.4064 75.8464 77.0289 76.0094C78.5577 76.417 79.4189 75.7279 79.6408 75.1573ZM70.0623 72.7857C67.5907 72.9057 66.2386 71.7159 66.2386 70.5563C66.2386 68.9669 68.6857 68.4569 70.6642 68.527C72.6437 68.5957 74.0145 69.0282 73.9634 70.5808C73.9241 71.7423 72.1528 72.6849 70.0623 72.7857Z" fill="#FBAC23"/>
<path d="M18.0038 76.3054C18.2477 76.1883 18.4034 76.0392 18.535 75.9913C18.642 75.9529 18.8476 75.9668 19.1199 76.0197L19.1555 76.0292C21.4539 76.6761 29.7824 78.9037 31.831 69.213C31.831 69.213 37.4873 38.2274 37.4969 38.1558C37.5429 37.7916 38.1922 33.8533 43.666 35.6997C45.509 36.3201 45.6732 35.3993 45.7223 35.2374L46.5619 31.6151C46.5926 30.5854 45.766 30.819 44.1857 30.5186C42.9733 30.2899 42.617 30.9358 42.3408 31.0713C42.0627 31.1999 41.0958 30.9662 39.6601 30.8975C38.8278 30.8573 33.8185 31.4895 32.8075 36.3829L27.2981 66.15C27.0518 67.043 27.1359 75.4541 17.4726 70.7108C15.8313 69.9016 15.2053 70.3262 15.0565 71.1789C14.9533 71.781 14.4965 74.8337 14.4182 75.4583C14.3864 75.7152 14.5766 76.1147 15.0546 76.1883C15.5627 76.2708 16.3721 76.3885 16.7722 76.4506C17.3428 76.535 17.6954 76.4671 17.9561 76.3356L18.0038 76.3054Z" fill="#FBAC23"/>
<path d="M90.4907 54.4294H91.4825C91.9548 54.4294 92.2788 54.3593 92.4516 54.2182C92.6234 54.0763 92.7099 53.8888 92.7099 53.6568C92.7099 53.5065 92.6686 53.3742 92.5852 53.2553C92.5007 53.136 92.3868 53.0479 92.2395 52.9908C92.0913 52.9317 91.8183 52.9029 91.4196 52.9029H90.4907V54.4294ZM89.6738 57.2782V52.2165H91.4128C92.0078 52.2165 92.4379 52.2638 92.703 52.3577C92.9691 52.4501 93.1812 52.6146 93.3393 52.8458C93.4964 53.0789 93.5769 53.3267 93.5769 53.5886C93.5769 53.9575 93.4443 54.2799 93.1802 54.5541C92.917 54.8294 92.5665 54.9816 92.1295 55.0158C92.3092 55.0902 92.4516 55.1799 92.5596 55.2842C92.7648 55.4839 93.0142 55.8172 93.3078 56.2873L93.9264 57.2782H92.9278L92.4791 56.4798C92.1246 55.852 91.8399 55.459 91.6248 55.3026C91.4766 55.1856 91.2576 55.1281 90.9699 55.1281H90.4907V57.2782H89.6738ZM91.7378 50.7517C91.0769 50.7517 90.4328 50.9217 89.8064 51.2602C89.1819 51.5984 88.6929 52.0823 88.3384 52.7128C87.9839 53.3424 87.8092 53.9973 87.8092 54.6787C87.8092 55.3566 87.983 56.0055 88.3296 56.6274C88.6772 57.2486 89.1612 57.7322 89.7857 58.0796C90.4083 58.427 91.0593 58.5992 91.7378 58.5992C92.4143 58.5992 93.0653 58.427 93.6888 58.0796C94.3113 57.7322 94.7964 57.2486 95.142 56.6274C95.4867 56.0055 95.6585 55.3566 95.6585 54.6787C95.6585 53.9973 95.4828 53.3424 95.1322 52.7128C94.7797 52.0823 94.2907 51.5984 93.6643 51.2602C93.0358 50.9217 92.3947 50.7517 91.7378 50.7517ZM91.7378 49.9734C92.5262 49.9734 93.299 50.175 94.0511 50.5815C94.8023 50.9861 95.3895 51.5647 95.8078 52.3197C96.228 53.0732 96.4381 53.8608 96.4381 54.6787C96.4381 55.4897 96.231 56.2682 95.8176 57.0173C95.4042 57.7648 94.8239 58.3453 94.0796 58.7583C93.3334 59.1727 92.5518 59.3783 91.7378 59.3783C90.9228 59.3783 90.1422 59.1727 89.3959 58.7583C88.6487 58.3453 88.0684 57.7648 87.653 57.0173C87.2387 56.2682 87.0305 55.4897 87.0305 54.6787C87.0305 53.8608 87.2416 53.0732 87.6619 52.3197C88.0861 51.5647 88.6723 50.9861 89.4244 50.5815C90.1756 50.175 90.9473 49.9734 91.7378 49.9734Z" fill="#ED1C24"/>
<path d="M4.08809 111.863H0.203125V102.753H3.79973C5.70138 102.753 6.4007 103.519 6.4007 104.749V105.68C6.4007 106.339 6.11125 106.802 5.387 107.116C6.13962 107.294 6.72655 107.95 6.72655 108.801V109.687C6.72655 110.973 5.90494 111.863 4.08809 111.863ZM4.34917 105.053C4.34917 104.654 4.10105 104.409 3.52756 104.409H2.25544V106.487H3.52756C4.07199 106.487 4.34917 106.215 4.34917 105.846V105.053ZM4.67503 108.854C4.67503 108.347 4.36222 108.088 3.81121 108.088H2.25544V110.208H3.52756C4.16975 110.208 4.67503 110.072 4.67503 109.416V108.854Z" fill="#ED1C24"/>
<path d="M14.8241 102.753V109.209C14.8241 110.592 13.9649 112 11.3927 112C8.81848 112 7.95771 110.592 7.95771 109.209V102.753H10.0112V109.02C10.0112 109.757 10.3655 110.178 11.3927 110.178C12.417 110.178 12.7721 109.757 12.7721 109.02V102.753H14.8241Z" fill="#ED1C24"/>
<path d="M16.6025 102.753H18.6525V111.863H16.6025V102.753Z" fill="#ED1C24"/>
<path d="M20.5025 111.863V102.753H22.5529V110.046H26.163V111.863H20.5025Z" fill="#ED1C24"/>
<path d="M30.8558 111.863H27.3262V102.753H30.8558C33.0999 102.753 33.9322 103.889 33.9322 105.119V109.498C33.9322 110.715 33.0999 111.863 30.8558 111.863ZM31.8807 105.68C31.8807 104.968 31.6345 104.573 30.6116 104.573H29.3797V110.046H30.6116C31.6345 110.046 31.8807 109.649 31.8807 108.936V105.68Z" fill="#ED1C24"/>
<path d="M35.5751 102.753H37.6244V111.863H35.5751V102.753Z" fill="#ED1C24"/>
<path d="M41.4269 105.871V111.863H39.4727V102.753H41.9874L44.9844 109.031V102.753H46.9425V111.863H44.4109L41.4269 105.871Z" fill="#ED1C24"/>
<path d="M51.8502 112C49.6345 112 48.5127 110.865 48.5127 109.209V105.407C48.5127 103.723 49.6345 102.616 51.8502 102.616C52.9064 102.616 53.9838 102.753 54.7659 102.903L54.5174 104.695C53.7269 104.573 52.5073 104.477 51.8502 104.477C50.8273 104.477 50.5662 105.009 50.5662 105.722V108.854C50.5662 109.567 50.8273 110.154 51.8502 110.154C52.2604 110.154 52.5365 110.141 53.0678 110.072V107.28H54.9959V111.563C53.9991 111.85 52.9064 112 51.8502 112Z" fill="#ED1C24"/>
<path d="M63.3318 104.573V111.863H61.2771V104.573H58.8318V102.753H65.7775V104.573H63.3318Z" fill="#ED1C24"/>
<path d="M70.0882 109.031H68.8859V111.863H66.834V102.753H70.6198C72.837 102.753 73.6566 103.627 73.6566 105.336V106.46C73.6566 107.596 73.2492 108.362 72.3325 108.748L74.533 111.863H72.0979L70.0882 109.031ZM71.6072 105.531C71.6072 104.847 71.3471 104.571 70.5109 104.571H68.8859V107.254H70.5109C71.3873 107.254 71.6072 106.937 71.6072 106.255V105.531Z" fill="#ED1C24"/>
<path d="M82.4262 102.753V109.209C82.4262 110.592 81.5674 112 78.9949 112C76.4204 112 75.5577 110.592 75.5577 109.209V102.753H77.611V109.02C77.611 109.757 77.9653 110.178 78.9949 110.178C80.0196 110.178 80.3739 109.757 80.3739 109.02V102.753H82.4262Z" fill="#ED1C24"/>
<path d="M86.805 112C85.7508 112 84.6417 111.768 83.8644 111.413L84.2059 109.824C85.0402 110.085 85.8873 110.263 86.8305 110.263C87.8826 110.263 88.0888 110.057 88.0888 109.293C88.0888 108.471 88.0505 108.374 86.5586 108.046C84.3561 107.568 84.0263 107.13 84.0263 105.159C84.0263 103.34 84.6712 102.616 87.174 102.616C87.9651 102.616 88.925 102.698 89.935 102.915L89.7308 104.64C88.6884 104.462 88.0201 104.382 87.2005 104.382C86.2828 104.382 86.0777 104.545 86.0777 105.215C86.0777 106.092 86.1179 106.104 87.5548 106.446C90.0184 107.035 90.142 107.515 90.142 109.305C90.142 111.109 89.5531 112 86.805 112Z" fill="#ED1C24"/>
<path d="M95.3527 104.573V111.863H93.2984V104.573H90.8505V102.753H97.8005V104.573H95.3527Z" fill="#ED1C24"/>
</svg>
