<svg width="178" height="66" viewBox="0 0 178 66" fill="none" xmlns="http://www.w3.org/2000/svg">
<path d="M125.616 58.0359C126.22 58.1602 126.812 58.3405 127.383 58.5746C127.94 58.8252 128.412 59.2347 128.742 59.7528C129.072 60.2709 129.246 60.8751 129.241 61.4914V61.8856C129.221 62.4042 129.082 62.911 128.837 63.3668C128.591 63.8225 128.245 64.2148 127.825 64.5133C126.897 65.1255 125.814 65.454 124.706 65.4593H124.082C123.404 65.4502 122.73 65.3441 122.081 65.144C121.382 64.9446 120.759 64.535 120.295 63.9696C119.831 63.4041 119.547 62.7094 119.482 61.9775C119.448 61.8239 119.46 61.6634 119.515 61.5162C119.57 61.3689 119.668 61.2415 119.794 61.1498C119.935 61.0645 120.098 61.0234 120.262 61.0316H120.795C120.962 61.0008 121.134 61.0008 121.302 61.0316C121.366 61.066 121.421 61.1146 121.464 61.1738C121.507 61.2329 121.536 61.3011 121.549 61.3732C121.652 61.544 121.652 61.7016 121.652 61.8462C121.831 62.3371 122.15 62.7632 122.569 63.0698C122.988 63.3764 123.488 63.5496 124.004 63.5673C125.512 63.7381 126.85 63.3177 127.123 62.1221C127.215 61.7868 127.215 61.4325 127.123 61.0973C126.928 60.4797 126.434 60.3089 125.824 60.0987C125.12 59.8685 124.358 59.6799 123.631 59.4998L123.63 59.4995L123.627 59.499C123.443 59.4533 123.261 59.4081 123.082 59.363C122.493 59.233 121.924 59.0208 121.393 58.7323C120.911 58.4528 120.515 58.0434 120.249 57.5498C119.973 56.9283 119.883 56.2387 119.989 55.5659C120.074 54.9693 120.332 54.4115 120.73 53.9629C121.573 53.0805 122.726 52.5704 123.939 52.544C125.229 52.4073 126.523 52.7532 127.578 53.5162C128.254 54.0467 128.716 54.808 128.877 55.6578C128.915 55.8176 128.915 55.9842 128.877 56.144C128.859 56.2142 128.825 56.2792 128.777 56.3339C128.73 56.3885 128.671 56.4315 128.604 56.4593C128.433 56.493 128.256 56.493 128.085 56.4593H127.526C127.097 56.433 126.85 56.3936 126.772 56.052C126.709 55.754 126.594 55.4695 126.434 55.2111C126.13 54.8484 125.738 54.5726 125.295 54.4112C124.853 54.2499 124.377 54.2085 123.914 54.2914C122.926 54.3571 121.99 54.7119 121.99 55.8549C121.99 56.998 122.874 57.3133 123.771 57.5498L125.616 58.0359Z" fill="#F39500"/>
<path fill-rule="evenodd" clip-rule="evenodd" d="M99.1853 65.3412H98.6655C98.4362 65.3548 98.2062 65.3548 97.9768 65.3412C97.3841 65.2572 96.809 65.0752 96.2746 64.8025C95.6248 64.4599 95.0481 63.9912 94.5777 63.423C94.1072 62.8549 93.7522 62.1986 93.5328 61.4915C93.2457 60.6467 93.1093 59.7569 93.13 58.8638C93.1073 57.2317 93.6758 55.6475 94.7283 54.4098C95.2676 53.8316 95.9181 53.3709 96.6399 53.0561C97.3616 52.7412 98.1394 52.5788 98.9254 52.5788C99.7115 52.5788 100.489 52.7412 101.211 53.0561C101.933 53.3709 102.583 53.8316 103.123 54.4098C103.611 54.9652 103.994 55.6065 104.253 56.3018C104.58 57.138 104.743 58.0304 104.734 58.9295C104.777 60.5424 104.257 62.1192 103.266 63.3835C102.765 63.988 102.142 64.4759 101.437 64.8138C100.733 65.1517 99.9648 65.3316 99.1853 65.3412ZM98.2497 54.4098C97.8042 54.4818 97.379 54.6492 97.0025 54.9007C96.626 55.1522 96.307 55.482 96.0667 55.8682C95.4671 56.8813 95.1819 58.0529 95.2481 59.2317C95.2666 59.8254 95.3672 60.4136 95.5469 60.9791C95.7078 61.4531 95.9449 61.897 96.2486 62.293C96.5858 62.738 97.0272 63.0911 97.5331 63.3205C98.039 63.5499 98.5934 63.6483 99.1463 63.6069C99.9459 63.566 100.707 63.2487 101.303 62.7083C101.899 62.1678 102.294 61.4368 102.421 60.6375C102.558 60.0212 102.619 59.3902 102.603 58.7587C102.602 58.1472 102.505 57.5397 102.317 56.9587C102.156 56.4847 101.919 56.0408 101.615 55.6448C101.285 55.1954 100.847 54.8388 100.342 54.6088C99.8369 54.3788 99.2822 54.2832 98.7305 54.331L98.2497 54.4098Z" fill="#F39500"/>
<path fill-rule="evenodd" clip-rule="evenodd" d="M47.7539 65.341H47.2342C47.0048 65.3552 46.7748 65.3552 46.5455 65.341C45.2208 65.1725 44.011 64.4951 43.167 63.4491C42.1423 62.1564 41.616 60.5319 41.6856 58.8768C41.6705 57.2397 42.243 55.6526 43.2969 54.4097C43.8372 53.8332 44.488 53.374 45.2097 53.0603C45.9313 52.7465 46.7086 52.5847 47.4941 52.5847C48.2796 52.5847 49.0568 52.7465 49.7785 53.0603C50.5001 53.374 51.1509 53.8332 51.6912 54.4097C52.175 54.9683 52.5577 55.6087 52.8217 56.3016C53.1354 57.1416 53.2982 58.0315 53.3025 58.9294C53.3663 60.5837 52.8406 62.2061 51.8211 63.5016C51.3125 64.0842 50.6863 64.5498 49.9847 64.8671C49.2832 65.1844 48.5225 65.346 47.7539 65.341ZM46.3895 54.4097C46.1378 54.4801 45.8972 54.5863 45.6749 54.725C45.248 55.0121 44.8814 55.3816 44.596 55.8122C44.3106 56.2428 44.112 56.7262 44.0116 57.2345C43.8628 57.849 43.7973 58.481 43.8167 59.1133C43.8014 60.2506 44.1426 61.3636 44.7912 62.2929C45.1232 62.7404 45.5618 63.0957 46.0663 63.3255C46.5707 63.5552 47.1245 63.652 47.676 63.6067C48.1981 63.5878 48.7077 63.4402 49.1606 63.1769C49.6135 62.9136 49.996 62.5425 50.2748 62.0958C50.5621 61.6485 50.773 61.1555 50.8986 60.6374C51.054 60.0196 51.1196 59.3823 51.0935 58.7454C51.1031 57.611 50.7574 56.5026 50.1059 55.579C49.7728 55.1294 49.332 54.773 48.8251 54.5431C48.3182 54.3133 47.7618 54.2176 47.2082 54.2651C46.931 54.2837 46.6566 54.3321 46.3895 54.4097Z" fill="#F39500"/>
<path d="M88.6597 53.3718C88.6392 53.5946 88.6392 53.819 88.6597 54.0418V63.7776C88.6395 64.0049 88.6395 64.2335 88.6597 64.4608C88.6853 64.5675 88.7334 64.6674 88.8007 64.7535C88.8679 64.8397 88.9528 64.9102 89.0496 64.9601C89.3024 65.0558 89.5745 65.0874 89.8422 65.052C89.9757 65.0722 90.1115 65.0722 90.245 65.052C90.4114 64.9937 90.5533 64.8801 90.6477 64.7298C90.7421 64.5795 90.7833 64.4013 90.7648 64.2243V54.2915C90.7913 53.9943 90.7913 53.6952 90.7648 53.398C90.7372 53.2815 90.6828 53.1731 90.6061 53.0818C90.5293 52.9905 90.4323 52.9188 90.323 52.8725C90.0222 52.8184 89.7142 52.8184 89.4134 52.8725C89.2506 52.858 89.0877 52.8994 88.951 52.99C88.8142 53.0806 88.7116 53.215 88.6597 53.3718Z" fill="#F39500"/>
<path d="M75.1461 59.7569C75.1763 60.4153 75.1459 61.0751 75.0551 61.7277C74.6783 64.0533 73.041 65.2095 70.5201 65.354H69.9224C68.8148 65.3619 67.7328 65.0172 66.8298 64.3686C66.4239 64.0508 66.0841 63.6551 65.8299 63.2041C65.5757 62.7532 65.4121 62.2559 65.3484 61.7409C65.2645 61.0876 65.234 60.4284 65.2575 59.7701V53.5817C65.2538 53.4807 65.2708 53.3799 65.3074 53.2858C65.344 53.1917 65.3994 53.1062 65.4701 53.0347C65.5408 52.9632 65.6254 52.9072 65.7185 52.8702C65.8115 52.8332 65.9112 52.816 66.0111 52.8197H66.5309C66.6631 52.8049 66.7968 52.8263 66.918 52.8818C67.0392 52.9373 67.1434 53.0248 67.2196 53.135C67.2997 53.2434 67.3531 53.3695 67.3755 53.5029V61.1628C67.3876 61.5097 67.4726 61.85 67.625 62.1611C67.7773 62.4722 67.9935 62.747 68.259 62.967C68.5246 63.187 68.8335 63.3473 69.1651 63.4372C69.4967 63.5271 69.8435 63.5445 70.1823 63.4883C70.7158 63.5717 71.2615 63.4721 71.7325 63.2054C72.2036 62.9387 72.5727 62.5203 72.7811 62.0168C72.9639 61.4308 73.0474 60.8178 73.028 60.2036V54.0153L73.0279 53.9339C73.0271 53.5757 73.0266 53.3562 73.184 53.1482C73.2596 53.0365 73.3632 52.9473 73.4843 52.8895C73.6053 52.8318 73.7394 52.8077 73.8727 52.8197H74.3794C74.5179 52.8208 74.6531 52.8618 74.7693 52.9379C74.8842 53.0003 74.9801 53.0932 75.0465 53.2067C75.1129 53.3202 75.1474 53.4499 75.1461 53.5817V59.7569Z" fill="#F39500"/>
<path d="M114.844 61.7017L109.945 53.6871C109.916 53.642 109.889 53.5969 109.862 53.5523C109.628 53.168 109.417 52.82 108.788 52.82H108.281C108.113 52.8069 107.943 52.8069 107.775 52.82C107.346 52.82 107.125 53.1616 107.125 53.6609V64.1061C107.106 64.3162 107.152 64.5271 107.255 64.7105C107.365 64.8641 107.527 64.9716 107.71 65.0127C107.942 65.0458 108.179 65.0458 108.411 65.0127C108.605 65.0031 108.788 64.9212 108.925 64.7827C109.061 64.6443 109.143 64.4593 109.152 64.2638V56.039L109.23 56.1178C110.368 57.9622 111.499 59.8135 112.628 61.6616L112.635 61.6744C113.064 62.3761 113.493 63.0774 113.921 63.7776C114.064 64.0273 114.233 64.2901 114.402 64.5397C114.482 64.6766 114.593 64.7922 114.727 64.8768C114.86 64.9613 115.012 65.0124 115.168 65.0258C115.367 65.0393 115.567 65.0393 115.766 65.0258C115.96 65.0467 116.156 65.0467 116.351 65.0258C116.506 64.9863 116.645 64.8995 116.75 64.7773C116.854 64.6551 116.919 64.5034 116.936 64.3426C116.949 64.1414 116.949 63.9395 116.936 63.7382V53.6871C116.944 53.5218 116.905 53.3576 116.821 53.215C116.738 53.0724 116.615 52.9579 116.468 52.8857C116.292 52.8266 116.106 52.8042 115.922 52.82C115.733 52.7844 115.539 52.7844 115.35 52.82C115.211 52.8719 115.092 52.9688 115.012 53.0959C114.893 53.4686 114.857 53.8637 114.908 54.2521V61.7674C114.96 61.82 114.869 61.7411 114.844 61.7017Z" fill="#F39500"/>
<path d="M57.6169 53.6214V63.2127H62.9835C63.1015 63.207 63.2191 63.2289 63.3273 63.2768C63.4355 63.3246 63.5313 63.3971 63.6072 63.4886C63.6871 63.6046 63.7322 63.7414 63.7372 63.8827C63.7634 64.0569 63.7634 64.2341 63.7372 64.4083C63.7092 64.5371 63.6492 64.6567 63.5628 64.7555C63.4764 64.8544 63.3664 64.9293 63.2434 64.9732C62.9072 65.0216 62.566 65.0216 62.2298 64.9732H56.9672C56.6311 65.0225 56.2897 65.0225 55.9536 64.9732C55.8297 64.9233 55.7211 64.8411 55.639 64.7349C55.5568 64.6288 55.5039 64.5024 55.4858 64.3689C55.4722 64.115 55.4722 63.8606 55.4858 63.6068V53.7659C55.4676 53.5574 55.5308 53.3498 55.6619 53.1878C55.793 53.0257 55.9817 52.922 56.1875 52.8988H56.5903C56.7199 52.8857 56.8505 52.8857 56.9802 52.8988C57.1548 52.921 57.3155 53.0065 57.4326 53.1393C57.5496 53.2722 57.6151 53.4435 57.6169 53.6214Z" fill="#F39500"/>
<path d="M85.5801 54.6723C85.727 54.6861 85.8749 54.6861 86.0219 54.6723C86.1985 54.641 86.3583 54.5471 86.4726 54.4075C86.587 54.2678 86.6483 54.0915 86.6456 53.9102C86.6456 53.2664 86.4507 52.8723 85.866 52.846H77.5886C77.3761 52.8687 77.1783 52.9664 77.0298 53.1219C76.8934 53.3017 76.8285 53.5267 76.8479 53.7526C76.8248 53.9789 76.8799 54.2064 77.0039 54.3964C77.1232 54.5583 77.3004 54.6667 77.4976 54.6986C77.7615 54.7183 78.0264 54.7183 78.2903 54.6986H80.6812V63.2781C80.6385 63.7181 80.6692 64.1623 80.7722 64.592C80.8663 64.7439 81.0082 64.8596 81.175 64.9204C81.3702 64.9925 81.5789 65.0195 81.7858 64.9993C81.9969 65.0193 82.2097 64.9923 82.4095 64.9204C82.5688 64.85 82.6978 64.7241 82.7733 64.5657C82.8432 64.3635 82.8698 64.1485 82.8513 63.935V54.6197L85.5801 54.6723Z" fill="#F39500"/>
<path d="M30.2248 61.8066C30.2318 61.7279 30.2318 61.6488 30.2248 61.5701L30.2638 61.5307V61.3336C30.2736 61.2604 30.2997 61.1904 30.3402 61.1289C30.3808 61.0675 30.4346 61.0161 30.4977 60.9789C30.6602 60.9911 30.8168 61.0453 30.9525 61.1365H31.5242C31.6963 61.1078 31.8719 61.1078 32.044 61.1365C32.1104 61.1644 32.1695 61.2073 32.2169 61.262C32.2642 61.3167 32.2984 61.3816 32.3169 61.4519C32.4208 61.5964 32.4208 61.7672 32.4208 61.9248C32.535 62.3482 32.7672 62.7294 33.0897 63.023C33.4123 63.3165 33.8116 63.51 34.24 63.5803C34.9256 63.7252 35.6335 63.7252 36.3191 63.5803C36.7751 63.5339 37.1965 63.314 37.4981 62.9652C37.7997 62.6163 37.9589 62.1646 37.9434 61.7015C37.9421 61.387 37.847 61.0802 37.6705 60.8212C37.25 60.4028 36.7082 60.1312 36.1242 60.046C35.7278 59.9266 35.3259 59.8238 34.9328 59.7233C34.7202 59.6689 34.5102 59.6152 34.305 59.5599C33.6996 59.4235 33.1047 59.2435 32.5248 59.0212C31.9652 58.8152 31.4837 58.4368 31.148 57.9395C30.8123 57.4422 30.6394 56.8509 30.6536 56.2489C30.6356 55.6 30.8073 54.9602 31.1474 54.4095C31.4777 53.9212 31.9069 53.5094 32.4064 53.2014C32.906 52.8933 33.4645 52.6961 34.0451 52.6227C34.7512 52.5111 35.4701 52.5111 36.1762 52.6227C36.8966 52.7081 37.5821 52.9838 38.1637 53.422C38.7454 53.8602 39.2027 54.4455 39.4897 55.119C39.5443 55.2643 39.5877 55.4137 39.6197 55.5657C39.673 55.7264 39.695 55.8959 39.6846 56.065C39.6772 56.1373 39.6535 56.2069 39.6152 56.2685C39.5769 56.33 39.525 56.3817 39.4637 56.4197C39.302 56.4638 39.1317 56.4638 38.9699 56.4197H38.4112C38.0084 56.4066 37.6315 56.2227 37.5796 56.0913C37.5276 55.9599 37.4626 55.7891 37.4626 55.6446C37.289 55.2325 36.9933 54.885 36.6164 54.6497C36.2394 54.4144 35.7997 54.303 35.3575 54.3307C34.6998 54.2458 34.0323 54.3697 33.4474 54.6854C33.1813 54.8471 32.9757 55.0934 32.8628 55.3859C32.75 55.6783 32.7362 56.0003 32.8237 56.3015C33.0236 57.1226 33.9443 57.3607 34.8235 57.5881C34.8586 57.5972 34.8937 57.6063 34.9287 57.6154L37.6575 58.3511C38.2113 58.4989 38.7152 58.7956 39.1155 59.2097C39.5159 59.6238 39.7979 60.1398 39.9315 60.7029C40.0858 61.3818 40.0543 62.0904 39.8406 62.7526C39.6568 63.2894 39.339 63.7691 38.918 64.1453C37.9504 64.9326 36.7423 65.3552 35.5005 65.3409H34.9027C32.3559 65.2227 30.5886 64.1321 30.2248 61.8066Z" fill="#F39500"/>
<path d="M84.8004 0.540864H84.1637C81.8858 0.521819 79.6736 1.31235 77.9134 2.77444C77.2849 3.34713 76.8004 4.06292 76.4998 4.86259C76.1993 5.66226 76.0914 6.52279 76.1852 7.37298C76.2409 8.17595 76.4874 8.95348 76.9036 9.63964C77.3198 10.3258 77.8935 10.9004 78.5761 11.3146C80.5281 12.3769 82.626 13.1385 84.8004 13.5744C85.3383 13.7136 85.8677 13.8847 86.3857 14.0869C87.1004 14.3365 87.88 14.7963 87.997 15.6504C88.0515 16.0659 87.964 16.4879 87.7489 16.8463C87.5339 17.2047 87.2042 17.4781 86.8145 17.6212C85.6562 18.0089 84.4133 18.059 83.2281 17.7657C82.7032 17.6749 82.2186 17.4234 81.8398 17.0451C81.461 16.6667 81.2062 16.1799 81.11 15.6504C81.066 15.3798 80.9439 15.1284 80.7592 14.9277C80.5405 14.7455 80.2626 14.6518 79.9795 14.665L79.8161 14.6508C79.2472 14.6013 78.6193 14.5467 77.9914 14.5467C77.6495 14.5273 77.3068 14.5273 76.9648 14.5467C76.6876 14.5597 76.4254 14.6778 76.2304 14.8775C76.0354 15.0771 75.9218 15.3436 75.9123 15.6241C75.9212 15.7833 75.9429 15.9415 75.9773 16.0971C76.1687 17.3229 76.6801 18.4749 77.4586 19.4343C78.9708 21.0353 81.0402 21.9779 83.2281 22.062C84.5286 22.1865 85.8398 22.1334 87.1264 21.9044C88.2273 21.7278 89.2906 21.3635 90.271 20.827C91.2252 20.3121 92.0194 19.5396 92.5654 18.5956C93.1113 17.6515 93.3877 16.5729 93.3636 15.4796C93.4438 14.3701 93.1738 13.2634 92.5923 12.319C92.0109 11.3746 91.148 10.6411 90.128 10.2241C89.1308 9.74049 88.0853 9.3661 87.0094 9.10729C86.5552 8.98303 86.0923 8.8721 85.6277 8.7608C84.9626 8.60142 84.2942 8.44127 83.6439 8.24013C83.1259 8.10562 82.6309 7.89302 82.1755 7.60948C81.9288 7.47652 81.731 7.26664 81.6117 7.01101C81.4923 6.75538 81.4576 6.46763 81.5128 6.1905C81.5657 5.93226 81.6813 5.69137 81.8491 5.48954C82.017 5.2877 82.2319 5.13126 82.4744 5.03429C83.0306 4.80635 83.6292 4.70324 84.2286 4.7321C84.7807 4.66035 85.3417 4.74522 85.8488 4.97724C86.3559 5.20926 86.7892 5.57928 87.1004 6.04597C87.1774 6.30848 87.2774 6.56351 87.3992 6.80802C87.4769 6.91628 87.5759 7.00716 87.6899 7.07498C87.804 7.14281 87.9306 7.18611 88.062 7.20218H91.1416C91.4457 7.22208 91.7498 7.1633 92.0252 7.03138C92.2445 6.89538 92.4099 6.68628 92.493 6.44013C92.5831 6.14481 92.5831 5.82888 92.493 5.53356C92.3061 4.74975 91.9561 4.01519 91.4664 3.37882C90.2462 1.95877 88.5639 1.02675 86.7235 0.751083C86.0891 0.629274 85.446 0.558977 84.8004 0.540864Z" fill="#004A96"/>
<path fill-rule="evenodd" clip-rule="evenodd" d="M161.999 4.15392C162.209 4.37335 162.329 4.66388 162.337 4.96852H162.298C162.332 5.23724 162.276 5.50952 162.139 5.74259C162.003 5.97565 161.794 6.15628 161.545 6.25611C161.736 6.35768 161.899 6.50576 162.019 6.68698C162.139 6.86819 162.213 7.07683 162.233 7.29406C162.26 7.70091 162.26 8.10911 162.233 8.51596C162.056 8.53095 161.878 8.53095 161.701 8.51596C161.441 8.51596 161.064 8.51596 161.064 8.38457V7.91158C161.089 7.71691 161.07 7.51908 161.009 7.33264C160.949 7.1462 160.847 6.97589 160.713 6.83421C160.414 6.70282 159.907 6.70282 159.414 6.70282V8.01669C159.414 8.05283 159.414 8.08724 159.415 8.11989C159.418 8.289 159.421 8.41047 159.323 8.47654C159.164 8.50425 159.001 8.50425 158.842 8.47654C158.808 8.47654 158.776 8.47682 158.744 8.4771C158.47 8.47945 158.274 8.48114 158.192 8.2926C158.172 8.11365 158.172 7.93287 158.192 7.75392V4.42983C158.192 4.38138 158.191 4.33335 158.19 4.28642C158.185 3.96466 158.18 3.69406 158.452 3.69406H160.44C160.717 3.66022 160.998 3.68352 161.266 3.76255C161.534 3.84159 161.784 3.97473 161.999 4.15392ZM159.836 4.6792C159.711 4.686 159.589 4.6926 159.479 4.6926H159.44C159.427 4.6926 159.466 4.71888 159.466 4.71888V5.76998C159.636 5.75273 159.829 5.76095 160.02 5.7691C160.413 5.78579 160.798 5.80222 160.973 5.59917C161.019 5.53812 161.052 5.46848 161.071 5.39432C161.09 5.32015 161.094 5.24293 161.083 5.16715C161.072 5.09136 161.046 5.01851 161.007 4.95283C160.968 4.88716 160.917 4.82996 160.856 4.78457C160.613 4.63691 160.209 4.65889 159.836 4.6792Z" fill="#004A96"/>
<path fill-rule="evenodd" clip-rule="evenodd" d="M156.269 2.49844C156.717 2.01648 157.25 1.62422 157.841 1.34224C158.538 1.01472 159.295 0.835825 160.063 0.816691C160.848 0.784611 161.63 0.93285 162.35 1.25027C162.953 1.51845 163.506 1.88709 163.988 2.34078C164.22 2.56868 164.429 2.81957 164.611 3.08968C165.257 3.98869 165.616 5.06621 165.638 6.17727C165.637 6.97336 165.459 7.75908 165.118 8.47654C164.618 9.70134 163.694 10.7006 162.519 11.2882C161.515 11.765 160.392 11.9235 159.298 11.7429C158.203 11.5623 157.188 11.0512 156.386 10.2765C155.907 9.82642 155.518 9.28651 155.242 8.68676C154.919 7.99197 154.751 7.23405 154.749 6.46633C154.728 5.67348 154.874 4.88518 155.177 4.15392C155.425 3.53208 155.796 2.96852 156.269 2.49844ZM161.573 2.43699C161.057 2.24931 160.507 2.17182 159.959 2.20939L159.427 2.22253C158.537 2.38953 157.727 2.85189 157.127 3.5364C156.752 3.93752 156.464 4.41378 156.283 4.93434C156.102 5.4549 156.031 6.00816 156.074 6.5583C156.095 7.087 156.22 7.60609 156.444 8.08463C156.667 8.56317 156.983 8.99137 157.374 9.3437C157.772 9.72044 158.243 10.0104 158.757 10.1958C159.271 10.3811 159.818 10.4578 160.362 10.4211C160.902 10.401 161.432 10.2722 161.921 10.0423C162.411 9.81236 162.85 9.48589 163.213 9.08204C163.576 8.67819 163.856 8.20509 164.036 7.69049C164.216 7.17589 164.292 6.63016 164.26 6.0853C164.209 5.01961 163.742 4.01805 162.961 3.2999C162.562 2.91848 162.09 2.62467 161.573 2.43699Z" fill="#004A96"/>
<path d="M177.411 40.6533C177.362 39.5678 176.99 38.5226 176.343 37.6551C175.696 36.7875 174.804 36.138 173.786 35.792C172.761 35.3496 171.7 34.9979 170.615 34.7409C169.487 34.5065 168.373 34.2126 167.275 33.8606C166.792 33.7122 166.348 33.4563 165.976 33.1117C165.776 32.9312 165.647 32.684 165.612 32.4153C165.578 32.1085 165.632 31.7983 165.768 31.5219C166.236 30.6285 167.548 30.3788 168.913 30.5102C169.477 30.5543 170.024 30.7296 170.511 31.0226C170.957 31.3041 171.275 31.7529 171.395 32.2708C171.425 32.3978 171.481 32.5171 171.559 32.6212C171.638 32.7252 171.736 32.8117 171.849 32.8752C172.134 33.005 172.449 33.0549 172.759 33.0197H175.826C176.114 32.9624 176.369 32.7923 176.535 32.5463C176.7 32.3003 176.763 31.9983 176.709 31.7058C176.668 31.4137 176.593 31.1272 176.488 30.8518C176.144 29.864 175.537 28.9912 174.734 28.3292C173.936 27.6429 173.007 27.1287 172.005 26.8182C170.804 26.4582 169.555 26.2854 168.302 26.3058C167.077 26.3136 165.862 26.5221 164.703 26.9233C163.712 27.2452 162.797 27.7683 162.013 28.4606C161.376 29.0206 160.881 29.7267 160.569 30.5199C160.257 31.3131 160.137 32.1702 160.22 33.0197C160.256 33.8315 160.49 34.6216 160.9 35.3205C161.311 36.0193 161.885 36.6054 162.572 37.027C164.521 38.097 166.626 38.8465 168.809 39.2474C169.354 39.386 169.892 39.5527 170.42 39.7467C171.135 40.0358 171.901 40.4562 172.057 41.2839C172.133 41.6965 172.062 42.1227 171.858 42.4878C171.653 42.8529 171.328 43.1337 170.94 43.281C170.399 43.5114 169.823 43.649 169.238 43.6883C168.585 43.7413 167.928 43.6971 167.288 43.5569C166.767 43.4642 166.284 43.2196 165.899 42.8531C165.513 42.4867 165.242 42.0143 165.118 41.4941C165.09 41.2189 164.981 40.9584 164.807 40.7452C164.71 40.6421 164.593 40.5607 164.463 40.5064C164.333 40.4521 164.193 40.426 164.053 40.4299C163.056 40.3292 162.053 40.2897 161.051 40.3117C160.774 40.3005 160.502 40.3981 160.294 40.5842C160.086 40.7702 159.957 41.0303 159.934 41.3102C159.925 41.6263 159.969 41.9417 160.064 42.243C160.292 43.2945 160.764 44.2761 161.441 45.1073C162.921 46.7448 164.98 47.7266 167.172 47.8401C168.472 47.961 169.782 47.9124 171.07 47.6956C172.13 47.5974 173.157 47.2696 174.081 46.7346C175.004 46.1995 175.803 45.4698 176.423 44.5949C176.705 44.1363 176.923 43.6413 177.073 43.1233C177.247 42.5208 177.343 41.8982 177.359 41.2708V40.719C177.359 40.719 177.411 40.6795 177.411 40.6533Z" fill="#004A96"/>
<path fill-rule="evenodd" clip-rule="evenodd" d="M147.615 39.7467C148.381 39.6972 149.151 39.7547 149.902 39.9175C152.137 40.6007 152.267 43.2284 152.267 46.1846C152.239 46.3719 152.239 46.5624 152.267 46.7496C152.31 46.8951 152.387 47.0281 152.491 47.1377C152.594 47.2474 152.723 47.3305 152.865 47.3803C153.165 47.4349 153.469 47.4613 153.774 47.4591H157.101C157.144 47.4575 157.188 47.4469 157.227 47.428C157.267 47.4091 157.302 47.3822 157.332 47.3491C157.361 47.3159 157.383 47.2772 157.397 47.2351C157.411 47.193 157.416 47.1486 157.413 47.1044V45.5934C157.413 44.9885 157.37 44.3691 157.327 43.7556C157.299 43.3565 157.272 42.9599 157.257 42.5715C157.239 42.1248 157.16 41.6826 157.023 41.2576C156.856 40.5457 156.547 39.876 156.113 39.2905C155.679 38.705 155.131 38.2163 154.502 37.8547L154.307 37.7496C154.19 37.6839 154.307 37.6445 154.424 37.6182C155.219 37.2774 155.906 36.7231 156.412 36.0153C157.004 35.1965 157.359 34.2277 157.439 33.2168C157.574 32.1084 157.398 30.9838 156.932 29.9715C156.508 29.1531 155.881 28.4604 155.113 27.9613C153.769 27.1379 152.227 26.7059 150.656 26.7131H142.118C141.802 26.6934 141.486 26.6934 141.17 26.7131C140.887 26.7256 140.614 26.8203 140.384 26.9858C140.153 27.1513 139.975 27.3805 139.87 27.646C139.783 27.9754 139.752 28.3176 139.779 28.6576V44.9627C139.752 45.3214 139.752 45.6815 139.779 46.0401C139.816 46.312 139.931 46.5672 140.108 46.7747C140.286 46.9822 140.519 47.1333 140.78 47.2095C140.981 47.2649 142.088 47.2424 142.985 47.2241C143.364 47.2164 143.705 47.2095 143.924 47.2095C144.223 47.2357 144.521 47.1568 144.769 46.9861C144.876 46.8939 144.962 46.779 145.02 46.6496C145.079 46.5202 145.108 46.3794 145.107 46.2372V39.6679L147.615 39.7467ZM145.172 30.9438H149.798C150.408 30.9807 150.993 31.2053 151.474 31.5876C151.704 31.7946 151.883 32.0535 151.996 32.3434C152.109 32.6333 152.153 32.946 152.124 33.2562C152.146 33.5707 152.1 33.8862 151.989 34.181C151.879 34.4759 151.707 34.743 151.484 34.9641C151.262 35.1851 150.995 35.3548 150.702 35.4614C150.408 35.568 150.096 35.6091 149.785 35.5817H145.159V30.97L145.172 30.9438Z" fill="#004A96"/>
<path d="M135.296 30.9436H134.789L125.355 30.9567V34.5699H132.151C132.586 34.5243 133.025 34.5509 133.451 34.6487C133.607 34.7046 133.749 34.7966 133.864 34.9175C133.979 35.0384 134.064 35.1848 134.114 35.3451C134.197 35.7776 134.219 36.2201 134.179 36.6589C134.214 37.0979 134.192 37.5397 134.114 37.9728C134.06 38.133 133.972 38.2789 133.855 38.3995C133.738 38.5201 133.595 38.6123 133.438 38.6692C133.012 38.766 132.573 38.7926 132.138 38.748H125.355V42.6896H134.776C135.107 42.6614 135.44 42.6835 135.764 42.7553C136.007 42.8403 136.213 43.0073 136.349 43.2283C136.488 43.5038 136.546 43.8137 136.517 44.1217V45.1991C136.558 45.5351 136.558 45.8748 136.517 46.2108C136.463 46.4721 136.334 46.7119 136.147 46.9008C135.961 47.0897 135.723 47.2197 135.465 47.275C135.128 47.3097 134.788 47.3097 134.451 47.275H121.847C121.438 47.2952 121.035 47.1654 120.713 46.9096C120.391 46.6538 120.17 46.289 120.093 45.8823C120.032 45.5355 120.006 45.1833 120.015 44.8312V28.8414C119.994 28.5145 120.025 28.1863 120.106 27.8692C120.185 27.618 120.318 27.3876 120.495 27.1945C120.673 27.0014 120.89 26.8504 121.132 26.7524C121.431 26.6601 121.743 26.6201 122.055 26.6341H134.724C135 26.6115 135.276 26.6672 135.521 26.7949C135.767 26.9226 135.973 27.1172 136.115 27.3567C136.258 27.6268 136.325 27.9311 136.31 28.237V29.3013C136.335 29.6291 136.3 29.9589 136.206 30.2735C136.125 30.4558 135.999 30.6136 135.839 30.7311C135.68 30.8487 135.492 30.922 135.296 30.9436Z" fill="#004A96"/>
<path fill-rule="evenodd" clip-rule="evenodd" d="M98.7563 27.6721C98.6305 28.0163 98.5774 28.3833 98.6004 28.7495V44.8181C98.5768 45.2053 98.603 45.5939 98.6784 45.9743C98.7551 46.2818 98.9189 46.5599 99.1497 46.7746C99.3806 46.9894 99.6684 47.1313 99.9778 47.183C100.498 47.2881 107.683 47.2619 108.45 47.183C110.421 47.1161 112.327 46.4524 113.921 45.2779C114.889 44.4927 115.689 43.5153 116.27 42.4058C116.851 41.2963 117.201 40.0783 117.299 38.8268C117.483 37.2964 117.443 35.7471 117.182 34.2283C117.008 33.0071 116.579 31.8371 115.925 30.7954C115.271 29.7537 114.407 28.8639 113.388 28.1845C111.655 27.1077 109.652 26.5602 107.618 26.6078H100.264C99.9384 26.6223 99.624 26.7301 99.3571 26.9185C99.0902 27.107 98.8818 27.3683 98.7563 27.6721ZM103.967 31.2589V42.5319C104.361 42.5319 104.755 42.5424 105.144 42.5528H105.146C105.911 42.5731 106.657 42.5929 107.346 42.5319C108.285 42.4822 109.203 42.2267 110.035 41.783C111.491 40.9027 112.088 39.221 112.088 36.8954C112.088 33.3743 110.516 31.548 107.346 31.2589C106.649 31.2155 105.907 31.2295 105.142 31.244C104.756 31.2513 104.363 31.2588 103.967 31.2589V31.1801C103.93 31.2449 103.913 31.2575 103.911 31.2593C103.911 31.2593 103.912 31.2589 103.915 31.2589L103.967 31.2589Z" fill="#004A96"/>
<path d="M87.6723 27.9875C87.7134 28.3762 87.7134 28.7682 87.6723 29.1569V42.7423H94.6373C94.8881 42.7217 95.1401 42.7217 95.3909 42.7423C95.5834 42.7665 95.7659 42.8427 95.9191 42.963C96.0723 43.0832 96.1906 43.243 96.2616 43.4255C96.3305 43.6506 96.357 43.8868 96.3395 44.1218C96.4124 44.8468 96.3685 45.5789 96.2096 46.2897C96.0965 46.5578 95.918 46.7925 95.6907 46.9717C95.4634 47.151 95.1948 47.2689 94.9101 47.3145C94.6637 47.3357 94.4159 47.3357 94.1695 47.3145H83.3972C83.2022 47.3001 83.015 47.231 82.8566 47.1149C82.6982 46.9989 82.575 46.8405 82.5006 46.6576C82.3778 46.1866 82.3382 45.6973 82.3837 45.2123V28.7496C82.3635 28.5004 82.3635 28.2499 82.3837 28.0007C82.4597 27.6167 82.661 27.2697 82.9554 27.0153C83.2696 26.7503 83.6639 26.602 84.0729 26.5948H85.3724C85.751 26.5715 86.131 26.598 86.5029 26.6737C86.795 26.769 87.0571 26.9407 87.2625 27.1714C87.4679 27.4022 87.6093 27.6837 87.6723 27.9875Z" fill="#004A96"/>
<path d="M73.2228 27.1075C72.9243 27.3874 72.7313 27.7637 72.6771 28.1717V44.398C72.622 44.9176 72.622 45.4418 72.6771 45.9615C72.7794 46.3501 73.0141 46.6897 73.3398 46.9206C73.7202 47.1844 74.1799 47.3052 74.6392 47.2622H76.2375C76.6655 47.2693 77.0797 47.1093 77.394 46.8155C77.6971 46.5391 77.891 46.161 77.9398 45.7512C77.9593 45.4888 77.9593 45.2253 77.9398 44.9629V29.525C77.9949 29.0053 77.9949 28.4811 77.9398 27.9615C77.8537 27.5655 77.6213 27.2177 77.29 26.9892C76.9121 26.7201 76.4504 26.5987 75.9906 26.6476H74.3793C73.9513 26.6531 73.5399 26.8166 73.2228 27.1075Z" fill="#004A96"/>
<path d="M50.7659 27.8499C50.8418 27.6242 50.9619 27.4162 51.1191 27.2385C51.2671 27.0724 51.4473 26.9388 51.6485 26.8461C51.8497 26.7535 52.0676 26.7037 52.2886 26.6998H54.8875C55.1107 26.6928 55.3307 26.7543 55.5186 26.8762C55.7065 26.9982 55.8534 27.1749 55.94 27.383C56.0142 27.6252 56.045 27.8788 56.031 28.1319V36.7246C55.9712 37.8581 55.9712 38.994 56.031 40.1275C56.0508 40.5725 56.1628 41.0082 56.3598 41.4066C56.5568 41.8049 56.8343 42.157 57.1745 42.4399C58.0104 42.958 58.9948 43.1756 59.9682 43.0575C60.4158 43.0634 60.8594 42.9728 61.2695 42.7915C61.6795 42.6103 62.0466 42.3426 62.3462 42.0064C62.8776 41.2134 63.146 40.2702 63.1129 39.3129V28.9202C63.0503 28.3753 63.0855 27.8234 63.2168 27.291C63.3087 27.087 63.4599 26.9161 63.6502 26.8011C63.8406 26.6861 64.0611 26.6324 64.2823 26.6472H66.8812C67.1948 26.6979 67.488 26.837 67.727 27.0485C67.9661 27.2599 68.1413 27.5353 68.2326 27.8429C68.3638 28.3662 68.4034 28.9087 68.3495 29.4458V39.7465C68.351 41.6329 67.7645 43.4719 66.6733 45.002C65.1659 46.9202 62.5411 47.8137 59.0716 47.7086C58.0514 47.6863 57.0365 47.5542 56.044 47.3144C54.3796 46.9443 52.9218 45.9365 51.9768 44.5027C51.0382 42.8095 50.588 40.884 50.6773 38.945V28.5524C50.6599 28.3146 50.69 28.0757 50.7659 27.8499Z" fill="#004A96"/>
<path fill-rule="evenodd" clip-rule="evenodd" d="M47.2992 33.4927C47.5471 32.8308 47.6534 32.1232 47.6111 31.4167C47.5831 30.7339 47.4196 30.0637 47.1303 29.4459C46.6489 28.6711 45.9877 28.0268 45.2042 27.5689C44.4207 27.111 43.5386 26.8533 42.6343 26.8182C41.8717 26.7191 41.1031 26.6752 40.3343 26.6868H32.5377C32.1579 26.666 31.7819 26.7735 31.4691 26.9923C31.1562 27.2111 30.9242 27.5288 30.8095 27.8956C30.7287 28.1859 30.6979 28.4881 30.7185 28.789V45.4883C30.7126 45.7665 30.7751 46.0419 30.9004 46.2897C31.0121 46.5039 31.1651 46.6933 31.3503 46.8468C31.5355 47.0002 31.7493 47.1146 31.979 47.1832C32.2768 47.218 32.5777 47.218 32.8756 47.1832H39.6976C40.9198 47.221 42.1428 47.1374 43.3489 46.9335C44.3214 46.819 45.2494 46.4579 46.0468 45.8836C46.8441 45.3094 47.4851 44.5406 47.9099 43.6489C48.3516 42.5873 48.53 41.4326 48.4297 40.2854C48.3477 39.2999 47.9704 38.3633 47.3481 37.6003C46.7259 36.8374 45.8884 36.2844 44.9472 36.0153C46.0034 35.4845 46.8374 34.59 47.2992 33.4927ZM40.1524 30.7598C41.4518 30.7598 42.3094 31.4299 42.3094 32.7438C42.3247 33.0191 42.2764 33.2944 42.1681 33.5475C42.0598 33.8007 41.8946 34.0248 41.6857 34.2022C41.2459 34.5515 40.6984 34.7329 40.1394 34.7146H36.0202V30.7598H40.1524ZM36.0332 38.1832H40.7631C42.2055 38.3146 43.1151 38.9846 43.154 40.5481C43.193 42.1116 42.1795 42.7686 40.7501 42.8868H36.0202V38.2357C36.0202 38.2357 36.0202 38.2094 36.0332 38.2094V38.1832Z" fill="#004A96"/>
<path d="M16.2425 27.0943C16.6076 27.3784 16.9468 27.695 17.2561 28.0403L24.065 34.9512C24.4148 35.2688 24.6863 35.6648 24.8577 36.1074C25.037 36.6488 25.037 37.2346 24.8577 37.776C24.6898 38.2205 24.4178 38.6173 24.065 38.9322C22.6338 40.3722 21.3747 41.6614 20.1071 42.9593L20.1052 42.9612L20.1043 42.9621C19.0367 44.0553 17.963 45.1547 16.7753 46.3556C16.4526 46.7053 16.0578 46.9789 15.6188 47.157C15.0763 47.3214 14.498 47.3214 13.9555 47.157C13.4906 47.0098 13.0759 46.7335 12.7588 46.3594C12.4417 45.9854 12.235 45.5288 12.1623 45.0417C12.0831 44.4832 12.1785 43.9135 12.4352 43.4125C12.6801 43.0224 12.9774 42.6686 13.3188 42.3614L18.6464 36.9351C18.6464 36.9268 18.0793 36.3583 17.2936 35.5706C15.6043 33.8771 12.9044 31.1706 12.6561 30.8388C12.2554 30.3013 12.074 29.6287 12.1493 28.96C12.2259 28.319 12.5332 27.729 13.0125 27.3025C13.4918 26.876 14.1097 26.6429 14.7482 26.6476C15.2797 26.6384 15.8013 26.7943 16.2425 27.0943Z" fill="#004A96"/>
<path d="M5.71741 28.0401C5.41588 27.6919 5.08069 27.375 4.71685 27.0941C4.27201 26.7916 3.74551 26.6355 3.20952 26.6474C2.57104 26.6427 1.9532 26.8759 1.47387 27.3024C0.994544 27.7289 0.687269 28.3189 0.610666 28.9598C0.535364 29.6286 0.71676 30.3011 1.11744 30.8386C1.36575 31.1704 4.06522 33.8766 5.75452 35.57C6.54045 36.3579 7.1078 36.9267 7.1078 36.935L1.79314 42.3613C1.4518 42.6685 1.15441 43.0223 0.909534 43.4124C0.64391 43.9105 0.539388 44.4803 0.610666 45.0416C0.685505 45.5318 0.896065 45.9907 1.218 46.365C1.53993 46.7393 1.96008 47.0139 2.42986 47.1569C2.97237 47.3212 3.55062 47.3212 4.09313 47.1569C4.53213 46.9788 4.92697 46.7052 5.24962 46.3554C6.43756 45.1543 7.51147 44.0547 8.57932 42.9614C9.84743 41.6629 11.1075 40.3727 12.5394 38.9321C12.8922 38.6171 13.1642 38.2204 13.3321 37.7759C13.5113 37.2344 13.5113 36.6487 13.3321 36.1073C13.1606 35.6646 12.8892 35.2687 12.5394 34.9511L5.71741 28.0401Z" fill="#004A96"/>
<path fill-rule="evenodd" clip-rule="evenodd" d="M141.469 14.1133C142.249 14.0579 143.034 14.1244 143.795 14.3103C145.679 14.9541 146.056 17.0695 146.056 19.5658V20.8797C146.075 21.1271 146.187 21.358 146.367 21.5261C146.548 21.6941 146.785 21.7871 147.03 21.7863H150.799C151.02 21.7863 151.162 21.7863 151.227 21.576C151.266 21.3324 151.266 21.0839 151.227 20.8403C151.227 20.2917 151.191 19.7615 151.155 19.2456C151.139 19.0079 151.123 18.7731 151.11 18.541C151.11 18.0155 151.11 17.503 151.033 17.0038C151.016 16.5331 150.946 16.0658 150.825 15.6111C150.667 14.8665 150.353 14.1646 149.905 13.5528C149.457 12.9409 148.884 12.4331 148.226 12.0636C148.226 12.0636 148.096 12.0636 148.109 11.9717C148.118 11.9039 148.177 11.9003 148.218 11.8979C148.233 11.897 148.245 11.8963 148.252 11.8928C149.052 11.5616 149.748 11.0167 150.266 10.3162C150.853 9.49012 151.208 8.51838 151.292 7.50451C151.425 6.39484 151.245 5.26979 150.773 4.25926C150.297 3.41607 149.629 2.69974 148.824 2.16965C148.02 1.63955 147.102 1.31095 146.147 1.21108C144.951 1.03335 143.742 0.967374 142.534 1.014H134.92C134.631 1.02452 134.353 1.12302 134.121 1.29656C133.889 1.47009 133.714 1.71053 133.62 1.98626C133.545 2.31328 133.519 2.64989 133.542 2.9848V19.3293C133.522 19.7013 133.522 20.0741 133.542 20.4461C133.575 20.7118 133.687 20.9612 133.863 21.1608C134.04 21.3604 134.272 21.5007 134.53 21.5629C135.582 21.62 136.636 21.62 137.687 21.5629C137.852 21.5775 138.017 21.5775 138.181 21.5629C138.382 21.5039 138.558 21.3813 138.684 21.2134C138.81 21.0455 138.88 20.841 138.883 20.6301V14.0607L141.469 14.1133ZM138.974 5.31035H143.6C144.899 5.4286 145.939 6.12495 145.926 7.6359C145.951 7.95409 145.906 8.27401 145.794 8.57251C145.682 8.87102 145.506 9.14066 145.279 9.36194C145.051 9.58323 144.778 9.75062 144.479 9.85203C144.179 9.95343 143.861 9.98632 143.548 9.94831H138.935V5.33663C138.935 5.33663 138.961 5.31035 138.974 5.31035Z" fill="#004A96"/>
<path d="M129.267 5.3102H128.773L119.313 5.34961V8.96275H126.083C126.518 8.91667 126.957 8.94331 127.383 9.04158C127.542 9.09254 127.686 9.18295 127.802 9.30458C127.918 9.4262 128.001 9.57518 128.046 9.73794C128.129 10.1705 128.151 10.613 128.111 11.0518C128.153 11.4906 128.131 11.9333 128.046 12.3657C127.996 12.5206 127.912 12.6618 127.799 12.7781C127.686 12.8944 127.548 12.9826 127.396 13.0357C126.97 13.1322 126.531 13.1588 126.096 13.1146H119.313V17.0562H128.799C129.126 17.0285 129.454 17.0506 129.774 17.1219C130.023 17.2022 130.235 17.37 130.372 17.5949C130.507 17.8761 130.561 18.1904 130.528 18.5014V19.5657C130.561 19.9064 130.561 20.2497 130.528 20.5905C130.467 20.8498 130.334 21.0863 130.146 21.2724C129.957 21.4585 129.72 21.5865 129.462 21.6416C129.129 21.676 128.794 21.676 128.461 21.6416H115.818C115.409 21.659 115.008 21.5282 114.686 21.2729C114.365 21.0175 114.144 20.6544 114.064 20.2489C114.009 19.9013 113.983 19.5497 113.986 19.1978V3.20801C113.965 2.88109 113.996 2.5529 114.077 2.23575C114.154 1.98524 114.287 1.75576 114.465 1.56459C114.642 1.37341 114.861 1.22554 115.103 1.1321C115.4 1.02854 115.713 0.983923 116.026 1.00071H128.695C128.974 0.978413 129.253 1.03554 129.501 1.16559C129.749 1.29565 129.956 1.49343 130.099 1.73647C130.233 2.00471 130.295 2.30352 130.281 2.60363V3.66786C130.309 3.99484 130.278 4.32424 130.19 4.64012C130.107 4.82341 129.978 4.98165 129.817 5.09919C129.655 5.21672 129.465 5.28946 129.267 5.3102Z" fill="#004A96"/>
<path d="M110.62 5.62551C110.821 5.58718 111.012 5.50653 111.18 5.38882C111.348 5.27111 111.489 5.11897 111.595 4.94229C111.712 4.7523 111.779 4.53521 111.79 4.31164V2.65616C111.772 2.33667 111.667 2.02849 111.485 1.76623C111.304 1.50397 111.054 1.29801 110.763 1.17149C110.281 1.01662 109.773 0.962964 109.269 1.01383H96.0668C95.6618 1.00961 95.2682 1.14938 94.9547 1.40873C94.6412 1.66808 94.4277 2.03054 94.3516 2.43281C94.3055 2.93976 94.3055 3.44993 94.3516 3.95689C94.3409 4.19605 94.3672 4.43543 94.4296 4.66638C94.5238 4.94211 94.6984 5.18255 94.9303 5.35609C95.1622 5.52962 95.4406 5.62812 95.729 5.63865H100.381V19.6445C100.346 19.9531 100.391 20.2658 100.512 20.5515C100.632 20.8372 100.825 21.0861 101.07 21.2737C101.336 21.452 101.647 21.5521 101.966 21.5627C102.351 21.5907 102.738 21.5907 103.123 21.5627C103.499 21.5842 103.877 21.5842 104.253 21.5627C104.534 21.521 104.8 21.4089 105.027 21.2368C105.254 21.0648 105.434 20.838 105.553 20.5773C105.69 20.2685 105.748 19.9295 105.722 19.5919V5.59923C107.164 5.62551 110.387 5.66492 110.62 5.62551Z" fill="#004A96"/>
<path fill-rule="evenodd" clip-rule="evenodd" d="M68.2716 17.9234C68.4229 17.9099 68.5751 17.9099 68.7264 17.9234V18.0022C68.8433 18.3175 68.9505 18.646 69.0577 18.9745C69.1649 19.3029 69.2721 19.6314 69.3891 19.9467L69.7009 20.919C69.7464 21.0746 69.8297 21.2163 69.9432 21.331C70.0566 21.4457 70.1967 21.5299 70.3506 21.5759C70.8387 21.6295 71.331 21.6295 71.819 21.5759H73.1184C73.4522 21.6129 73.79 21.5725 74.106 21.4577C74.2659 21.3952 74.4121 21.3014 74.536 21.1816C74.6599 21.0618 74.7592 20.9184 74.828 20.7596C74.8969 20.6008 74.934 20.4298 74.9372 20.2565C74.9404 20.0832 74.9096 19.9109 74.8467 19.7496C74.5088 18.7774 68.4925 2.57738 68.2456 1.99928C68.089 1.6097 67.7917 1.29497 67.4139 1.11899C67.0527 0.984879 66.6671 0.931102 66.2834 0.961323C65.2388 0.913915 64.192 0.944655 63.1518 1.05329C62.7342 1.18578 62.3845 1.47813 62.1773 1.86789C62.0993 2.01242 57.1745 15.4007 55.6801 19.5C55.5431 19.8228 55.5024 20.179 55.5632 20.5248C55.6266 20.8236 55.791 21.0908 56.0282 21.2802C56.2654 21.4697 56.5604 21.5696 56.8626 21.5628H59.8383C59.9869 21.5326 60.1255 21.4648 60.2411 21.3657C60.4517 21.1468 60.5998 20.8744 60.6699 20.5774C60.9818 19.6577 61.2936 18.8037 61.6055 17.9496L68.2716 17.9234ZM65.1919 6.72921C65.1919 6.72921 66.7772 11.6299 67.4919 13.9423H62.8659C63.1633 13.0253 63.4569 12.1044 63.7503 11.1841C64.2262 9.69148 64.7016 8.20029 65.1919 6.72921Z" fill="#004A96"/>
<path d="M48.4687 20.5247V18.4356C48.4687 17.7384 48.4691 17.0428 48.4694 16.348C48.4712 12.8789 48.473 9.43261 48.4297 5.94071V6.04582C47.663 8.87064 45.1162 18.1597 44.6224 19.9466C44.5508 20.3075 44.4419 20.6598 44.2975 20.9976C44.2196 21.1516 44.1053 21.2836 43.9647 21.3822C43.8242 21.4807 43.6618 21.5427 43.4919 21.5626C42.5237 21.6412 41.5516 21.6588 40.5812 21.6152C40.4152 21.5882 40.2576 21.5233 40.1202 21.4254C39.9829 21.3274 39.8694 21.1991 39.7885 21.0502C39.7167 20.885 39.6602 20.7135 39.6196 20.5378C38.9699 18.1334 38.3202 15.7225 37.6705 13.3115C37.0207 10.9006 36.371 8.48962 35.7213 6.08524V19.4079C35.7548 19.8452 35.7548 20.2844 35.7213 20.7217C35.6743 20.9826 35.5349 21.2171 35.3292 21.3816C35.1235 21.546 34.8657 21.629 34.6038 21.6152H32.6157C32.2704 21.6413 31.9253 21.5627 31.6244 21.3895C31.3235 21.2164 31.0805 20.9564 30.9264 20.6429C30.7786 20.2722 30.7164 19.8723 30.7445 19.4736V3.36553C30.7153 2.95365 30.7593 2.53981 30.8745 2.14363C31.0036 1.82346 31.2224 1.54842 31.504 1.35234C31.7857 1.15626 32.1179 1.04769 32.4598 1.03998H36.7998C37.1603 1.07334 37.508 1.19177 37.8149 1.38573C38.1218 1.5797 38.3795 1.84379 38.5671 2.15677C38.7652 2.48331 38.9018 2.84415 38.9699 3.22101C39.3987 4.79279 40.0596 7.25614 40.661 9.4977C41.3716 12.1466 41.9992 14.4858 42.0625 14.6779C42.1795 14.8225 42.1795 14.6385 42.1795 14.5466C42.3068 14.0497 42.5056 13.2752 42.7416 12.3558C43.5415 9.23936 44.7691 4.45692 45.0902 3.16845C45.2083 2.66116 45.4495 2.19157 45.7919 1.80203C46.1376 1.42459 46.5924 1.16711 47.0913 1.06626C48.7707 0.974137 50.4537 0.974137 52.1331 1.06626C52.3862 1.12338 52.6222 1.24046 52.8218 1.40787C53.0332 1.57572 53.2023 1.79181 53.3152 2.03845C53.4281 2.28509 53.4817 2.55526 53.4715 2.82685V19.4604C53.4916 19.7786 53.4609 20.0981 53.3805 20.4064C53.3039 20.6481 53.1758 20.8699 53.0051 21.056C52.8345 21.2422 52.6255 21.3882 52.393 21.4838C51.4231 21.649 50.4368 21.6932 49.4563 21.6152C49.1885 21.5864 48.9403 21.4597 48.7584 21.2588C48.5766 21.058 48.4735 20.7969 48.4687 20.5247Z" fill="#004A96"/>
</svg>
