<svg width="144" height="46" viewBox="0 0 144 46" fill="none" xmlns="http://www.w3.org/2000/svg">
<path d="M143.2 43.4162C143.2 44.507 142.322 45.4001 141.249 45.4001H2.75061C1.67807 45.4001 0.799805 44.5078 0.799805 43.4162V2.58395C0.799805 1.49242 1.67807 0.600098 2.75061 0.600098H141.249C142.322 0.600098 143.2 1.49242 143.2 2.58395V43.4162Z" fill="black"/>
<path d="M78.9145 17.6275C78.9145 14.8336 77.1534 13.6769 73.3448 13.6769H64.8708C58.0147 13.6769 56.3485 14.5925 56.3485 20.5672V25.4333C56.3485 30.9266 58.6816 32.0344 64.8708 32.0344H71.0125C76.8678 32.0344 79.2009 31.4088 79.2009 27.2163V26.8302H89.9123L89.9279 27.1277C89.9698 27.9258 90.0081 28.6549 90.0081 29.3846C90.0081 33.7205 89.0089 36.6121 86.5334 38.4432C83.9147 40.4185 79.7721 40.8038 73.7253 40.8038H61.9182C56.4434 40.8038 52.5874 40.5635 49.5881 38.2021C46.6838 35.8896 45.5889 32.7096 45.5889 27.9388V18.3989C45.5889 7.89449 50.1119 4.90674 61.9182 4.90674H73.7245C79.7713 4.90674 83.8656 5.1959 86.3894 7.17117C88.6267 8.90533 89.5793 11.797 89.5793 15.9886C89.5793 16.615 89.5793 17.2895 89.5318 17.9639H78.9145V17.6275Z" fill="white"/>
<path d="M37.581 37.9132C35.2005 40.2265 31.6775 40.7559 26.4883 40.7559H19.1093C8.77841 40.7559 5.49355 38.2984 5.49355 29.8182V25.1924H15.3964C15.3964 25.4159 15.3838 25.6393 15.3716 25.856C15.3601 26.0601 15.3489 26.2583 15.3489 26.4452C15.3489 30.6857 16.3964 32.0338 20.5381 32.0338H25.2992C29.1078 32.0338 29.774 30.5888 29.774 27.0707V5.34111H40.3421V30.4926C40.3421 33.5285 39.2472 36.2751 37.581 37.9132Z" fill="white"/>
<path fill-rule="evenodd" clip-rule="evenodd" d="M94.5709 5.34111V40.3714H127.374C135.039 40.3714 138.467 37.6248 138.467 30.8796C138.467 25.8677 136.563 23.266 132.183 22.5435C135.659 21.1938 137.276 18.8813 137.276 15.123C137.276 8.5211 133.515 5.34111 125.755 5.34111H94.5709ZM123.707 13.195C125.326 13.195 126.421 14.3516 126.421 16.0858C126.421 17.9649 125.469 18.9774 123.707 18.9766H105.141V13.195H123.707ZM124.66 26.1079C126.42 26.1079 127.563 27.3135 127.563 29.1918C127.563 31.264 126.516 32.4207 124.66 32.4207H105.141V26.1079H124.66Z" fill="white"/>
<path d="M19.6925 5.34339H5.46544V19.7429H19.6925V5.34339Z" fill="#F8B004"/>
<path fill-rule="evenodd" clip-rule="evenodd" d="M15.8616 12.5409C15.8616 12.5409 16.0957 12.5319 16.1617 12.5279C16.2285 12.5238 16.3532 12.5165 16.4288 12.6655C16.4481 12.7038 16.5664 13.0704 16.5817 13.1135C16.5961 13.1567 16.6307 13.3554 16.4755 13.3905C16.4473 13.397 16.1722 13.4507 16.1722 13.4507L15.8616 12.5409ZM15.3331 10.8548C15.3331 10.8548 15.6364 10.8776 15.7112 10.8833C15.786 10.8898 15.8383 10.924 15.8681 10.99C15.8866 11.0315 16.0008 11.3688 16.0137 11.4054C16.0265 11.4421 16.0845 11.6449 15.9163 11.649C15.8906 11.6498 15.5889 11.649 15.5889 11.649L15.3331 10.8548ZM14.2646 9.88955C14.2646 9.88955 15.5382 10.0745 15.6573 10.094C16.1883 10.1795 16.4183 10.6129 16.4835 10.8157C16.5052 10.8825 16.6525 11.3533 16.6718 11.4054C16.8166 11.8021 16.4497 12.0074 16.4497 12.0074C16.4497 12.0074 16.8689 12.0848 17.0105 12.426C17.0105 12.426 17.276 13.2113 17.3017 13.2911C17.3275 13.3709 17.5173 13.9981 16.8713 14.2278C16.7852 14.2588 15.7458 14.539 15.7458 14.539L14.2646 9.88955Z" fill="black"/>
<path d="M9.11246 9.10746L11.1994 9.42431L11.5365 10.5745L11.0497 10.5321C11.0497 10.5321 12.2493 14.4215 12.2903 14.5421C12.4408 14.9803 12.5325 15.434 11.876 15.6531C11.7899 15.6817 11.1793 15.86 11.1045 15.878C10.7255 15.9676 10.2428 15.97 10.0562 15.3729L9.29348 12.9684L10.2307 12.9016C10.2307 12.9016 10.6177 14.1365 10.6483 14.2277C10.7336 14.4859 10.7867 14.5845 11.053 14.5226C11.2485 14.4769 11.2404 14.3971 11.1897 14.2261C11.168 14.1544 10.0393 10.4523 10.0393 10.4523L9.50587 10.4115L9.11246 9.10746Z" fill="black"/>
<path d="M12.2246 9.56518C12.3155 9.57984 12.9864 9.68736 13.0999 9.70609C13.2133 9.72483 13.8376 9.82827 14.0034 10.4107C14.0444 10.554 14.3734 11.5787 14.3734 11.5787L13.581 11.5714C13.581 11.5714 13.4338 11.0762 13.4024 10.9906C13.326 10.7821 13.3211 10.7283 13.083 10.6925C12.8424 10.6648 12.8553 10.7666 12.9084 10.9385C12.9358 11.0273 13.6566 13.4424 13.6888 13.5467C13.7733 13.8212 13.795 13.9303 14.0492 13.8798C14.2697 13.8277 14.2278 13.7088 14.1715 13.5059C14.1522 13.4375 13.9261 12.7142 13.9261 12.7142L14.7129 12.6547C14.7129 12.6547 15.1144 13.9377 15.1353 13.9979C15.1562 14.0582 15.3244 14.5779 14.8481 14.8011C14.787 14.8296 14.787 14.8345 14.7234 14.8556C14.6598 14.8768 14.0227 15.0577 13.9615 15.0739C13.9012 15.0911 13.2938 15.2792 13.0967 14.6732C13.0774 14.6154 11.7941 10.3577 11.7258 10.15C11.6107 9.79651 11.7338 9.49431 12.2246 9.56518Z" fill="black"/>
<path fill-rule="evenodd" clip-rule="evenodd" d="M8.2695 8.43713C8.6613 8.5023 15.4651 9.62396 15.7676 9.67446C16.0701 9.72578 16.5778 9.79827 16.791 10.4385C16.832 10.5631 17.7556 13.3587 17.7926 13.48C17.8296 13.6014 18.0983 14.24 17.3396 14.4778C17.227 14.5137 10.8303 16.5337 10.675 16.581C10.5197 16.6282 9.91554 16.8848 9.66694 16.001C9.66694 16.001 7.71357 9.73555 7.62427 9.4529C7.55106 9.2232 7.49877 9.0383 7.4875 8.89575C7.44889 8.38012 7.76426 8.36382 8.02251 8.39885C8.11986 8.4127 8.20755 8.42736 8.2695 8.43713ZM8.0917 8.08688C8.26387 8.11294 15.6928 9.35434 15.8819 9.3853C16.0733 9.41706 16.8038 9.49607 17.0967 10.3408C17.153 10.5029 18.0774 13.3179 18.1216 13.458C18.285 13.9785 18.215 14.5218 17.5376 14.7507C17.3139 14.8265 10.9397 16.875 10.8608 16.9003C10.6855 16.9573 9.749 17.3776 9.40869 16.2812C9.40869 16.2812 7.3451 9.71356 7.28396 9.51481C7.18903 9.20691 7.12869 8.94544 7.12869 8.75239C7.12869 7.89953 7.92677 8.06977 8.0917 8.08688Z" fill="black"/>
</svg>
