<?xml version="1.0" encoding="UTF-8"?>
<!DOCTYPE svg PUBLIC "-//W3C//DTD SVG 1.1//EN" "http://www.w3.org/Graphics/SVG/1.1/DTD/svg11.dtd">
<svg xmlns="http://www.w3.org/2000/svg" xmlns:xlink="http://www.w3.org/1999/xlink">
	<defs>
		<clipPath id="logo-a">
			<path fill="#fff" d="M0 0h194v44H0z"/>
		</clipPath>
	</defs>
<symbol id="arrow-right" viewBox="0 0 24 24">
	<path d="M4 12h15.3m0 0-7-7m7 7-7 7"/>
</symbol>
<symbol id="blank" viewBox="0 0 24 24">
	<path fill="#1366DE" fill-rule="evenodd" d="M6 3a3 3 0 0 0-3 3v4h2V6a1 1 0 0 1 1-1h4V3H6Zm12 18a3 3 0 0 0 3-3v-4h-2v4a1 1 0 0 1-1 1h-4v2h4Zm3-15a3 3 0 0 0-3-3h-4v2h4a1 1 0 0 1 1 1v4h2V6ZM6 21a3 3 0 0 1-3-3v-4h2v4a1 1 0 0 0 1 1h4v2H6Z" clip-rule="evenodd"/>
</symbol>
<symbol id="building" viewBox="0 0 24 24">
	<path fill="#1366DE" fill-rule="evenodd" d="M5.75 5c0-.69.56-1.25 1.25-1.25h10c.69 0 1.25.56 1.25 1.25v15.25H5.75V5Zm-1.5 15.25h-2v1.5h19.5v-1.5h-2V5A2.75 2.75 0 0 0 17 2.25H7A2.75 2.75 0 0 0 4.25 5v15.25ZM9 7.25h-.75v1.5h2.5v-1.5H9Zm-.75 4h2.5v1.5h-2.5v-1.5Zm.75 4h-.75v1.5h2.5v-1.5H9Zm4.25-8h2.5v1.5h-2.5v-1.5Zm.75 4h-.75v1.5h2.5v-1.5H14Zm-.75 4h2.5v1.5h-2.5v-1.5Z" clip-rule="evenodd"/>
</symbol>
<symbol id="burger" viewBox="0 0 24 24">
	<path stroke="#212529" stroke-width="2" d="M7 12h10M5 6h14M5 18h14"/>
</symbol>
<symbol id="clipboard-text" viewBox="0 0 24 24">
	<path fill="#1366DE" fill-rule="evenodd" d="M9.75 4a.25.25 0 0 1 .25-.25h4a.25.25 0 0 1 .25.25v2a.25.25 0 0 1-.25.25h-4A.25.25 0 0 1 9.75 6V4Zm-1.5.25V4c0-.966.784-1.75 1.75-1.75h4c.966 0 1.75.784 1.75 1.75v.25H17A2.75 2.75 0 0 1 19.75 7v12A2.75 2.75 0 0 1 17 21.75H7A2.75 2.75 0 0 1 4.25 19V7A2.75 2.75 0 0 1 7 4.25h1.25Zm7.5 1.5H17A1.25 1.25 0 0 1 18.25 7v12A1.25 1.25 0 0 1 17 20.25H7A1.25 1.25 0 0 1 5.75 19V7A1.25 1.25 0 0 1 7 5.75h1.25V6c0 .966.784 1.75 1.75 1.75h4A1.75 1.75 0 0 0 15.75 6v-.25ZM9 11.25h-.75v1.5h7.5v-1.5H9Zm-.75 4h7.5v1.5h-7.5v-1.5Z" clip-rule="evenodd"/>
</symbol>
<symbol id="close-white" viewBox="0 0 24 24">
	<path stroke="#fff" stroke-width="2" d="M18 6 6 18M6 6l12 12"/>
</symbol>
<symbol id="close" viewBox="0 0 24 24">
	<path stroke="#212529" stroke-width="2" d="M18 6 6 18M6 6l12 12"/>
</symbol>
<symbol id="currency-convert" viewBox="0 0 24 24">
	<path fill="#1366DE" fill-rule="evenodd" d="M7.75 3.25V1.5h-1.5v1.75h-.6c-.615 0-1.217.221-1.671.635A2.185 2.185 0 0 0 3.25 5.5c0 .62.272 1.2.729 1.616a2.487 2.487 0 0 0 1.671.634l2.7-.001c.26 0 .498.095.662.244a.686.686 0 0 1 .238.507.686.686 0 0 1-.238.506.987.987 0 0 1-.662.244L5 9.25h-.75v1.5h2v1.75h1.5v-1.749h.6c.615 0 1.217-.221 1.671-.634.457-.416.729-.995.729-1.616 0-.621-.272-1.2-.729-1.616A2.487 2.487 0 0 0 8.35 6.25l-2.7.001a.987.987 0 0 1-.662-.244.686.686 0 0 1-.238-.506c0-.175.076-.36.238-.507a.988.988 0 0 1 .662-.244h4.117v-1.5H7.75Zm7.75 2.5h-2v-1.5h2A3.75 3.75 0 0 1 19.25 8v1h-1.5V8a2.25 2.25 0 0 0-2.25-2.25Zm-6 14A4.75 4.75 0 0 1 4.75 15h1.5a3.25 3.25 0 0 0 3.25 3.25h.5v1.5h-.5Zm4.75-7.5H18a2.75 2.75 0 1 1 0 5.5h-2.25v1.5h1.75v1.5h-1.75V22h-1.5v-1.25H12.5v-1.5h1.75v-1.5H12.5v-1.5h1.75v-4Zm1.5 4H18a1.25 1.25 0 1 0 0-2.5h-2.25v2.5Z" clip-rule="evenodd"/>
</symbol>
<symbol id="earth" viewBox="0 0 24 24">
	<path fill="#1366DE" fill-rule="evenodd" d="M5.106 5.106a9.75 9.75 0 1 1 13.788 13.788A9.75 9.75 0 0 1 5.106 5.106ZM12 3.75h-.078a16.249 16.249 0 0 0-1.812 4.5h3.78a16.249 16.249 0 0 0-1.812-4.5H12Zm1.91.224a17.75 17.75 0 0 1 1.517 4.276h3.922a8.249 8.249 0 0 0-5.44-4.276Zm.261 5.776H9.828a16.249 16.249 0 0 0 0 4.5h4.343a16.257 16.257 0 0 0 0-4.5Zm1.514 4.5a17.737 17.737 0 0 0 0-4.5h4.252a8.249 8.249 0 0 1 0 4.5h-4.252Zm-1.796 1.5h-3.778a16.249 16.249 0 0 0 1.81 4.5 6.812 6.812 0 0 0 .157 0 16.247 16.247 0 0 0 1.811-4.5Zm.02 4.276a17.75 17.75 0 0 0 1.518-4.276h3.922a8.25 8.25 0 0 1-5.44 4.276ZM6.167 6.166a8.25 8.25 0 0 1 3.924-2.192A17.75 17.75 0 0 0 8.573 8.25H4.652a8.247 8.247 0 0 1 1.514-2.084ZM4.063 9.75h4.252a17.749 17.749 0 0 0 0 4.5H4.063a8.25 8.25 0 0 1 0-4.5Zm.589 6h3.92c.32 1.481.83 2.919 1.518 4.276a8.248 8.248 0 0 1-5.438-4.276Z" clip-rule="evenodd"/>
</symbol>
<symbol id="logo" viewBox="0 0 194 44">
	<g fill-rule="evenodd" clip-path="url(#logo-a)" clip-rule="evenodd">
		<path fill="#3BB5FC" d="M23.792 44c12.101 0 21.91-9.81 21.91-21.91 0-12.101-9.809-21.91-21.91-21.91-12.1 0-21.91 9.809-21.91 21.91 0 12.1 9.81 21.91 21.91 21.91Zm0-6.228c8.661 0 15.682-7.021 15.682-15.682 0-8.662-7.02-15.683-15.682-15.683-8.66 0-15.682 7.021-15.682 15.683 0 8.66 7.021 15.682 15.682 15.682Z"/>
		<path fill="#0C2F86" d="M55.594 29.992c.494-1.087.976-2.149 1.446-3.216.134-.302.2-.341.52-.15a14.58 14.58 0 0 0 5.36 1.917c1.385.208 2.753.242 4.1-.119.68-.182 1.298-.502 1.428-1.348.092-.596-.132-1.297-.721-1.515a34.102 34.102 0 0 0-3.298-1.046c-.432-.11-.867-.213-1.302-.315-1.424-.335-2.849-.67-4.175-1.314-1.279-.62-2.354-1.519-2.924-2.853-.266-.624-.38-1.327-.473-2.006-.142-1.027-.044-2.044.347-3.019.6-1.492 1.557-2.663 2.97-3.474 1.288-.738 2.661-1.196 4.126-1.326l.255-.023c1.283-.114 2.581-.23 3.858-.14 2.395.167 4.737.656 6.89 1.932l-.265.632v.002c-.185.44-.371.882-.555 1.325l-.266.633c-.27.64-.539 1.279-.787 1.926-.103.272-.208.24-.42.149-.214-.092-.427-.186-.64-.28-.661-.293-1.322-.586-2.008-.798-.682-.212-1.403-.309-2.117-.405l-.282-.039c-.54-.074-1.095-.13-1.634-.083l-.023.002c-.86.073-1.735.148-2.444.763-.936.813-.805 2.179.49 2.621 1.11.38 2.247.691 3.387.974.326.081.652.158.978.235 1.409.332 2.816.664 4.126 1.302 1.131.551 2.095 1.322 2.707 2.452.369.68.57 1.409.641 2.188.095 1.046-.003 2.055-.363 3.041-.537 1.47-1.504 2.578-2.82 3.41a10.404 10.404 0 0 1-3.398 1.383c-.754.163-1.532.274-2.302.29-1.2.028-2.413.04-3.605-.09-2.498-.273-4.9-.907-7.078-2.225a2.065 2.065 0 0 1-.19-.137 3.413 3.413 0 0 0-.08-.062l.541-1.194Zm63.516-13.297-.005 5.654-.019.044h-.001v.002l-.021.045a8.935 8.935 0 0 1-.123-.074l-.859-1.011h-.001c-.652-.767-1.304-1.533-1.947-2.305a648.94 648.94 0 0 1-2.294-2.775l-.003-.003a1000.505 1000.505 0 0 0-4.507-5.436c-.201-.241-.409-.408-.781-.4a135.61 135.61 0 0 1-3.157.016c-.44-.002-.88-.003-1.32-.002-.096 0-.192.006-.282.011a7.66 7.66 0 0 1-.119.007v22.766h6.338v-.543l.005-5.7.005-5.699.002-.033.001-.032.068.054c.117.133.236.266.355.398.262.292.523.584.775.884.556.664 1.107 1.332 1.658 2l.002.003h.001c.286.347.571.693.858 1.038.252.306.506.61.76.914v.001h.001v.001c.325.39.65.78.973 1.171.388.47.774.943 1.161 1.415l.866 1.056c.675.822 1.353 1.64 2.031 2.46.316.38.609.684 1.216.654 1.018-.05 2.038-.04 3.059-.03.412.004.825.008 1.238.008h.415V10.479h-6.344v.562l-.005 5.654Zm74.563-6.065c.024-.026.048-.051.07-.077h-.002v-.09l-1.227-.003c-1.635-.004-3.27-.008-4.906-.001-.127 0-.3.113-.372.224-.211.328-.408.665-.605 1.002-.096.165-.192.33-.29.493a2972.746 2972.746 0 0 1-3.203 5.348c-.265.442-.535.881-.81 1.33l-.003.004-.015.024-.336.55-1.238-2.056-.007-.012c-1.311-2.178-2.613-4.34-3.903-6.508-.18-.3-.36-.423-.72-.419-1.5.015-3 .013-4.5.011l-1.499-.001h-.459l.118.176c.068.1.125.185.178.273l1.829 3.048.003.005.003.006.012.019c.796 1.328 1.592 2.656 2.39 3.982.434.722.869 1.443 1.304 2.163v.001c.9 1.491 1.801 2.983 2.691 4.481.148.25.25.57.252.857.016 1.882.014 3.764.013 5.646l-.001 1.64v.486h6.525v-1.976c-.001-1.966-.002-3.933.007-5.9.001-.192.063-.406.161-.57 2.793-4.663 5.592-9.32 8.393-13.976.04-.066.093-.123.147-.18Zm-26.187 8.638v4.824H157.31v4.16h11.937v4.964h-18.383V10.472h17.956v4.971h-11.501v3.825h10.167Zm-67.339 13.978 1.599-.002v.002l.007-.083.007-.081-.081-.186c-.065-.149-.13-.298-.197-.446-.208-.461-.418-.922-.627-1.382v-.001c-.466-1.026-.933-2.051-1.39-3.08-.583-1.311-1.16-2.624-1.737-3.936v-.001l-.001-.002-1.168-2.651c-.212-.48-.428-.96-.644-1.439v-.001a251.4 251.4 0 0 1-.505-1.124l-.381-.855-.002-.005v-.001c-1.074-2.41-2.147-4.819-3.212-7.231-.096-.216-.203-.3-.451-.298-1.926.012-3.85.011-5.776 0-.26-.001-.379.077-.485.32-.257.587-.526 1.169-.795 1.75-.245.532-.49 1.063-.727 1.598-.444 1.004-.881 2.01-1.319 3.016-.431.993-.863 1.985-1.3 2.975-.33.745-.667 1.485-1.005 2.226-.28.611-.558 1.222-.831 1.835-1.055 2.36-2.106 4.724-3.15 7.09-.19.43-.363.87-.537 1.308-.081.205-.162.41-.245.614l.051.067c.418 0 .835.002 1.253.003 1.67.003 3.34.007 5.01-.001.12-.001.301-.126.346-.236.421-1.03.83-2.066 1.237-3.102l.314-.794c.09-.227.226-.326.499-.324 1.252.012 2.505.01 3.758.01l1.253-.002h4.294l.06.139h.001c.053.122.104.237.152.354l.305.738v.001c.406.98.81 1.96 1.207 2.942.084.206.183.29.414.289 1.6-.01 3.2-.011 4.799-.013Zm-14.668-9.244L88.4 16.83l.554 1.354 2.38 5.818H85.48Zm49.476 9.23h6.486l.001.001V15.547h6.969V10.47h-20.468v5.11h7.012v17.652Z"/>
		<path fill="#0B2E85" d="m32.12 16.122 1.28.336h.002c0-.028.002-.053.004-.074.003-.039.005-.067-.006-.087-.437-.766-.873-1.532-1.323-2.29-.047-.078-.177-.12-.278-.147-2.633-.677-5.266-1.35-7.902-2.018-.115-.03-.254.002-.376.033-.693.171-1.384.345-2.076.519-1.377.345-2.753.691-4.134 1.018l-.16.038c-.977.23-1.917.45-2.285 1.607-.1.313-.276.602-.458.9-.085.141-.172.283-.253.431l.092.014c.04.007.064.011.086.005.33-.09.66-.18.989-.272.575-.159 1.15-.318 1.729-.47 1.82-.478 3.642-.955 5.466-1.417.108-.028.22-.06.33-.093.38-.112.77-.227 1.115-.156.996.207 1.978.477 2.96.747.406.112.811.223 1.217.33 1.323.35 2.647.697 3.98 1.046Zm-20.955 5.58c.289-.08.565-.154.834-.227.53-.143 1.03-.278 1.528-.418.62-.174 1.238-.351 1.857-.528a339.66 339.66 0 0 1 7.408-2.04c.087-.023.175-.05.263-.077.282-.086.568-.173.84-.146.39.038.774.156 1.156.274.131.04.262.08.393.117.782.22 1.563.443 2.344.665h.001a579.091 579.091 0 0 0 6.888 1.924c.363.1.727.192 1.121.292.202.05.411.104.632.16l-.5-.857v-.001l-.002-.001c-.562-.964-1.094-1.876-1.636-2.782-.072-.118-.236-.216-.376-.254-.672-.18-1.346-.35-2.02-.52l-.806-.204c-.634-.161-1.269-.323-1.903-.486-1.467-.374-2.934-.75-4.402-1.117a8.134 8.134 0 0 1-.247-.068c-.316-.09-.644-.183-.925-.115-2.963.712-5.916 1.461-8.87 2.21l-1.182.3a.497.497 0 0 0-.283.203c-.545.94-1.082 1.885-1.649 2.88l-.004.008-.46.807h-.001v.002Zm-2.337 3.932c-.101.158-.202.317-.3.477h-.002l-.747 1.327-1.028 1.827 1.83-.537.018-.005.71-.209.995-.335c.733-.247 1.466-.495 2.202-.733l.44-.143c3.431-1.11 6.861-2.22 10.299-3.307.314-.1.712-.106 1.026-.01 1.607.494 3.207 1.013 4.807 1.53l.001.001 1.323.428a6708.784 6708.784 0 0 0 7.75 2.505l.01.003c.117.035.234.071.35.108.265.081.53.163.797.237.315.088.631.168.948.249l.402.103.004.007.005-.005-.009-.002a54.8 54.8 0 0 1-.16-.304c-.096-.183-.193-.366-.292-.548a659.55 659.55 0 0 0-.898-1.629l-.34-.616a95.064 95.064 0 0 1-.303-.49 37.345 37.345 0 0 0-.816-1.292 1.016 1.016 0 0 0-.48-.384 286.858 286.858 0 0 0-5.076-1.603c-2.306-.702-4.616-1.39-6.927-2.076l-.338-.1c-.114-.035-.227-.073-.34-.111-.499-.17-.997-.339-1.556-.122-.425.165-.864.295-1.303.425l-.304.09c-.874.264-1.748.526-2.622.788h-.002c-1.311.394-2.623.788-3.934 1.185-.527.16-1.052.324-1.578.489a97.41 97.41 0 0 1-2.945.887c-.475.133-.749.359-.964.786-.192.383-.423.746-.653 1.109Zm-3.954 6.828-.275.445v.002a9.451 9.451 0 0 0-.078.177 4.352 4.352 0 0 1-.178.376c-.245.442-.494.882-.743 1.322l-.324.574-.438.777c-.496.878-.992 1.756-1.484 2.635-.277.495-.55.992-.832 1.508v.001l-.002.003-.378.69c.051-.007.094-.01.13-.014.065-.006.11-.01.15-.026l1.897-.728 1.897-.728c1.043-.398 2.087-.795 3.131-1.191l1.072-.407 6.874-2.61 5.829-2.213.602-.23c.665-.254 1.331-.508 2.001-.748.116-.042.282.014.411.063 2.065.781 4.128 1.566 6.19 2.356.474.182.947.371 1.419.561l.627.251.069.012c.05.008.101.015.148.033 2.053.778 4.107 1.557 6.158 2.342.079.03.148.086.217.141.032.026.064.052.096.076.203.068.406.135.608.2v.001c.446.146.891.291 1.328.458.98.375 1.957.756 2.933 1.138.759.297 1.517.593 2.276.886.25.097.509.176.795.264.14.044.286.089.441.139l-.11-.185c-.054-.089-.092-.152-.127-.216l-.818-1.452c-.713-1.267-1.427-2.534-2.134-3.805-.323-.58-.634-1.165-.945-1.75l-.406-.76a3.961 3.961 0 0 1-.222-.181c-.159-.137-.318-.273-.502-.339a281.294 281.294 0 0 0-3.818-1.328l-1.286-.441c-1.504-.509-3.008-1.018-4.511-1.525l-1.938-.651c-1.077-.362-2.153-.723-3.23-1.088-.347-.117-.693-.239-1.04-.36-.68-.239-1.359-.477-2.046-.687a1.71 1.71 0 0 0-.977.004c-2.77.923-5.534 1.861-8.298 2.8l-2.285.775c-.515.174-1.03.348-1.546.52l-.001.001-.714.24h-.001a19497.3 19497.3 0 0 0-5.612 1.892Z"/>
	</g>

</symbol>
<symbol id="package" viewBox="0 0 24 24">
	<path fill="#1366DE" fill-rule="evenodd" d="m12 2.14.368.206 7.99 4.494a.817.817 0 0 1 .022.013l.37.208v9.878l-.382.215-7.988 4.493a.663.663 0 0 1-.025.014l-.355.2-.355-.2a.532.532 0 0 1-.024-.014l-7.989-4.493-.382-.215V7.06l.37-.208a.776.776 0 0 1 .023-.013l7.99-4.494L12 2.14ZM4.75 8.781v7.28l6.5 3.656v-7.28l-6.5-3.656ZM12 11.14 18.47 7.5l-2.602-1.464-6.234 3.773L12 11.139ZM8.133 8.965 5.53 7.5 12 3.86l2.366 1.331-6.233 3.773Zm11.117 7.097-6.5 3.657v-7.28l6.5-3.656v7.28Z" clip-rule="evenodd"/>
</symbol>
<symbol id="phone" viewBox="0 0 24 24">
	<path fill="#212529" d="M18.5 19.996C10.42 19.359 4.64 13.579 4.004 5.5 3.94 4.674 4.618 4 5.446 4h2.462a1 1 0 0 1 .948.684l.857 2.57a1 1 0 0 1-.432 1.173L7.5 9.5c0 2.676 4.324 7 7 7l1.073-1.78a1 1 0 0 1 1.173-.433l2.57.857a1 1 0 0 1 .684.948v2.462c0 .829-.674 1.507-1.5 1.442Z"/>
</symbol>
<symbol id="play-button" viewBox="0 0 24 24">
	<path fill="#212529" d="M5 17.692V6.308c0-1.92 2.074-3.123 3.74-2.17l9.961 5.691c1.68.96 1.68 3.382 0 4.342l-9.96 5.692C7.073 20.815 5 19.612 5 17.693Z"/>
</symbol>
<symbol id="plus" viewBox="0 0 24 24">
	<path stroke="#212529" stroke-width="2" d="M12 5v14m-7-7h14"/>
</symbol>
<symbol id="search-earth" viewBox="0 0 24 24">
	<path fill="#1366DE" fill-rule="evenodd" d="M10.098 2.437A9.75 9.75 0 0 1 21.75 12v.75h-1.5V12a8.25 8.25 0 0 0-.313-2.25h-4.232c.057.443.087.864.087 1.256v.75h-1.5v-.75c0-.382-.035-.805-.101-1.256H9.829a16.249 16.249 0 0 0 0 4.5H12v1.5h-1.89a16.247 16.247 0 0 0 1.812 4.5h.828v1.5H12a9.75 9.75 0 0 1-1.902-19.313Zm5.329 5.813h3.922a8.25 8.25 0 0 0-5.47-4.284 20.777 20.777 0 0 1 1.548 4.284Zm-3.358-4.5a19.283 19.283 0 0 1 1.813 4.5H10.11a16.248 16.248 0 0 1 1.811-4.5h.147Zm-3.496 4.5a17.75 17.75 0 0 1 1.517-4.276A8.25 8.25 0 0 0 4.652 8.25h3.92Zm-.4 3.75c0-.755.047-1.506.142-2.25H4.063a8.253 8.253 0 0 0 0 4.5h4.252A17.749 17.749 0 0 1 8.172 12Zm-3.521 3.75h3.92c.321 1.481.83 2.919 1.518 4.276a8.25 8.25 0 0 1-5.438-4.276Zm10.696-.402a3.75 3.75 0 0 1 5.78 4.72l1.902 1.902-1.06 1.06-1.902-1.902a3.75 3.75 0 0 1-4.72-5.78ZM18 15.75a2.25 2.25 0 1 0 0 4.5 2.25 2.25 0 0 0 0-4.5Z" clip-rule="evenodd"/>
</symbol>
<symbol id="success" viewBox="0 0 72 72">
	<circle cx="36" cy="36" r="35.5" stroke="#E6F7EC"/>
	<circle cx="36" cy="36" r="27.5" stroke="#CDEFD9"/>
	<rect width="40" height="40" x="16" y="16" fill="#50C878" rx="20"/>
	<path stroke="#fff" stroke-width="3" d="m29 35 5 5 9-9"/>
</symbol>
<symbol id="translate" viewBox="0 0 24 24">
	<path fill="#1366DE" fill-rule="evenodd" d="M9.75 2.25v2h2v1.5H9.73c-.11 1.996-.654 3.82-1.508 5.222 1.128.272 2.478.278 3.778.278v1.5h-.069c-1.413 0-3.21 0-4.686-.501C6.356 13.166 5.25 13.75 4 13.75h-.75v-1.5H4c.622 0 1.249-.244 1.83-.73a3.83 3.83 0 0 1-.758-.758C4.535 10.046 4.25 9.13 4.25 8h1.5c0 .87.215 1.453.522 1.863.15.199.332.372.547.522.027-.041.054-.083.08-.126.72-1.152 1.218-2.726 1.328-4.509H3.25v-1.5h5v-2h1.5Zm3.626 16.5-.69 1.555-.305.685-1.371-.61.305-.685 4-9h1.37l4 9 .305.686-1.37.609-.305-.685-.691-1.555h-5.248Zm.667-1.5h3.914L16 12.847l-1.957 4.403Z" clip-rule="evenodd"/>
</symbol>
<symbol id="users" viewBox="0 0 24 24">
	<path fill="#1366DE" fill-rule="evenodd" d="M9 2.25a4.75 4.75 0 1 0 0 9.5 4.75 4.75 0 0 0 0-9.5ZM6.702 4.702a3.25 3.25 0 1 1 4.596 4.596 3.25 3.25 0 0 1-4.596-4.596Zm-2 12A3.25 3.25 0 0 1 7 15.75h4A3.25 3.25 0 0 1 14.25 19v2.75h1.5V19A4.75 4.75 0 0 0 11 14.25H7A4.75 4.75 0 0 0 2.25 19v2.75h1.5V19c0-.862.342-1.689.952-2.298Zm14.596 0A3.25 3.25 0 0 0 17 15.75v-1.5A4.75 4.75 0 0 1 21.75 19v2.75h-1.5V19a3.25 3.25 0 0 0-.952-2.298Zm-.94-13.06A4.75 4.75 0 0 0 15 2.25v1.5a3.25 3.25 0 1 1 0 6.5v1.5a4.75 4.75 0 0 0 3.359-8.109Z" clip-rule="evenodd"/>
</symbol>
<symbol id="vk-icon" viewBox="0 0 32 32">
	<path d="M17.132 23.909c-8.66 0-13.601-5.938-13.807-15.818h4.339c.142 7.252 3.34 10.324 5.874 10.957V8.09h4.085v6.254c2.502-.269 5.13-3.12 6.017-6.254h4.085c-.68 3.863-3.53 6.713-5.558 7.885 2.027.95 5.273 3.436 6.508 7.933h-4.497c-.966-3.009-3.372-5.336-6.555-5.653v5.653h-.49Z"/>
</symbol>
<symbol id="whats-app-icon" viewBox="0 0 32 32">
	<path fill-rule="evenodd" d="M4.892 14.9c-.001 1.93.495 3.812 1.44 5.478L4.716 26.28l6.038-1.584a11.111 11.111 0 0 0 5.24 1.314c6.119 0 11.099-4.98 11.101-11.1.001-2.967-1.153-5.757-3.248-7.855A11.032 11.032 0 0 0 15.993 3.8C9.874 3.8 4.894 8.78 4.892 14.9Zm6.185 7.396.072.042c1.515.9 2.946 1.43 4.84 1.432 4.884 0 8.863-3.976 8.866-8.862a8.858 8.858 0 0 0-8.858-8.867c-4.887 0-8.863 3.975-8.865 8.86 0 1.992.58 3.483 1.57 5.058l.047.075-.848 3.094 3.095-.811.081-.021Z" clip-rule="evenodd"/>
	<path d="M18.747 16.03c-.176.02-.313.124-.426.293-.172.259-.686.863-.846 1.047-.06.069-.099.083-.126.086-.036.005-.102-.004-.224-.065-.05-.025-.116-.054-.195-.088a7.166 7.166 0 0 1-.937-.477 7.01 7.01 0 0 1-1.016-.758c-.786-.701-1.32-1.572-1.475-1.839-.056-.095-.044-.137-.037-.158a.5.5 0 0 1 .124-.155c.09-.088.195-.217.293-.336.044-.055.087-.107.126-.152.135-.155.197-.28.266-.42l.037-.075c.131-.263.058-.496-.024-.658-.03-.059-.178-.416-.354-.843l-.202-.491-.026-.063-.251-.612c-.12-.286-.258-.453-.427-.533-.129-.061-.274-.058-.336-.057a.42.42 0 0 1-.025 0l-.53-.01h-.003c-.227 0-.58.085-.873.407l-.055.059c-.29.31-.95 1.016-.95 2.348 0 .716.258 1.407.526 1.934.265.522.546.899.621 1l.004.004.046.065.043.061c.404.577 2.066 2.873 4.497 3.985l.148.066c.658.284 1.173.454 1.571.58.693.22 1.32.188 1.806.116.3-.045.73-.224 1.11-.468.374-.24.751-.575.888-.958.12-.335.18-.647.201-.894.01-.124.012-.234.005-.324a.59.59 0 0 0-.064-.248.655.655 0 0 0-.26-.223 4.877 4.877 0 0 0-.205-.103 17.08 17.08 0 0 0-2.022-.964c-.12-.043-.27-.096-.423-.079Z"/>
</symbol>
</svg>