<svg width="32" height="32" viewBox="0 0 32 32" fill="none" xmlns="http://www.w3.org/2000/svg">
<path d="M11.0623 22.4029L11.0983 22.4243C12.6236 23.3298 14.0728 23.8687 15.9899 23.8696L11.0623 22.4029ZM11.0623 22.4029L11.0219 22.4135M11.0623 22.4029L11.0219 22.4135M11.0219 22.4135L7.75928 23.2688M11.0219 22.4135L7.75928 23.2688M7.75928 23.2688L8.62927 20.0919L8.64088 20.0495L8.6175 20.0123C7.62086 18.4259 7.03142 16.917 7.03233 14.901C7.03414 9.96043 11.0548 5.94069 15.9972 5.94067L7.75928 23.2688ZM18.4046 16.3782L18.4046 16.3781C18.5066 16.2255 18.6207 16.1452 18.758 16.1296C18.8843 16.1151 19.0137 16.1589 19.1353 16.2031M18.4046 16.3782L20.9628 17.1835M18.4046 16.3782C18.2274 16.644 17.7097 17.253 17.5499 17.4358C17.4802 17.5155 17.4215 17.5481 17.3607 17.5555C17.2958 17.5634 17.2092 17.545 17.0797 17.48C17.0325 17.4563 16.9691 17.4288 16.8915 17.3951C16.5052 17.2273 15.7662 16.9063 14.9106 16.1427L14.8441 16.2173M18.4046 16.3782L14.8441 16.2173M19.1353 16.2031L19.1011 16.2971L19.1351 16.2031C19.1352 16.2031 19.1352 16.2031 19.1353 16.2031ZM19.1353 16.2031C19.2666 16.2508 19.67 16.4413 20.0672 16.6331C20.4676 16.8264 20.871 17.0256 21.0076 17.0941M21.0076 17.0941C21.0076 17.0941 21.0076 17.0941 21.0075 17.0941L20.9628 17.1835M21.0076 17.0941C21.0576 17.1191 21.1062 17.1426 21.1522 17.1648C21.2264 17.2006 21.2937 17.2331 21.3491 17.2634C21.4391 17.3128 21.5225 17.3688 21.5712 17.4503L21.4853 17.5016M21.0076 17.0941L20.9628 17.1835M20.9628 17.1835L21.4853 17.5016M21.4853 17.5016L21.5709 17.4498C21.6012 17.5 21.615 17.5763 21.6212 17.6546C21.6278 17.7383 21.6269 17.8428 21.6167 17.962C21.5961 18.2006 21.5375 18.5046 21.4209 18.8314L21.4209 18.8314C21.2956 19.1819 20.9428 19.5014 20.5723 19.7389C20.1995 19.9779 19.7831 20.1502 19.5026 20.1919L19.5026 20.1919C19.025 20.2628 18.4142 20.2936 17.7416 20.0801L17.7416 20.0801C17.3451 19.9541 16.8337 19.7852 16.1794 19.5028L16.1794 19.5028C13.5997 18.389 11.8591 15.8921 11.5337 15.4254C11.5107 15.3924 11.4948 15.3695 11.4862 15.358L11.486 15.3578L11.4827 15.3534C11.4086 15.2544 11.131 14.8832 10.8701 14.3691C10.6058 13.8486 10.3542 13.1731 10.3542 12.4801C10.3542 11.1874 10.9919 10.5058 11.279 10.199C11.299 10.1776 11.3174 10.1581 11.3336 10.1403C11.6052 9.84274 11.9291 9.76667 12.1335 9.76667H12.1352V9.76668L12.6577 9.77585L12.6609 9.7759L12.6609 9.77596C12.6723 9.77652 12.6866 9.77636 12.7032 9.77618C12.7723 9.7754 12.8809 9.77419 12.9847 9.82324C13.1215 9.88787 13.2462 10.0289 13.3615 10.3048L13.3616 10.305C13.4315 10.4734 13.5317 10.7176 13.6388 10.9787C13.7053 11.1407 13.7745 11.3092 13.8407 11.47C14.0151 11.8938 14.1661 12.2571 14.1981 12.3203L14.1982 12.3205C14.2734 12.4699 14.3324 12.6656 14.2213 12.8878L14.2212 12.888C14.2078 12.9146 14.1952 12.9402 14.1831 12.9649C14.1145 13.1046 14.0586 13.2184 13.9324 13.3623M21.4853 17.5016L14.1089 12.3655C14.1776 12.5021 14.2226 12.6616 14.1318 12.8431C14.1178 12.8709 14.1049 12.8972 14.0926 12.9222C14.0243 13.0612 13.9741 13.1632 13.8568 13.2968M13.9324 13.3623C13.9322 13.3625 13.9321 13.3627 13.932 13.3628L13.8568 13.2968M13.9324 13.3623C13.9325 13.3622 13.9326 13.362 13.9328 13.3619L13.8568 13.2968M13.9324 13.3623C13.8903 13.4115 13.8452 13.4664 13.7993 13.5224C13.7036 13.6391 13.6039 13.7605 13.5187 13.8451M13.8568 13.2968C13.8111 13.3502 13.764 13.4076 13.717 13.465C13.6233 13.5792 13.5297 13.6933 13.448 13.7744M13.5187 13.8451L13.448 13.7744M13.5187 13.8451C13.4482 13.9157 13.3956 13.9717 13.3718 14.0358C13.3515 14.0903 13.3479 14.164 13.4152 14.2796L13.4153 14.2797C13.5721 14.5498 14.113 15.4309 14.9106 16.1427L14.8441 16.2173M13.5187 13.8451C13.5186 13.8452 13.5185 13.8453 13.5184 13.8454L13.448 13.7744M13.448 13.7744L14.8441 16.2173M4.90355 25.9736L4.85781 26.1407L5.02537 26.0967L10.7666 24.5906C12.365 25.4553 14.1661 25.9102 15.9935 25.9112H15.9936C22.0575 25.9112 26.9927 20.976 26.9955 14.9102C26.9964 11.9705 25.8529 9.2061 23.7762 7.12667L23.7762 7.12665C21.6986 5.04722 18.936 3.90093 15.9936 3.9H15.9936C9.92958 3.9 4.99444 8.83519 4.99167 14.9C4.99075 16.8258 5.48945 18.7043 6.43898 20.3643L4.90355 25.9736ZM24.9548 14.9083C24.9521 19.8498 20.9287 23.8696 15.9899 23.8696L15.9972 5.94067C20.9524 5.9425 24.9566 9.95663 24.9548 14.9083Z" fill="#6C757D" stroke="#6C757D" stroke-width="0.2"/>
</svg>
